<svg width="563" height="95" viewBox="0 0 563 95" fill="none" xmlns="http://www.w3.org/2000/svg">
<path d="M104.07 36.693C106.328 40.4789 107.457 42.3718 107.899 44.3883C108.289 46.1722 108.289 48.0178 107.899 49.8017C107.457 51.8182 106.328 53.7112 104.07 57.497L88.2159 84.0785C86.0178 87.7639 84.9187 89.6066 83.3932 90.9459C82.0434 92.1311 80.4578 93.0255 78.7378 93.5722C76.7939 94.19 74.6265 94.19 70.2917 94.19H37.9C33.5651 94.19 31.3977 94.19 29.4539 93.5722C27.7338 93.0255 26.1482 92.1311 24.7984 90.9459C23.2729 89.6066 22.1738 87.7639 19.9757 84.0785L4.12156 57.4971C1.86351 53.7112 0.734488 51.8182 0.292957 49.8017C-0.0976525 48.0178 -0.0976525 46.1722 0.292957 44.3883C0.734488 42.3718 1.86351 40.4788 4.12156 36.693L19.9757 10.1115C22.1738 6.42612 23.2729 4.58342 24.7984 3.24407C26.1483 2.05893 27.7338 1.16447 29.4539 0.617799C31.3977 -2.98023e-07 33.5651 -1.86701e-07 37.9 2.05539e-10L70.2917 1.39685e-06C74.6265 1.58375e-06 76.7939 1.66893e-06 78.7378 0.617801C80.4578 1.16447 82.0434 2.05893 83.3933 3.24408C84.9188 4.58342 86.0178 6.42612 88.2159 10.1115L104.07 36.693Z" fill="url(#paint0_linear_4988_21)"/>
<path d="M4.12156 36.693C1.86351 40.4788 0.734488 42.3718 0.292957 44.3883C-0.0976525 46.1722 -0.0976525 48.0178 0.292957 49.8017C0.734488 51.8182 1.86351 53.7112 4.12156 57.4971L19.9757 84.0785C22.1738 87.7639 23.2729 89.6066 24.7984 90.9459C26.1482 92.1311 27.7338 93.0255 29.4539 93.5722C31.3977 94.19 33.5651 94.19 37.9 94.19H70.2917C74.6265 94.19 76.7939 94.19 78.7378 93.5722C80.4578 93.0255 82.0434 92.1311 83.3932 90.9459C84.9187 89.6066 86.0178 87.7639 88.2159 84.0785L104.07 57.497C106.328 53.7112 107.457 51.8182 107.899 49.8017C108.289 48.0178 108.289 46.1722 107.899 44.3883C107.457 42.3718 106.328 40.4789 104.07 36.693L88.2159 10.1115C86.0178 6.42612 84.9188 4.58342 83.3933 3.24408C82.0434 2.05893 80.4578 1.16447 78.7378 0.617801C76.7939 1.66893e-06 74.6265 1.58375e-06 70.2917 1.39685e-06L37.9 2.05539e-10C33.5651 -1.86701e-07 31.3977 -2.98023e-07 29.4539 0.617799C27.7338 1.16447 26.1483 2.05893 24.7984 3.24407C23.2729 4.58342 22.1738 6.42612 19.9757 10.1115L4.12156 36.693Z" fill="url(#paint1_radial_4988_21)"/>
<path d="M104.07 36.693C106.328 40.4789 107.457 42.3718 107.899 44.3883C108.289 46.1722 108.289 48.0178 107.899 49.8017C107.457 51.8182 106.328 53.7112 104.07 57.497L88.2159 84.0785C86.0178 87.7639 84.9187 89.6066 83.3932 90.9459C82.0434 92.1311 80.4578 93.0255 78.7378 93.5722C76.7939 94.19 74.6265 94.19 70.2917 94.19H37.9C33.5651 94.19 31.3977 94.19 29.4539 93.5722C27.7338 93.0255 26.1482 92.1311 24.7984 90.9459C23.2729 89.6066 22.1738 87.7639 19.9757 84.0785L4.12156 57.4971C1.86351 53.7112 0.734488 51.8182 0.292957 49.8017C-0.0976525 48.0178 -0.0976525 46.1722 0.292957 44.3883C0.734488 42.3718 1.86351 40.4788 4.12156 36.693L19.9757 10.1115C22.1738 6.42612 23.2729 4.58342 24.7984 3.24407C26.1483 2.05893 27.7338 1.16447 29.4539 0.617799C31.3977 -2.98023e-07 33.5651 -1.86701e-07 37.9 2.05539e-10L70.2917 1.39685e-06C74.6265 1.58375e-06 76.7939 1.66893e-06 78.7378 0.617801C80.4578 1.16447 82.0434 2.05893 83.3933 3.24408C84.9188 4.58342 86.0178 6.42612 88.2159 10.1115L104.07 36.693Z" fill="url(#paint2_linear_4988_21)"/>
<path fill-rule="evenodd" clip-rule="evenodd" d="M41.3382 34.228C44.5339 32.9615 46.7847 29.9249 46.7847 26.3802C46.7847 21.6977 42.857 17.9018 38.0119 17.9018C33.1669 17.9018 29.2392 21.6977 29.2392 26.3802C29.2392 30.144 31.7768 33.3349 35.2887 34.4422V59.2439C31.7768 60.3512 29.2392 63.5421 29.2392 67.3059C29.2392 71.9884 33.1669 75.7843 38.012 75.7843C42.857 75.7843 46.7847 71.9884 46.7847 67.3059C46.7847 63.7612 44.5339 60.7246 41.3382 59.4581V50.0577H63.5197V44.2111H41.3382V34.228ZM41.4495 26.3808C41.4495 28.2157 39.9104 29.7032 38.0118 29.7032C36.1131 29.7032 34.574 28.2157 34.574 26.3808C34.574 24.5459 36.1131 23.0584 38.0118 23.0584C39.9104 23.0584 41.4495 24.5459 41.4495 26.3808ZM38.0118 70.6289C39.9104 70.6289 41.4496 69.1414 41.4496 67.3065C41.4496 65.4715 39.9104 63.984 38.0118 63.984C36.1132 63.984 34.574 65.4715 34.574 67.3065C34.574 69.1414 36.1132 70.6289 38.0118 70.6289Z" fill="white"/>
<path fill-rule="evenodd" clip-rule="evenodd" d="M71.2842 75.7843C76.1292 75.7843 80.0569 71.9884 80.0569 67.3059C80.0569 63.7612 77.8061 60.7246 74.6104 59.4581V34.228C77.8061 32.9615 80.0569 29.9249 80.0569 26.3802C80.0569 21.6977 76.1292 17.9018 71.2842 17.9018C66.4391 17.9018 62.5114 21.6977 62.5114 26.3802C62.5114 30.144 65.049 33.3349 68.5609 34.4422V59.2439C65.049 60.3512 62.5114 63.5421 62.5114 67.3059C62.5114 71.9884 66.4391 75.7843 71.2842 75.7843ZM71.284 70.6289C73.1827 70.6289 74.7218 69.1414 74.7218 67.3065C74.7218 65.4715 73.1827 63.984 71.284 63.984C69.3854 63.984 67.8462 65.4715 67.8462 67.3065C67.8462 69.1414 69.3854 70.6289 71.284 70.6289ZM71.284 29.7032C73.1826 29.7032 74.7218 28.2157 74.7218 26.3808C74.7218 24.5459 73.1826 23.0584 71.284 23.0584C69.3854 23.0584 67.8462 24.5459 67.8462 26.3808C67.8462 28.2157 69.3854 29.7032 71.284 29.7032Z" fill="white"/>
<path d="M561.078 21.9367L562.404 27.1673C562.355 27.1673 562.282 27.1673 562.183 27.1673C562.085 27.1673 561.987 27.1673 561.889 27.1673C559.482 27.1673 557.616 27.6584 556.29 28.6407C555.013 29.5738 554.374 31.0963 554.374 33.2082L550.765 31.3665C550.765 29.451 551.207 27.7812 552.091 26.3569C552.975 24.9326 554.178 23.8521 555.7 23.1154C557.223 22.3296 558.893 21.9367 560.71 21.9367C560.759 21.9367 560.808 21.9367 560.857 21.9367C560.956 21.9367 561.029 21.9367 561.078 21.9367ZM549.881 60.8345C553.368 60.8345 556.093 61.6448 558.058 63.2656C560.022 64.8372 561.005 66.9491 561.005 69.6012C561.005 72.0077 560.194 74.0951 558.574 75.8631C557.002 77.6312 554.866 78.9818 552.164 79.915C549.512 80.8973 546.516 81.3884 543.177 81.3884C537.381 81.3884 533.035 80.4061 530.137 78.4416C527.288 76.4771 525.864 74.1196 525.864 71.3693C525.864 69.4047 526.503 67.6367 527.78 66.065C529.106 64.5425 531.316 63.683 534.41 63.4866L533.894 64.5916C532.224 64.1496 530.8 63.4129 529.621 62.3815C528.492 61.301 527.927 59.754 527.927 57.7403C527.927 55.7267 528.664 54.0077 530.137 52.5834C531.66 51.11 533.894 50.2014 536.841 49.8576L540.745 51.8467H540.009C537.602 52.0923 535.883 52.7062 534.852 53.6885C533.87 54.6216 533.378 55.653 533.378 56.7826C533.378 58.1578 533.87 59.1892 534.852 59.8767C535.883 60.5152 537.308 60.8345 539.125 60.8345H549.881ZM543.103 76.4525C545.951 76.4525 548.284 76.1578 550.102 75.5685C551.968 74.9791 553.343 74.2178 554.227 73.2847C555.111 72.3515 555.553 71.3447 555.553 70.2642C555.553 68.9382 555.013 67.8822 553.932 67.0964C552.901 66.3106 551.01 65.9177 548.26 65.9177H536.915C535.343 65.9177 534.017 66.3106 532.936 67.0964C531.856 67.9313 531.316 69.0609 531.316 70.4852C531.316 72.3024 532.347 73.7513 534.41 74.8318C536.522 75.9122 539.419 76.4525 543.103 76.4525ZM542.587 27.9776C545.534 27.9776 548.137 28.5179 550.396 29.5984C552.705 30.6298 554.497 32.0786 555.774 33.9449C557.051 35.8112 557.69 37.9722 557.69 40.4279C557.69 42.8344 557.051 44.9954 555.774 46.9108C554.497 48.7771 552.705 50.2505 550.396 51.331C548.137 52.3624 545.534 52.8781 542.587 52.8781C537.725 52.8781 533.992 51.7239 531.389 49.4156C528.786 47.0582 527.485 44.0623 527.485 40.4279C527.485 37.9722 528.123 35.8112 529.4 33.9449C530.726 32.0786 532.519 30.6298 534.778 29.5984C537.037 28.5179 539.64 27.9776 542.587 27.9776ZM542.587 32.7662C540.033 32.7662 537.897 33.4783 536.178 34.9026C534.459 36.2778 533.599 38.1195 533.599 40.4279C533.599 42.6871 534.459 44.5288 536.178 45.9531C537.897 47.3774 540.033 48.0895 542.587 48.0895C545.141 48.0895 547.278 47.3774 548.997 45.9531C550.715 44.5288 551.575 42.6871 551.575 40.4279C551.575 38.1195 550.715 36.2778 548.997 34.9026C547.278 33.4783 545.141 32.7662 542.587 32.7662Z" fill="#465387"/>
<path d="M487.398 65.5493V28.7143H492.555L493.071 36.9654L492.113 36.155C492.899 34.1905 493.955 32.6189 495.281 31.4401C496.607 30.2123 498.129 29.3283 499.848 28.788C501.616 28.2478 503.433 27.9776 505.3 27.9776C507.952 27.9776 510.358 28.4933 512.519 29.5247C514.68 30.507 516.399 32.0295 517.676 34.0922C519.002 36.155 519.665 38.7826 519.665 41.9749V65.5493H513.772V44.0377C513.772 39.9613 512.888 37.1373 511.12 35.5657C509.401 33.9449 507.264 33.1345 504.71 33.1345C502.942 33.1345 501.174 33.552 499.406 34.3869C497.638 35.2219 496.165 36.5725 494.986 38.4388C493.856 40.3051 493.292 42.8099 493.292 45.9531V65.5493H487.398Z" fill="#465387"/>
<path d="M473.723 21.642C472.397 21.642 471.317 21.2491 470.482 20.4633C469.696 19.6284 469.303 18.5479 469.303 17.2218C469.303 15.8958 469.696 14.8398 470.482 14.054C471.317 13.2191 472.397 12.8016 473.723 12.8016C475.049 12.8016 476.105 13.2191 476.891 14.054C477.726 14.8398 478.143 15.8958 478.143 17.2218C478.143 18.5479 477.726 19.6284 476.891 20.4633C476.105 21.2491 475.049 21.642 473.723 21.642ZM476.67 28.7143V65.5493H470.776V28.7143H476.67Z" fill="#465387"/>
<path d="M451.552 18.2532V55.3829C451.552 57.2001 452.068 58.5507 453.099 59.4347C454.131 60.3188 455.457 60.7608 457.078 60.7608C458.502 60.7608 459.73 60.5152 460.761 60.0241C461.792 59.533 462.726 58.8699 463.561 58.035L465.623 62.9709C464.494 64.0023 463.143 64.8126 461.571 65.402C460.049 65.9914 458.281 66.286 456.267 66.286C454.401 66.286 452.657 65.9668 451.037 65.3283C449.416 64.6407 448.114 63.5848 447.132 62.1605C446.199 60.6871 445.708 58.7717 445.659 56.4143V19.8739L451.552 18.2532ZM464.96 28.7143V33.7976H438.292V28.7143H464.96Z" fill="#465387"/>
<path d="M420.217 66.286C416.632 66.286 413.317 65.5248 410.272 64.0023C407.276 62.4798 404.968 60.3188 403.347 57.5193L408.356 53.9095C409.437 56.1687 411.009 57.9368 413.071 59.2137C415.183 60.4907 417.713 61.1291 420.659 61.1291C423.262 61.1291 425.301 60.638 426.774 59.6557C428.247 58.6244 428.984 57.2983 428.984 55.6776C428.984 54.6462 428.64 53.713 427.953 52.8781C427.314 51.9941 426.062 51.3556 424.196 50.9627L415.355 49.1209C411.77 48.3842 409.191 47.1564 407.62 45.4374C406.097 43.7185 405.336 41.582 405.336 39.0281C405.336 37.0145 405.901 35.1727 407.03 33.5029C408.209 31.833 409.854 30.507 411.966 29.5247C414.127 28.4933 416.657 27.9776 419.554 27.9776C423.189 27.9776 426.258 28.6898 428.763 30.1141C431.268 31.5384 433.134 33.552 434.362 36.155L429.426 39.3965C428.591 37.2355 427.241 35.6639 425.374 34.6816C423.508 33.6502 421.568 33.1345 419.554 33.1345C417.786 33.1345 416.264 33.3801 414.987 33.8712C413.759 34.3624 412.801 35.05 412.114 35.934C411.475 36.7689 411.156 37.7266 411.156 38.8071C411.156 39.8876 411.524 40.8944 412.261 41.8276C412.998 42.7116 414.373 43.3501 416.387 43.743L425.595 45.6584C429.033 46.346 431.44 47.4756 432.815 49.0473C434.19 50.6189 434.878 52.5343 434.878 54.7935C434.878 57.1018 434.264 59.14 433.036 60.9081C431.808 62.6271 430.089 63.9532 427.879 64.8863C425.669 65.8195 423.115 66.286 420.217 66.286Z" fill="#465387"/>
<path d="M380.98 27.9776C384.467 27.9776 387.537 28.7389 390.189 30.2614C392.89 31.7839 395.002 33.994 396.524 36.8917C398.047 39.7403 398.808 43.1537 398.808 47.1318C398.808 51.11 398.047 54.548 396.524 57.4456C395.002 60.2942 392.89 62.4798 390.189 64.0023C387.537 65.5248 384.467 66.286 380.98 66.286C377.542 66.286 374.472 65.5248 371.771 64.0023C369.07 62.4798 366.958 60.2942 365.436 57.4456C363.913 54.548 363.152 51.11 363.152 47.1318C363.152 43.1537 363.913 39.7403 365.436 36.8917C366.958 33.994 369.07 31.7839 371.771 30.2614C374.472 28.7389 377.542 27.9776 380.98 27.9776ZM380.98 33.0609C378.475 33.0609 376.339 33.6257 374.571 34.7553C372.803 35.8849 371.427 37.5056 370.445 39.6175C369.512 41.6803 369.045 44.185 369.045 47.1318C369.045 50.0295 369.512 52.5343 370.445 54.6462C371.427 56.7581 372.803 58.3788 374.571 59.5084C376.339 60.638 378.475 61.2028 380.98 61.2028C383.485 61.2028 385.621 60.638 387.389 59.5084C389.157 58.3788 390.508 56.7581 391.441 54.6462C392.423 52.5343 392.915 50.0295 392.915 47.1318C392.915 44.185 392.423 41.6803 391.441 39.6175C390.508 37.5056 389.157 35.8849 387.389 34.7553C385.621 33.6257 383.485 33.0609 380.98 33.0609Z" fill="#465387"/>
<path d="M354.417 16.9271V65.5493H348.524V16.9271H354.417ZM322.15 16.9271V65.5493H316.256V16.9271H322.15ZM351.25 38.1441V43.6694H319.35V38.1441H351.25Z" fill="#465387"/>
<path d="M270.939 65.5493V28.7143H280L280.59 39.7648L279.337 38.5861C279.927 36.1796 280.86 34.1905 282.137 32.6188C283.414 31.0472 284.961 29.8931 286.778 29.1564C288.644 28.3705 290.682 27.9776 292.893 27.9776C295.446 27.9776 297.706 28.4688 299.67 29.451C301.684 30.4333 303.255 31.9313 304.385 33.9449C305.564 35.9094 306.153 38.3897 306.153 41.3856V65.5493H296.06V44.2587C296.06 41.1155 295.446 38.9545 294.219 37.7758C292.991 36.5479 291.395 35.934 289.43 35.934C288.055 35.934 286.704 36.2778 285.378 36.9654C284.101 37.6039 283.045 38.6598 282.21 40.1332C281.425 41.6066 281.032 43.5711 281.032 46.0268V65.5493H270.939Z" fill="#465387"/>
<path d="M252.579 42.0486C252.579 39.9367 251.965 38.2914 250.737 37.1127C249.558 35.934 247.987 35.3446 246.022 35.3446C244.205 35.3446 242.609 35.8112 241.234 36.7444C239.859 37.6775 238.852 39.2246 238.213 41.3856L229.594 38.7335C230.429 35.492 232.246 32.889 235.045 30.9244C237.894 28.9599 241.7 27.9776 246.464 27.9776C249.706 27.9776 252.53 28.4933 254.936 29.5247C257.343 30.507 259.209 32.0049 260.535 34.0186C261.91 36.0322 262.598 38.5616 262.598 41.6066V56.5616C262.598 58.4279 263.482 59.3611 265.25 59.3611C266.085 59.3611 266.871 59.2383 267.608 58.9927L267.018 65.2547C265.741 65.8931 264.145 66.2124 262.23 66.2124C260.511 66.2124 258.964 65.9177 257.588 65.3283C256.213 64.739 255.133 63.8549 254.347 62.6762C253.561 61.4484 253.168 59.9259 253.168 58.1087V57.814L254.936 57.5193C254.642 59.3856 253.831 60.9818 252.505 62.3079C251.179 63.5848 249.558 64.5671 247.643 65.2547C245.777 65.9422 243.837 66.286 241.823 66.286C239.318 66.286 237.157 65.9177 235.34 65.181C233.523 64.3952 232.123 63.2656 231.141 61.7922C230.159 60.3188 229.668 58.5016 229.668 56.3406C229.668 53.5902 230.552 51.3556 232.32 49.6366C234.088 47.8685 236.617 46.6653 239.908 46.0268L253.758 43.2273L253.684 49.4893L244.844 51.2574C243.174 51.6012 241.897 52.0677 241.013 52.6571C240.178 53.1973 239.76 54.1059 239.76 55.3829C239.76 56.6107 240.202 57.5439 241.086 58.1823C242.02 58.8208 243.125 59.1401 244.402 59.1401C245.433 59.1401 246.44 59.0173 247.422 58.7717C248.404 58.5261 249.288 58.1332 250.074 57.593C250.86 57.0527 251.474 56.316 251.916 55.3829C252.358 54.4497 252.579 53.3201 252.579 51.9941V42.0486Z" fill="#465387"/>
<path d="M218.089 28.7143H228.845L217.058 65.5493H205.418L197.388 40.5015L189.653 65.5493H178.013L166.226 28.7143H176.981L184.348 56.9299L192.526 28.7143H202.545L210.796 56.9299L218.089 28.7143Z" fill="#465387"/>
<path d="M169.856 65.5493H159.321L155.269 53.6885H136.631L132.579 65.5493H122.192L139.946 16.9271H152.102L169.856 65.5493ZM138.915 46.1741H152.986L145.913 24.9572L138.915 46.1741Z" fill="#465387"/>
<defs>
<linearGradient id="paint0_linear_4988_21" x1="54.0958" y1="0" x2="54.0958" y2="94.19" gradientUnits="userSpaceOnUse">
<stop stop-color="#4A6DCB"/>
<stop offset="1" stop-color="#643493"/>
</linearGradient>
<radialGradient id="paint1_radial_4988_21" cx="0" cy="0" r="1" gradientUnits="userSpaceOnUse" gradientTransform="translate(85.506 1.73776e-06) rotate(120.011) scale(54.2786 53.4889)">
<stop stop-color="#B5EAFB"/>
<stop offset="1" stop-color="#2CB1CB" stop-opacity="0"/>
</radialGradient>
<linearGradient id="paint2_linear_4988_21" x1="101.329" y1="79.5636" x2="67.3446" y2="56.2573" gradientUnits="userSpaceOnUse">
<stop stop-color="#B5EAFB"/>
<stop offset="1" stop-color="#2CB1CB" stop-opacity="0"/>
</linearGradient>
</defs>
</svg>
