<svg width="109" height="95" viewBox="0 0 109 95" fill="none" xmlns="http://www.w3.org/2000/svg">
<path d="M104.07 36.693C106.328 40.4789 107.457 42.3718 107.899 44.3883C108.289 46.1722 108.289 48.0178 107.899 49.8017C107.457 51.8182 106.328 53.7112 104.07 57.497L88.2159 84.0785C86.0178 87.7639 84.9187 89.6066 83.3932 90.9459C82.0434 92.1311 80.4578 93.0255 78.7378 93.5722C76.7939 94.19 74.6265 94.19 70.2917 94.19H37.9C33.5651 94.19 31.3977 94.19 29.4539 93.5722C27.7338 93.0255 26.1482 92.1311 24.7984 90.9459C23.2729 89.6066 22.1738 87.7639 19.9757 84.0785L4.12156 57.4971C1.86351 53.7112 0.734488 51.8182 0.292957 49.8017C-0.0976525 48.0178 -0.0976525 46.1722 0.292957 44.3883C0.734488 42.3718 1.86351 40.4788 4.12156 36.693L19.9757 10.1115C22.1738 6.42612 23.2729 4.58342 24.7984 3.24407C26.1483 2.05893 27.7338 1.16447 29.4539 0.617799C31.3977 -2.98023e-07 33.5651 -1.86701e-07 37.9 2.05539e-10L70.2917 1.39685e-06C74.6265 1.58375e-06 76.7939 1.66893e-06 78.7378 0.617801C80.4578 1.16447 82.0434 2.05893 83.3933 3.24408C84.9188 4.58342 86.0178 6.42612 88.2159 10.1115L104.07 36.693Z" fill="url(#paint0_linear_5037_14)"/>
<path d="M4.12156 36.693C1.86351 40.4788 0.734488 42.3718 0.292957 44.3883C-0.0976525 46.1722 -0.0976525 48.0178 0.292957 49.8017C0.734488 51.8182 1.86351 53.7112 4.12156 57.4971L19.9757 84.0785C22.1738 87.7639 23.2729 89.6066 24.7984 90.9459C26.1482 92.1311 27.7338 93.0255 29.4539 93.5722C31.3977 94.19 33.5651 94.19 37.9 94.19H70.2917C74.6265 94.19 76.7939 94.19 78.7378 93.5722C80.4578 93.0255 82.0434 92.1311 83.3932 90.9459C84.9187 89.6066 86.0178 87.7639 88.2159 84.0785L104.07 57.497C106.328 53.7112 107.457 51.8182 107.899 49.8017C108.289 48.0178 108.289 46.1722 107.899 44.3883C107.457 42.3718 106.328 40.4789 104.07 36.693L88.2159 10.1115C86.0178 6.42612 84.9188 4.58342 83.3933 3.24408C82.0434 2.05893 80.4578 1.16447 78.7378 0.617801C76.7939 1.66893e-06 74.6265 1.58375e-06 70.2917 1.39685e-06L37.9 2.05539e-10C33.5651 -1.86701e-07 31.3977 -2.98023e-07 29.4539 0.617799C27.7338 1.16447 26.1483 2.05893 24.7984 3.24407C23.2729 4.58342 22.1738 6.42612 19.9757 10.1115L4.12156 36.693Z" fill="url(#paint1_radial_5037_14)"/>
<path d="M104.07 36.693C106.328 40.4789 107.457 42.3718 107.899 44.3883C108.289 46.1722 108.289 48.0178 107.899 49.8017C107.457 51.8182 106.328 53.7112 104.07 57.497L88.2159 84.0785C86.0178 87.7639 84.9187 89.6066 83.3932 90.9459C82.0434 92.1311 80.4578 93.0255 78.7378 93.5722C76.7939 94.19 74.6265 94.19 70.2917 94.19H37.9C33.5651 94.19 31.3977 94.19 29.4539 93.5722C27.7338 93.0255 26.1482 92.1311 24.7984 90.9459C23.2729 89.6066 22.1738 87.7639 19.9757 84.0785L4.12156 57.4971C1.86351 53.7112 0.734488 51.8182 0.292957 49.8017C-0.0976525 48.0178 -0.0976525 46.1722 0.292957 44.3883C0.734488 42.3718 1.86351 40.4788 4.12156 36.693L19.9757 10.1115C22.1738 6.42612 23.2729 4.58342 24.7984 3.24407C26.1483 2.05893 27.7338 1.16447 29.4539 0.617799C31.3977 -2.98023e-07 33.5651 -1.86701e-07 37.9 2.05539e-10L70.2917 1.39685e-06C74.6265 1.58375e-06 76.7939 1.66893e-06 78.7378 0.617801C80.4578 1.16447 82.0434 2.05893 83.3933 3.24408C84.9188 4.58342 86.0178 6.42612 88.2159 10.1115L104.07 36.693Z" fill="url(#paint2_linear_5037_14)"/>
<path fill-rule="evenodd" clip-rule="evenodd" d="M41.3382 34.228C44.5339 32.9615 46.7847 29.9249 46.7847 26.3802C46.7847 21.6977 42.857 17.9018 38.0119 17.9018C33.1669 17.9018 29.2392 21.6977 29.2392 26.3802C29.2392 30.144 31.7768 33.3349 35.2887 34.4422V59.2439C31.7768 60.3512 29.2392 63.5421 29.2392 67.3059C29.2392 71.9884 33.1669 75.7843 38.012 75.7843C42.857 75.7843 46.7847 71.9884 46.7847 67.3059C46.7847 63.7612 44.5339 60.7246 41.3382 59.4581V50.0577H63.5197V44.2111H41.3382V34.228ZM41.4495 26.3808C41.4495 28.2157 39.9104 29.7032 38.0118 29.7032C36.1131 29.7032 34.574 28.2157 34.574 26.3808C34.574 24.5459 36.1131 23.0584 38.0118 23.0584C39.9104 23.0584 41.4495 24.5459 41.4495 26.3808ZM38.0118 70.6289C39.9104 70.6289 41.4496 69.1414 41.4496 67.3065C41.4496 65.4715 39.9104 63.984 38.0118 63.984C36.1132 63.984 34.574 65.4715 34.574 67.3065C34.574 69.1414 36.1132 70.6289 38.0118 70.6289Z" fill="white"/>
<path fill-rule="evenodd" clip-rule="evenodd" d="M71.2842 75.7843C76.1292 75.7843 80.0569 71.9884 80.0569 67.3059C80.0569 63.7612 77.8061 60.7246 74.6104 59.4581V34.228C77.8061 32.9615 80.0569 29.9249 80.0569 26.3802C80.0569 21.6977 76.1292 17.9018 71.2842 17.9018C66.4391 17.9018 62.5114 21.6977 62.5114 26.3802C62.5114 30.144 65.049 33.3349 68.5609 34.4422V59.2439C65.049 60.3512 62.5114 63.5421 62.5114 67.3059C62.5114 71.9884 66.4391 75.7843 71.2842 75.7843ZM71.284 70.6289C73.1827 70.6289 74.7218 69.1414 74.7218 67.3065C74.7218 65.4715 73.1827 63.984 71.284 63.984C69.3854 63.984 67.8462 65.4715 67.8462 67.3065C67.8462 69.1414 69.3854 70.6289 71.284 70.6289ZM71.284 29.7032C73.1826 29.7032 74.7218 28.2157 74.7218 26.3808C74.7218 24.5459 73.1826 23.0584 71.284 23.0584C69.3854 23.0584 67.8462 24.5459 67.8462 26.3808C67.8462 28.2157 69.3854 29.7032 71.284 29.7032Z" fill="white"/>
<defs>
<linearGradient id="paint0_linear_5037_14" x1="54.0958" y1="0" x2="54.0958" y2="94.19" gradientUnits="userSpaceOnUse">
<stop stop-color="#4A6DCB"/>
<stop offset="1" stop-color="#643493"/>
</linearGradient>
<radialGradient id="paint1_radial_5037_14" cx="0" cy="0" r="1" gradientUnits="userSpaceOnUse" gradientTransform="translate(85.506 1.73776e-06) rotate(120.011) scale(54.2786 53.4889)">
<stop stop-color="#B5EAFB"/>
<stop offset="1" stop-color="#2CB1CB" stop-opacity="0"/>
</radialGradient>
<linearGradient id="paint2_linear_5037_14" x1="101.329" y1="79.5636" x2="67.3446" y2="56.2573" gradientUnits="userSpaceOnUse">
<stop stop-color="#B5EAFB"/>
<stop offset="1" stop-color="#2CB1CB" stop-opacity="0"/>
</linearGradient>
</defs>
</svg>
