<svg width="100" height="100" viewBox="0 0 100 100" fill="none" xmlns="http://www.w3.org/2000/svg">
<path d="M40.8259 10.1322C41.9289 9.84322 42.9816 9.57706 44.0292 9.29101C46.1262 8.71891 48.2667 8.48538 50.4322 8.50071C55.302 8.53593 59.8826 9.72123 64.0699 12.2301C71.2503 16.5323 75.6503 22.8447 77.3097 31.0886C77.548 32.2739 77.3363 33.4367 77.1437 34.5933C76.1931 40.297 73.6502 45.1742 69.5651 49.2396C69.4007 49.403 69.2308 49.5609 69.0622 49.72C69.0444 49.737 69.0191 49.7455 68.9484 49.7853C69.1137 49.2138 69.2713 48.6815 69.4217 48.1469C70.0634 45.8605 70.4145 43.5293 70.5046 41.1542C70.6625 36.9753 70.0151 32.9282 68.4598 29.0533C68.036 27.9972 67.4547 26.9723 66.7777 26.0591C65.1738 23.8936 63.5929 21.6894 61.7809 19.7059C57.2927 14.7922 51.6902 11.8289 45.1656 10.6599C43.7594 10.4078 42.3264 10.3103 40.8259 10.1322ZM63.354 36.8233C58.5944 27.9172 51.4279 22.3097 41.5249 20.4917C31.6259 18.6743 22.9754 21.3952 15.4181 28.0105C15.7709 27.3735 16.0996 26.7215 16.4809 26.1024C20.689 19.2682 26.6789 14.893 34.5202 13.3381C42.4074 11.7745 49.7455 13.3479 56.3865 17.9502C57.0336 18.399 57.5446 19.0829 58.0316 19.7245C60.7855 23.3548 62.5175 27.4335 63.1137 31.9643C63.3102 33.4582 63.3073 34.9788 63.3919 36.487C63.3971 36.5839 63.3705 36.6824 63.354 36.8233ZM49.4728 31.3208C40.0559 28.4473 31.0737 29.4281 22.8836 35.1321C14.7003 40.8316 10.5963 48.9167 9.97966 58.9232C9.90088 58.6828 9.83603 58.4894 9.77378 58.2947C9.70732 58.0859 9.63761 57.8772 9.57893 57.6658C8.82674 54.9586 8.4072 52.1973 8.51743 49.3896C8.79626 42.2801 11.3219 36.0927 16.24 30.9467C19.8288 27.1922 24.1539 24.6754 29.1709 23.3799C29.9785 23.1712 30.7984 22.9546 31.6239 22.8884C32.3573 22.8293 33.1137 22.9291 33.8487 23.0358C39.1053 23.801 43.7332 25.9491 47.702 29.5034C48.3416 30.0762 48.9051 30.734 49.4728 31.3202V31.3208ZM71.9779 15.8924C74.9931 17.3715 77.6148 19.3449 79.8833 21.7895C83.6183 25.8134 85.9858 30.5439 86.8638 35.9736C88.0725 43.452 86.549 50.3535 82.2012 56.5608C81.6344 57.3694 80.7532 57.9848 79.9394 58.5817C76.2475 61.2899 72.1121 62.8979 67.5753 63.4175C66.2052 63.5747 64.8182 63.5822 63.4393 63.6122C72.1728 58.8593 77.8489 51.7622 79.6279 41.8871C81.4056 32.0195 78.5913 23.3815 71.9779 15.8924ZM36.3601 36.9453C27.6529 41.6506 21.981 48.7298 20.2049 58.5958C18.4324 68.4386 21.2171 77.0687 27.7761 84.5184L27.7112 84.6136C26.5369 83.8824 25.3188 83.2121 24.1957 82.4087C18.5588 78.3756 14.8446 72.9792 13.3094 66.1929C11.4776 58.0951 12.969 50.5893 17.7113 43.7655C17.8708 43.5359 18.0822 43.3349 18.2969 43.1536C22.3097 39.7569 26.9214 37.7216 32.1258 37.0914C33.5251 36.9224 34.9433 36.9149 36.3533 36.8334L36.3601 36.9453ZM58.4417 90.0528C57.6701 90.2697 56.9027 90.5039 56.1252 90.7003C53.6394 91.3298 51.105 91.6135 48.5534 91.4583C39.1033 90.8826 31.7455 86.6003 26.5301 78.6535C24.507 75.5709 23.2389 72.1611 22.6709 68.5149C22.539 67.6688 22.6748 66.7608 22.7983 65.8971C23.4717 61.1846 25.2793 56.9496 28.2374 53.2329C29.0311 52.2364 29.9509 51.3411 30.8147 50.4011C30.873 50.3378 30.9476 50.2902 31.0306 50.2223C28.1496 59.7768 29.1316 68.8124 34.8064 77.0504C40.4816 85.2888 48.5226 89.4204 58.4417 90.0528ZM36.5897 63.4635C41.2947 72.2711 48.34 77.9559 58.1282 79.7413C67.9196 81.5274 76.5004 78.7116 83.95 72.1194C83.606 72.7456 83.2847 73.3856 82.9138 73.9949C78.9668 80.4814 73.3617 84.7865 66.0116 86.585C57.9434 88.5593 50.4293 87.1134 43.5682 82.3755C43.2449 82.1524 42.9508 81.8656 42.6986 81.5617C39.6023 77.8339 37.6586 73.5748 36.8853 68.7752C36.6146 67.0967 36.5167 65.4101 36.5631 63.713C36.5647 63.6491 36.576 63.5852 36.5897 63.4635ZM90.1472 41.117C90.4753 42.5613 90.854 43.9964 91.1198 45.4518C91.553 47.8188 91.5919 50.2148 91.3581 52.6047C90.9833 56.4352 89.8699 60.0456 87.969 63.394C84.8527 68.8835 80.3982 72.8696 74.6144 75.3459C72.6789 76.1747 70.6719 76.7895 68.5901 77.0674C67.7673 77.1773 66.8967 77.054 66.0625 76.9336C61.9874 76.3465 58.2501 74.87 54.8607 72.514C53.3355 71.4542 51.9264 70.2345 50.6572 68.8753C50.5908 68.8039 50.5327 68.7243 50.4705 68.6476C59.951 71.5414 68.9315 70.5645 77.1226 64.8631C85.3059 59.1682 89.4157 51.087 90.0282 41.1538L90.1472 41.117ZM38.8816 62.2684C40.6333 63.8699 42.5355 65.2516 44.5843 66.4343C44.7104 66.5073 44.8154 66.6384 44.8975 66.7637C47.4095 70.6157 50.6329 73.7157 54.58 76.053C54.6506 76.0947 54.7181 76.1427 54.7635 76.217C47.6105 73.7127 42.3212 69.0547 38.8816 62.2684ZM61.0686 37.6752C60.5021 37.1964 59.9639 36.6772 59.3632 36.2463C58.1188 35.3542 56.8398 34.5117 55.5795 33.6425C55.4142 33.5283 55.2375 33.4011 55.1305 33.238C52.6389 29.4219 49.4501 26.3402 45.5508 24.0035C45.4652 23.952 45.3822 23.8949 45.3257 23.8062C52.4177 26.3014 57.6656 30.9245 61.0686 37.6752ZM76.3545 44.7596C73.8308 51.9315 69.2373 57.2337 62.5055 60.6757C62.5694 60.5922 62.6271 60.5038 62.6968 60.4262C64.1525 58.8084 65.4137 57.0504 66.497 55.1605C66.5959 54.9883 66.7385 54.8181 66.9019 54.7104C70.7407 52.1728 73.8305 48.9193 76.1619 44.9374C76.1944 44.8823 76.2323 44.8304 76.2696 44.7786C76.2741 44.772 76.289 44.774 76.3545 44.7596ZM37.4806 39.2878C36.6775 40.3218 35.8459 41.3401 35.0749 42.4027C34.5305 43.1523 34.077 43.9684 33.5634 44.742C33.4117 44.9703 33.2236 45.2003 32.9999 45.35C29.2681 47.8485 26.2419 51.0201 23.9467 54.8954C23.8838 55.002 23.8122 55.1031 23.7029 55.2708C25.6849 48.8224 30.86 42.4735 37.4806 39.2878ZM27.804 35.2512C34.5795 31.9356 41.5473 31.478 48.6999 33.8013C46.6327 33.9145 44.5882 34.1921 42.5884 34.7263C41.9075 34.908 41.273 34.9057 40.5892 34.7776C36.3721 33.9892 32.1803 34.1291 28.0238 35.2123C27.9524 35.2309 27.8772 35.2384 27.804 35.2512ZM33.4506 51.0766C33.6094 52.3969 33.7427 53.744 33.9447 55.0806C34.075 55.9469 34.287 56.8031 34.5004 57.6541C34.5941 58.0289 34.6074 58.3782 34.5305 58.7546C33.9858 61.4184 33.7719 64.1126 34.0429 66.8182C34.2229 68.6127 34.5626 70.391 34.7941 71.9348C33.9943 70.6285 32.3709 66.3191 32.0898 61.786C31.8619 58.1153 32.3012 54.5379 33.4506 51.0766ZM65.1203 27.7411C68.394 34.6846 68.8524 41.7142 66.5803 48.919C66.3913 47.4561 66.2162 45.9867 66.0048 44.5228C65.9163 43.9113 65.7979 43.2948 65.607 42.709C65.3975 42.0665 65.4368 41.4556 65.5616 40.8107C66.1517 37.7526 66.2509 34.6755 65.8015 31.5909C65.6193 30.3413 65.3635 29.1022 65.1203 27.7411ZM51.271 66.1769C53.6293 66.0895 55.9342 65.67 58.2183 65.0865C58.5173 65.0102 58.8733 65.1211 59.1962 65.1837C63.519 66.022 67.8091 65.8677 72.0687 64.7646C72.1407 64.7457 72.2136 64.7313 72.2908 64.7522C65.4789 68.0573 58.4712 68.5168 51.271 66.1772V66.1769Z" fill="#265597"/>
</svg>
