<svg width="100" height="100" viewBox="0 0 100 100" fill="none" xmlns="http://www.w3.org/2000/svg">
<path d="M89.5462 37.5319C87.4282 26.9787 79.3721 20 70.2571 20H56.263C53.5776 20 51.5353 21.9149 50.8545 24.6383L37.6546 80L46.9966 79.9574C49.5685 79.9574 51.6487 78.0426 52.3673 75.4043L62.1254 34.6809H69.6141C72.7911 34.6809 75.7412 37.0638 76.5355 40.9787C77.481 45.617 74.304 50.5957 69.6141 50.5957H65.7184C63.0709 50.5957 60.9907 52.5532 60.3099 55.1915L57.8893 65.3192H69.9923C84.062 65.3192 92.0425 49.9149 89.5462 37.5319ZM30.355 49.4468H37.3899C39.9996 49.4468 42.0798 47.5745 42.7984 44.8085L45.1434 34.766H30.0146C21.3534 34.766 13.4108 40.766 10.6498 52.2553C7.35934 66.6383 17.0039 80 29.6742 80H34.3641L37.0495 68.8936C37.5033 67.0213 36.2174 65.3617 34.6289 65.3617H30.355C21.013 65.3617 20.9374 49.4468 30.355 49.4468Z" fill="#F26C32"/>
</svg>
