<svg width="100" height="100" viewBox="0 0 100 100" fill="none" xmlns="http://www.w3.org/2000/svg">
<path d="M61.1614 7C58.2881 7 55.3604 7.31089 52.413 7.93712C47.5188 9.09848 43.1937 11.5996 38.8631 14.144C24.587 21.5976 15.4895 37.2432 16.7466 54.1782L23.6999 52.0281C22.8524 40.0883 25.8852 29.4806 32.8781 20.8236C37.1273 44.8688 46.3072 66.7206 59.9713 86.6377C61.2188 86.7237 62.4256 86.809 63.6234 86.809C64.8326 86.809 66.0329 86.7218 67.2528 86.4593C62.4375 81.2921 58.5983 75.7293 54.7119 70.1684C60.6563 67.2799 66.6814 64.3062 72.061 60.2564C71.3341 58.321 70.8099 56.2072 69.8816 54.4801C64.2188 59.0523 58.3562 63.0155 52.0879 65.9899C49.1763 61.3387 46.6689 56.5512 44.2403 51.721V51.2477C50.9109 48.3592 57.3395 44.7834 63.3246 40.0889C62.2755 38.0178 61.1458 35.8601 59.9701 34.0114C54.3485 38.6625 48.5655 42.9774 42.4991 46.4245H41.8936C38.2152 38.1032 35.3036 29.3959 33.1584 20.3509C35.1423 17.9785 37.4082 15.6927 39.7083 13.8433L46.4256 11.8149C63.324 32.0257 74.3258 54.9598 80.3509 79.7791C81.9313 78.1023 83.3431 76.2886 83.7059 74.0525C82.5362 70.5557 81.6886 66.9793 80.1883 63.6608C79.4226 61.2024 77.9223 58.9236 77.4381 56.5079C81.8494 53.0608 86.0926 49.3123 90.2546 45.1701C90.1727 42.067 89.4465 39.2289 88.0753 36.6412H87.7525C83.6144 41.5955 79.1399 46.2186 74.3652 50.473C71.8571 46.1225 69.5499 41.679 66.8063 37.4152C71.4937 33.6234 76.0257 29.0512 80.1883 24.228C78.6963 22.1569 76.7525 19.9565 74.526 19.1398C70.9689 23.368 66.9677 27.8045 62.8804 31.3809C57.9516 24.7014 52.6115 18.0651 46.7071 11.9875C49.1112 11.4072 51.85 11.1167 54.584 11.1167C57.3186 11.1167 60.0496 11.4072 62.4363 11.9875C76.3485 14.6607 89.893 29.2239 92.1177 44.0954C95.0693 60.7297 89.4889 76.0313 76.7125 86.1573C72.1853 87.908 67.3586 88.7954 62.5493 88.7954C52.1937 88.7954 41.9247 84.68 34.9414 76.202C39.789 75.3419 44.4029 73.7869 49.0556 72.1968C48.3634 70.9494 47.5164 69.7811 46.9916 68.4483C34.1405 73.95 20.1333 77.1155 5.36402 77.1155C3.58757 77.1155 1.79797 77.0697 0 76.976C5.02929 77.6653 10.1644 77.9654 15.3311 77.9654C18.6001 77.9654 21.8805 77.8456 25.1566 77.629C28.5923 82.1948 32.957 85.8566 37.4082 88.4871C42.4847 91.4984 48.7932 93 55.1446 93C62.7005 93 70.3168 90.8741 75.9862 86.6383C82.3748 83.7505 88.5206 78.6617 92.8446 72.1974C101.015 61.0743 102.265 42.72 96.199 30.1349L93.5768 25.3473C85.9318 13.2891 74.0944 7 61.1614 7Z" fill="#274A5B"/>
<path d="M37.9802 48.7531C26.7363 54.3503 14.6066 57.7547 1.58691 58.8371C6.73977 58.9223 11.8936 58.7645 17.0334 58.3644C17.8804 63.8323 19.6222 68.9644 22.413 73.5729C25.3245 72.9709 28.236 72.4555 30.9796 71.5515C28.5194 68.0611 26.7776 64.1769 25.4865 60.0845C25.2851 59.0957 24.5923 57.9274 25.1643 56.9813C30.1739 55.992 35.0687 54.7809 39.716 52.9322L37.9802 48.7531Z" fill="#274A5B"/>
</svg>
