<svg width="100" height="100" viewBox="0 0 100 100" fill="none" xmlns="http://www.w3.org/2000/svg">
<path d="M48.7986 15.1238C49.8044 12.3785 50.6426 9.68925 51.7602 7C53.5484 10.8098 54.666 14.9557 56.4542 18.7094C60.8129 20.4463 65.5627 21.1746 70.0331 22.7993C60.5335 27.5616 50.8103 32.1557 41.143 36.6938C43.5458 29.4104 46.2281 22.2951 48.7986 15.1238ZM32.4256 23.3036C36.7843 20.9505 41.0871 18.3733 45.4457 16.0202C41.9253 26.7772 37.9578 37.4221 34.3814 48.1792C30.4698 40.7837 27.0611 33.1081 23.373 25.6567C22.1995 23.1355 20.8584 20.7264 19.8525 18.1492C24.2112 19.6059 28.1787 22.015 32.4256 23.3036ZM51.7602 34.6208C61.4834 29.8586 71.2066 25.0964 80.9857 20.3902C79.4211 24.4801 77.577 28.402 75.8447 32.4358C78.1358 36.6938 80.8739 40.7277 82.9974 45.0977C72.4919 41.7922 62.0981 38.2625 51.7602 34.6208ZM22.423 29.4664C25.3288 34.957 27.8434 40.7277 30.5257 46.2743C32.3697 50.1401 34.3255 53.9498 36.002 57.8717C26.3346 54.5101 16.6114 51.0365 7 47.3948C10.7999 45.658 14.8233 44.4814 18.6231 42.8567C19.9084 38.3746 21.1936 33.9485 22.423 29.4664ZM60.9246 40.1674C69.0273 42.8007 77.0741 45.77 85.1767 48.5153C87.7472 49.4678 90.4854 50.1961 93 51.4287C88.7531 53.1094 84.5062 54.7342 80.3151 56.359C78.7505 61.1772 77.6888 66.2195 76.0682 71.0378C72.7713 64.9309 69.9214 58.6 66.848 52.4371C64.8363 48.4033 62.7128 44.3134 60.9246 40.1674ZM60.5893 61.0651C61.6511 57.9837 62.5452 54.9023 63.8304 51.8769C65.2833 54.4541 66.5127 57.1433 67.8538 59.7765C71.2066 66.8919 74.8389 73.7831 78.0799 80.8984C74.0565 79.2736 70.089 77.4248 66.0098 75.744C61.7628 78.041 57.7394 80.7303 53.3808 82.9153C55.616 75.5199 58.2424 68.3485 60.5893 61.0651ZM16.1644 54.23C25.3288 57.0873 34.2697 60.5049 43.3223 63.5303C44.6634 63.9785 46.0604 64.4827 47.2898 65.1551C37.5107 69.6932 27.8434 74.6235 17.9526 78.9935C19.5731 75.0156 21.5289 71.1498 23.0936 67.116C21.1936 62.6339 18.2878 58.6 16.1644 54.23ZM35.5549 73.1668C42.987 69.5811 50.3073 65.7713 57.7953 62.3537C55.7836 69.0209 53.2131 75.6319 51.0338 82.299C49.7485 85.8287 48.6868 89.5264 47.2339 93C45.3899 89.1342 44.1046 84.9883 42.3723 81.0665C37.7342 79.3296 32.9285 78.3772 28.2346 77.0886C30.4139 75.4078 33.152 74.5114 35.5549 73.1668Z" fill="#007D3F"/>
</svg>
