<svg width="100" height="100" viewBox="0 0 100 100" fill="none" xmlns="http://www.w3.org/2000/svg">
<path d="M79.3548 48.7852L62.3219 29.3465C62.251 29.2644 62.1549 29.22 62.0558 29.22C62.048 29.22 62.0409 29.22 62.0341 29.22C61.9265 29.2269 61.8265 29.2866 61.7595 29.3833L54.5004 39.8956C54.3804 40.0673 54.3943 40.3112 54.5297 40.466L62.3517 49.3912C62.6317 49.7131 62.7862 50.1387 62.7862 50.5958C62.7842 51.045 62.6292 51.4661 62.352 51.7806L60.0926 54.3606C59.9655 54.5058 59.9459 54.7335 60.0443 54.9028C60.6087 55.864 61.5292 57.4507 61.6168 57.6247C61.9001 58.2722 61.9939 59.9229 61.1597 60.6473L43.3655 76.2453C43.2733 76.3259 43.2192 76.4517 43.2192 76.5848C43.2192 78.3165 43.2169 92.2145 43.2182 92.3557C43.2182 92.6556 43.2182 92.8343 43.4264 92.9554C43.4789 92.9859 43.536 92.9998 43.5959 92.9998C43.7515 92.9998 43.8138 92.9315 43.9638 92.7607L44.2603 92.4179C44.5211 92.1243 79.3538 52.39 79.3538 52.39C80.2167 51.3928 80.2141 49.7773 79.3548 48.7852Z" fill="#5E8CDA"/>
<path d="M56.7213 7.19153L56.7155 7.18268C56.7111 7.17797 56.7075 7.17157 56.705 7.16762L56.6952 7.1533C56.6276 7.06064 56.5282 7.00508 56.4223 7C56.4158 7 56.4114 7 56.4051 7C56.3053 7 56.2086 7.04332 56.1379 7.12581L20.654 47.6252C20.2317 48.1004 20 48.742 20 49.4272C20 50.1114 20.2333 50.7493 20.6566 51.2237L37.6837 70.6578C37.7544 70.7403 37.8507 70.784 37.9499 70.784C37.9573 70.784 37.9648 70.784 37.9722 70.784C38.0795 70.777 38.1795 70.7181 38.2451 70.6196L45.5101 60.1073C45.6287 59.9367 45.6149 59.6943 45.4804 59.5372L37.6504 50.612C37.3728 50.2978 37.2226 49.8771 37.2213 49.4272C37.22 48.9729 37.3728 48.5492 37.6504 48.2335L39.9162 45.644C40.0448 45.4958 40.0636 45.2643 39.9575 45.094L38.4126 42.5582C37.7887 41.5478 37.9824 40.1129 38.8442 39.3584L56.6444 23.7732C56.7375 23.6918 56.7926 23.5668 56.7926 23.4316L56.7961 7.45087C56.7964 7.35745 56.7705 7.2663 56.7213 7.19153Z" fill="#093071"/>
<path d="M59.8558 57.366L40.1454 42.7552L48.8515 57.038C49.0378 57.366 49.0195 57.9248 48.8126 58.2397L33.2183 80.8254C32.9433 81.2348 32.7128 81.6783 32.9082 82.136C33.0123 82.3752 33.2676 82.5675 33.5145 82.5872C33.8223 82.5853 34.0586 82.4328 34.3825 82.1507L59.4433 60.195C60.21 59.5266 60.1893 57.9088 59.8558 57.366Z" fill="#F5CD21"/>
<path d="M67.0922 17.8719C66.9729 17.5952 66.7122 17.4099 66.4399 17.4099C66.1958 17.4099 65.9681 17.5299 65.6177 17.8352L40.5463 39.8078C39.7518 40.5013 39.572 41.8239 40.1459 42.7548L59.8563 57.3656C59.5702 56.8874 51.2317 43.0929 51.1474 42.9532C50.9585 42.6482 50.9746 42.0542 51.1809 41.7559L66.7749 19.1627L66.7853 19.1469C67.0388 18.7764 67.2921 18.3414 67.0922 17.8719Z" fill="#FDDD75"/>
</svg>
