<svg width="100" height="100" viewBox="0 0 100 100" fill="none" xmlns="http://www.w3.org/2000/svg">
<g clip-path="url(#clip0_10671_3207)">
<path fill-rule="evenodd" clip-rule="evenodd" d="M44.7944 30.8514C42.0296 31.2304 32.2413 35.9309 28.776 37.4654C23.6375 39.7434 18.2203 41.8071 13.1567 44.1527C14.6067 46.0828 15.0271 44.9529 17.0196 44.0612C19.4683 42.9643 23.4175 47.4158 26.3566 49.8586C27.5231 50.8254 28.1536 51.3949 29.2126 52.4441C30.3808 53.6032 30.9901 53.9713 32.08 54.9436C33.5039 56.2144 36.7738 59.3658 37.9387 59.8126L40.7539 59.6039C45.3678 60.2594 48.7289 56.469 50.5341 52.3324C51.8977 49.2103 51.7544 49.3532 52.481 46.2292L55.1545 49.1298C56.132 50.5397 56.4367 51.1752 57.8313 51.9497C58.5612 52.3581 57.4224 52.7737 60.3908 54.1562C61.3113 54.5847 59.9916 54.1746 61.4367 54.5884L63.0122 55.0095C64.9412 55.3337 82.3819 51.6165 82.5774 51.3088C80.826 50.0289 78.2095 49.4337 76.1127 48.0842L78.128 43.8524C78.4294 42.6219 79.1609 37.4783 78.3659 34.8909C75.3127 33.556 77.4649 32.5543 72.7435 27.7824C65.4821 20.4432 55.7215 26.8064 53.7094 32.6404C53.0284 34.618 53.3233 36.3045 52.116 37.7804C50.2376 37.4929 44.9785 31.3787 44.7944 30.8514Z" fill="#926C44"/>
<path fill-rule="evenodd" clip-rule="evenodd" d="M40.7538 59.6039C40.6805 59.6899 40.5403 59.657 40.4915 59.8053L38.4126 60.6421C39.0773 60.8747 38.846 60.8051 39.3575 61.0614L41.5 62.5666C42.6274 63.4529 43.9242 63.973 45.2341 64.7768C45.9493 65.2145 46.3566 65.5551 47.111 66.022C48.4746 66.8662 47.9158 65.9543 48.8672 67.454C54.6509 68.9537 47.4938 70.4076 60.6578 67.3587C62.5363 66.9229 65.5406 66.4963 67.2806 65.9854C68.9163 65.5075 71.9369 64.4106 73.4357 64.8372L73.496 63.8961L82.1227 61.9294C83.892 60.7703 96.7204 57.846 100 56.8938C94.8549 55.2824 88.7356 52.8525 83.5873 51.8325C83.3772 51.3967 82.7874 52.3947 83.5189 51.2246L82.5772 51.3088C82.3817 51.6165 64.941 55.3337 63.012 55.0095L61.4366 54.5884C59.9915 54.1746 61.3111 54.5847 60.3906 54.1562C57.4222 52.7737 58.561 52.3581 57.8312 51.9497C56.4365 51.1751 56.1319 50.5397 55.1544 49.1298L52.4808 46.2292C51.7542 49.3532 51.8976 49.2103 50.5339 52.3324C48.7288 56.469 45.3677 60.2594 40.7538 59.6039Z" fill="#D39E66"/>
<path fill-rule="evenodd" clip-rule="evenodd" d="M62.6829 25.6416C47.3488 29.5712 52.7871 54.5571 67.52 51.3013C73.2076 50.0433 77.9812 43.7827 76.6631 35.7989C75.6041 29.3991 69.7422 23.8343 62.6829 25.6416Z" fill="#EBECEC"/>
<path fill-rule="evenodd" clip-rule="evenodd" d="M31.8051 22.7194C31.1828 24.0086 31.8687 22.7945 30.9416 23.6185C29.8582 24.578 30.8814 24.0488 29.5682 24.8344C28.9931 25.1787 28.4424 25.3068 27.68 25.4753L10.7166 32.7522L9.66579 34.5577C9.17866 36.0757 9.62832 36.1581 10.1008 37.3704C11.1239 39.9907 10.0731 39.8461 11.0816 41.0235C11.8962 41.7413 11.3227 40.7616 11.9516 42.3071C12.0428 42.5323 12.3393 43.891 12.4094 44.1968L13.1556 44.1529C18.2191 41.8072 23.6363 39.7435 28.7748 37.4656C32.2401 35.9311 42.0284 31.2306 44.7932 30.8515L47.5466 29.0185C47.7372 28.9288 48.542 29.176 48.5485 27.9785C48.5583 26.14 48.1738 26.8303 48.5534 25.8653C48.5795 25.8012 48.6479 25.6932 48.6789 25.6291L49.1855 24.8564C47.3543 24.6824 47.6215 24.0397 46.8183 21.8295C46.2986 20.3976 45.8815 19.7091 45.8163 18.1929C44.5912 18.2863 34.4151 23.0051 32.7191 23.5837L31.8051 22.7194Z" fill="#D5E1ED"/>
<path fill-rule="evenodd" clip-rule="evenodd" d="M19.1796 65.489L19.784 70.294C21.3823 71.5648 22.1252 71.671 23.5964 73.156L25.1848 75.5731C25.2239 75.672 25.3494 75.9906 25.3934 76.0895C25.7404 76.8696 26.1363 77.8089 27.0128 77.375L28.1386 76.1811C28.1695 76.0309 28.2592 76.0034 28.3276 75.9247C29.833 76.3257 28.5752 75.9741 29.6114 76.5839L30.9604 77.6038C31.9493 78.6055 30.9131 78.0836 31.9656 78.2905C35.0204 78.8893 33.7789 75.9119 35.8985 78.3564C36.0647 78.0159 36.2472 77.5269 36.4916 77.3145C36.5111 77.298 36.5958 77.2596 36.6137 77.2468C36.749 77.1644 37.153 77.2816 37.5668 76.6352C38.4841 75.2014 38.0898 70.8927 38.0849 68.4665C38.1468 68.5709 38.2022 68.7119 38.2332 68.8034L38.559 69.882C38.8979 71.7644 38.344 74.0881 38.9289 75.8313C39.0445 76.1719 38.5851 75.5109 39.1407 76.2763C39.8298 77.223 39.341 76.1756 40.1296 75.1282C40.1491 76.203 40.1703 75.8423 40.3267 76.6242C41.125 80.6252 40.7161 76.1518 43.199 79.2244C43.8963 80.085 43.6633 78.3015 43.7888 80.9475C45.3919 79.0047 44.6164 80.1583 45.1948 81.3046L45.5353 81.896C45.9524 82.6486 45.4375 81.0079 46.0192 82.8848C46.5568 84.6189 45.8172 86.4757 47.1645 88.0267C47.4366 83.718 47.07 76.4997 46.7816 72.2954C46.6562 70.4569 46.9804 70.3855 45.7846 69.1495L43.5721 66.7232C43.1583 66.2325 43.4988 66.6005 43.0312 66.0952C42.1351 65.1283 40.9377 64.4288 41.0354 63.5297L41.4997 62.5666L39.3573 61.0614C38.8458 60.805 39.0771 60.8746 38.4124 60.642L40.4913 59.8052C40.5401 59.6569 40.6803 59.6898 40.7536 59.6038L37.9383 59.8125C37.1481 60.9845 38.023 60.252 36.7359 60.5157L20.9847 59.1185C18.6827 59.3273 19.1861 59.6496 18.9727 60.0579L19.1796 65.489Z" fill="#B88147"/>
<path fill-rule="evenodd" clip-rule="evenodd" d="M67.9955 90.3762C65.1607 90.3305 67.2721 89.0889 62.2818 90.3652C54.5741 92.3374 47.9627 95.3002 47.1644 88.0269C45.8171 86.4759 46.5567 84.6191 46.0191 82.885C45.4374 81.0081 45.9523 82.6488 45.5352 81.8962L45.1947 81.3048C44.6163 80.1585 45.3918 79.0049 43.7887 80.9477C43.6632 78.3017 43.8962 80.0852 43.1989 79.2246C40.716 76.152 41.1249 80.6254 40.3266 76.6244C40.1702 75.8425 40.149 76.2032 40.1295 75.1284C39.3409 76.1758 39.8297 77.2232 39.1406 76.2765C38.585 75.5111 39.0444 76.1721 38.9287 75.8315C38.3439 74.0883 38.8978 71.7646 38.5589 69.8822L38.2331 68.8036C38.2021 68.7121 38.1467 68.5711 38.0848 68.4667C38.0897 70.8929 38.484 75.2016 37.5667 76.6354C37.1529 77.2818 36.7489 77.1646 36.6136 77.247C36.5957 77.2598 36.511 77.2983 36.4915 77.3147C36.2471 77.5271 36.0646 78.0161 35.8984 78.3567C33.7788 75.9121 35.0203 78.8895 31.9655 78.2907C30.913 78.0838 31.9492 78.6057 30.9603 77.6041L29.6113 76.5841C28.5751 75.9743 29.8329 76.3259 28.3275 75.9249C28.2591 76.0037 28.1694 76.0311 28.1385 76.1813L27.0127 77.3752C26.1362 77.8091 25.7403 76.8698 25.3933 76.0897C25.3493 75.9908 25.2238 75.6722 25.1847 75.5733L23.5963 73.1562C22.1251 71.6712 21.3822 71.565 19.7839 70.2942L19.1795 65.4893C19.1583 74.3556 18.8569 70.9937 26.4506 81.8944L38.7593 99.325C39.7759 100.574 40.6068 99.8212 42.3827 99.2078L67.9955 90.3762Z" fill="#D39E66"/>
<path fill-rule="evenodd" clip-rule="evenodd" d="M18.9722 60.0578C19.1856 59.6495 18.6822 59.3272 20.9842 59.1184L36.7354 60.5156C38.0225 60.2519 37.1476 60.9844 37.9378 59.8124C36.7729 59.3656 33.5031 56.2143 32.0792 54.9434C30.9892 53.9711 30.3799 53.603 29.2117 52.4439C28.1528 51.3947 27.5222 50.8252 26.3557 49.8584C23.4166 47.4156 19.4674 42.9641 17.0187 44.061C15.0262 44.9528 14.6059 46.0826 13.1559 44.1526L12.4097 44.1965C12.3396 43.8907 12.0431 42.532 11.9519 42.3068C11.323 40.7613 11.8965 41.7409 11.0819 41.0231C7.73061 41.7208 2.66539 39.0858 0 40.2687L15.3504 58.9683C17.1507 59.6824 17.4993 58.505 18.9722 60.0578Z" fill="#D39E66"/>
<path fill-rule="evenodd" clip-rule="evenodd" d="M73.435 64.8374C73.4986 67.8808 74.2561 80.0999 72.8697 81.6582C71.4669 85.2875 69.4402 85.6776 65.4014 86.7762C56.5906 89.1732 48.7297 93.7822 48.8176 85.5347C48.8616 81.4165 48.4853 76.0879 48.803 72.1986L48.8665 67.4541C47.9151 65.9544 48.4739 66.8663 47.1102 66.0222C46.3559 65.5552 45.9486 65.2146 45.2334 64.777C43.9235 63.9731 42.6267 63.4531 41.4992 62.5668L41.0349 63.53C40.9372 64.4291 42.1346 65.1286 43.0307 66.0954C43.4983 66.6008 43.1578 66.2327 43.5716 66.7235L45.7841 69.1497C46.9799 70.3858 46.6557 70.4572 46.7811 72.2956C47.0695 76.4999 47.4361 83.7183 47.164 88.0269C47.9623 95.3002 54.5737 92.3374 62.2814 90.3653C67.2717 89.089 65.1603 90.3305 67.9951 90.3763L79.7938 86.6005C80.7827 79.8509 80.7013 67.4742 82.122 61.9296L73.4953 63.8962L73.435 64.8374Z" fill="#815D37"/>
<path fill-rule="evenodd" clip-rule="evenodd" d="M72.8696 81.658C73.1678 80.6216 73.7233 73.3538 72.6073 71.7314C71.6575 72.3778 72.3483 72.1892 71.739 73.4307C70.4177 76.1243 69.0084 74.1907 68.3095 73.7768C65.6392 72.1966 66.5011 76.6242 64.7154 75.7068C64.7154 75.7068 64.1794 75.7453 64.0002 74.8224C63.966 74.6521 63.8911 74.6045 63.8259 74.5074L62.6072 74.9011C61.4815 76.9538 59.4775 78.1276 57.2146 76.9282L55.7564 76.9758C55.0086 78.1203 54.7153 78.4993 53.2214 78.9736C49.5768 80.129 50.4582 78.7136 50.4126 78.1093C51.6834 77.1699 51.7371 78.7374 53.5733 77.2871C53.4983 77.212 53.381 77.1406 53.3158 77.1058L52.4556 76.7268C50.0965 75.9632 51.4993 76.9099 50.455 75.6318L50.9128 73.8482C49.9075 73.3062 49.9027 73.0499 48.8029 72.1984C48.4852 76.0877 48.8616 81.4163 48.8176 85.5345C48.7296 93.782 56.5906 89.173 65.4013 86.7761C69.4402 85.6774 71.4669 85.2873 72.8696 81.658Z" fill="#D0D0D0"/>
<path fill-rule="evenodd" clip-rule="evenodd" d="M48.6836 50.8294L45.2264 49.1613C44.1022 49.8937 38.8138 56.8209 37.0983 52.2302C36.3684 50.2764 37.8461 48.3299 39.1054 47.8172C41.4157 46.8778 42.9846 48.5533 45.3942 48.6009C46.1795 46.8851 47.2108 45.6436 48.8188 45.3214C49.5242 46.063 49.2717 45.8139 49.8713 46.8137C50.5523 42.1407 46.4923 37.7551 42.7125 36.8835C40.6825 36.4147 39.7408 35.9038 37.9845 35.446C37.9194 39.0973 36.7186 41.6756 34.3433 43.7356L32.7075 44.642C32.6635 44.6585 32.5332 44.7043 32.4974 44.7189C32.4599 44.7299 32.3475 44.7519 32.2839 44.794C30.9203 54.7371 38.8594 59.2911 45.1335 55.9072C47.0218 54.8909 49.3092 53.003 48.6836 50.8294Z" fill="#086BA9"/>
<path fill-rule="evenodd" clip-rule="evenodd" d="M82.5775 51.3088L83.5192 51.2246C88.3954 48.3204 93.7131 45.1727 98.9608 42.2374L78.366 34.8909C79.161 37.4783 78.4295 42.6219 78.1281 43.8524L76.1128 48.0842C78.2096 49.4337 80.8261 50.0289 82.5775 51.3088Z" fill="#D39E66"/>
<path fill-rule="evenodd" clip-rule="evenodd" d="M58.5303 29.575L62.5235 31.9775C61.357 32.6001 60.9497 30.8001 60.5244 36.57C60.3517 38.8973 60.2426 41.0654 59.9982 43.4642C61.4743 42.3728 63.2892 41.0434 64.2244 39.5218C65.5408 37.3812 65.2948 34.6015 63.9767 32.9828C65.443 33.1988 68.4538 35.3779 70.3795 36.2239C68.2778 37.5789 68.7242 33.6804 67.5023 47.1576C70.1791 46.2091 68.4815 46.7438 70.241 44.5739C75.0179 38.6794 71.0491 37.0644 75.2281 35.334C72.2694 24.2171 60.456 25.9695 58.5303 29.575Z" fill="#2F6A9C"/>
<path fill-rule="evenodd" clip-rule="evenodd" d="M83.0739 16.3361C81.0162 16.3837 80.9592 12.3003 78.3704 14.2761C76.1058 16.0029 80.6904 18.4676 80.6936 18.4712C78.9552 20.1083 74.1914 18.788 75.6919 24.0525C78.631 24.8125 79.7584 22.4265 81.7998 21.304C81.4105 24.3803 76.5945 31.0145 83.4405 30.6446C84.2714 27.5024 84.2697 25.0524 84.3219 21.3022C86.0244 22.681 86.7803 24.0159 87.7937 25.2593C88.724 26.4001 91.1205 27.6782 92.7889 25.9002C96.3047 22.1537 87.6601 20.5258 85.8044 19.2916C86.5897 18.6086 88.0348 18.6104 89.7162 17.552C90.622 16.9825 92.7791 15.7392 91.4659 13.8128C89.4864 10.9141 86.4757 16.8104 84.7634 17.2371C85.2033 15.9901 87.8344 11.7327 86.0586 10.8098C83.5757 9.52065 81.8797 12.0275 83.0739 16.3361Z" fill="#FA9D1B"/>
<path fill-rule="evenodd" clip-rule="evenodd" d="M48.8668 67.454L48.8032 72.1985C49.9029 73.05 49.9078 73.3063 50.913 73.8483C51.4963 73.6725 52.1741 73.006 52.7492 72.7387C55.7257 71.3562 55.5449 73.1745 55.5465 73.1745C54.2171 74.4892 54.2904 72.7515 52.425 74.4087C54.1112 75.8443 55.5465 73.5554 55.7567 76.9759L57.2148 76.9283C56.7945 75.663 56.3562 75.0679 56.8075 73.581C57.3321 71.8524 57.4674 71.911 58.8001 71.2829C61.4329 70.0414 63.5671 71.4587 62.6075 74.9012L63.8262 74.5075C63.8913 74.6046 63.9663 74.6522 64.0005 74.8225C64.1797 75.7454 64.7157 75.7069 64.7157 75.7069C66.5013 76.6243 65.6395 72.1966 68.3097 73.7769C69.0087 74.1908 70.4179 76.1244 71.7392 73.4308C72.3486 72.1893 71.6578 72.3779 72.6076 71.7315C73.7236 73.3539 73.1681 80.6217 72.8699 81.6581C74.2564 80.0998 73.4988 67.8807 73.4352 64.8373C71.9364 64.4107 68.9158 65.5075 67.2801 65.9854C65.5401 66.4963 62.5358 66.923 60.6573 67.3588C47.4933 70.4076 54.6504 68.9537 48.8668 67.454Z" fill="#7C8287"/>
<path fill-rule="evenodd" clip-rule="evenodd" d="M41.5175 6.91689C41.0189 7.58343 40.5204 8.07051 40.0381 8.90734C38.3405 9.19116 38.1988 8.33785 37.1675 9.13257L35.8413 11.0662C36.9866 13.6903 37.7019 12.8864 37.9919 14.0528L36.6347 11.7291C36.6021 11.5332 36.5239 11.4929 36.4751 11.372C37.6269 11.7511 38.6826 12.7069 39.2675 14.0254C39.8264 15.2925 40.2223 15.3438 41.1167 16.4443L43.3324 14.2836C44.3898 15.3676 45.7746 16.2099 45.817 18.193C45.8821 19.7092 46.2992 20.3977 46.8189 21.8297C47.6221 24.0398 47.3549 24.6826 49.1862 24.8565L50.8594 23.7926C51.2618 18.9218 50.1718 20.1908 49.3084 18.7625C48.3211 17.1273 49.5641 16.3784 47.6971 13.9466C48.6013 12.3407 48.3602 13.4724 48.8082 11.4544C49.9519 6.30163 52.8861 9.09777 49.556 3.28026C45.8528 3.12827 47.4413 3.57324 45.5644 4.98321L45.0594 5.27803C43.4253 5.994 46.3139 4.95758 44.4484 5.44649C42.9447 5.84018 43.2868 5.30549 41.5175 6.91689Z" fill="#E5765B"/>
<path fill-rule="evenodd" clip-rule="evenodd" d="M28.6719 11.6979C26.9335 10.8903 28.3493 11.4708 27.7595 11.7583C27.0785 14.0106 27.9664 12.2362 27.5966 13.3056L26.3226 12.4248C26.2655 12.3809 26.1482 12.2857 26.101 12.249C26.0538 12.2142 25.9462 12.141 25.8794 12.0732C25.7393 12.4761 25.5813 11.9121 25.622 13.5693C26.8684 13.355 27.1437 14.0857 27.6471 15.1807C27.3799 15.9846 26.3584 17.6143 25.767 18.1032C23.8722 17.9018 23.926 17.7534 23.6376 15.6128L23.957 16.3984C22.1029 16.3068 21.171 16.6914 21.0113 13.9447C19.5027 13.9447 18.0006 13.8971 17.6372 12.3314C17.4417 11.4946 17.3473 13.9227 17.5509 11.425C17.6552 10.1524 17.2316 10.5589 18.4486 9.83194C18.4453 8.50803 18.447 10.9654 16.8064 10.4728C14.4587 9.76785 17.8197 10.1084 14.9295 9.68362L13.9031 9.50417C13.807 9.46754 13.6995 9.40895 13.6098 9.36866L12.9598 9.00976C13.4925 7.40752 13.1911 7.90009 13.8966 7.3654C13.8314 7.29948 13.6995 7.14383 13.6685 7.22257C13.6359 7.29948 13.4844 7.10538 13.442 7.07974C13.3801 7.04312 13.0852 6.87099 13.0087 6.82521C12.5215 6.53956 12.6258 6.63111 12.2983 6.40405C11.43 6.82155 10.0174 8.82115 9.66064 10.2439C11.4072 12.7288 23.6409 22.8605 25.4004 23.5929C26.5116 22.9868 25.5666 23.6698 26.5311 22.6243C27.7661 21.2857 31.5214 15.7099 31.914 14.3567L28.6719 11.6979Z" fill="#042235"/>
<path fill-rule="evenodd" clip-rule="evenodd" d="M12.2974 6.40405C12.6248 6.63111 12.5206 6.53955 13.0077 6.82521C13.0843 6.87099 13.3792 7.04311 13.4411 7.07974C13.4834 7.10537 13.6349 7.29947 13.6675 7.22257C13.6985 7.14383 13.8304 7.29947 13.8956 7.36539C13.1902 7.90009 13.4916 7.40751 12.9588 9.00976L13.6089 9.36866C13.6985 9.40894 13.806 9.46754 13.9021 9.50416L14.9285 9.68361C17.8187 10.1084 14.4577 9.76784 16.8054 10.4728C18.446 10.9654 18.4444 8.50802 18.4476 9.83193C17.2306 10.5589 17.6542 10.1524 17.5499 11.425C17.3463 13.9227 17.4408 11.4946 17.6363 12.3314C17.9996 13.8971 19.5017 13.9447 21.0104 13.9447C21.17 16.6914 22.1019 16.3068 23.956 16.3984L23.6367 15.6128C24.8537 15.1203 24.5034 14.7852 25.621 13.5693C25.5803 11.9121 25.7383 12.4761 25.8785 12.0732C25.9453 12.141 26.0528 12.2142 26.1 12.249C26.1473 12.2857 26.2646 12.3809 26.3216 12.4248L27.5956 13.3056C27.9655 12.2362 27.0775 14.0106 27.7586 11.7583C28.3483 11.4708 26.9326 10.8903 28.6709 11.6979C27.9215 10.3447 26.5888 9.60671 25.6471 8.71494C23.7735 6.93508 17.7585 1.57168 15.8849 0.958252C14.386 2.68501 13.2733 4.02357 12.2974 6.40405Z" fill="#284764"/>
<path fill-rule="evenodd" clip-rule="evenodd" d="M58.4398 20.7105C56.8057 12.7121 54.3212 10.0057 57.4558 6.7884C60.4323 3.7304 60.0593 2.81117 61.928 3.25431L66.7895 4.84739C67.0013 4.94811 67.3434 5.13672 67.5194 5.24109C69.4516 6.39471 69.7368 11.9632 70.6654 14.4444L70.9277 15.0432C71.3692 15.8782 71.0369 15.3563 71.511 15.8617C72.5944 15.1054 72.0698 15.1622 73.1695 14.6714C73.1174 13.0216 72.2017 9.93063 71.7016 8.0354C69.7759 0.705367 70.3982 3.39347 63.4399 1.21076L61.4001 0.414217C60.0446 -0.215694 60.3623 -0.598402 57.2994 2.91372C56.5092 3.82196 56.6102 4.16988 55.6881 5.20447C52.4639 8.81913 52.0224 8.25331 54.603 16.3744C55.5708 19.4177 55.2254 20.304 58.4398 20.7105Z" fill="#F93CAA"/>
<path fill-rule="evenodd" clip-rule="evenodd" d="M60.6008 7.5468C60.0273 8.06318 59.9654 8.0998 59.5108 8.67294C59.3446 8.88352 58.5985 10.114 58.5936 10.125C58.1798 11.3098 58.7044 12.6117 59.1019 13.8825C59.7047 15.7997 60.3466 19.8117 61.3144 21.273C63.9602 23.311 67.4581 21.1009 69.3431 19.3173C69.058 16.1605 67.9941 14.1462 67.4223 11.4874C66.7901 8.55575 65.8322 6.79054 63.1505 6.57446C63.2613 11.7859 68.1179 19.4913 65.4526 20.7053C63.7028 21.5019 63.0283 16.8307 62.5086 14.9995C61.7249 12.2418 61.6044 9.79909 60.6008 7.5468Z" fill="#ED1C95"/>
<path fill-rule="evenodd" clip-rule="evenodd" d="M34.4754 14.5963C34.7833 13.9774 34.6448 14.5322 35.2802 14.2301C36.0101 15.2006 36.2366 15.3782 37.0952 16.0191C36.0574 19.9396 37.5725 21.0199 41.1161 16.4439C40.2216 15.3434 39.8257 15.2921 39.2669 14.025C38.682 12.7066 37.6263 11.7507 36.4744 11.3717C36.5233 11.4925 36.6015 11.5328 36.6341 11.7288L37.9912 14.0525C37.7012 12.886 36.986 13.6899 35.8407 11.0659L37.1668 9.1322C38.1981 8.33749 38.3399 9.1908 40.0375 8.90697C40.5198 8.07014 41.0183 7.58306 41.5168 6.91653C39.9479 6.51368 40.6729 6.26281 39.2017 5.8032C37.408 5.24287 38.0906 6.14928 36.872 4.77227C36.1714 3.98305 34.4216 1.85344 32.5399 4.27786C30.3079 7.1564 34.4461 9.26587 34.4754 14.5963Z" fill="#68AC43"/>
<path fill-rule="evenodd" clip-rule="evenodd" d="M34.4759 14.5967C33.9106 15.9737 33.7672 17.7133 33.3273 18.7625C32.4411 20.8775 32.3172 19.213 31.8057 22.7196L32.7196 23.5839C34.4157 23.0053 44.5917 18.2864 45.8169 18.193C45.7745 16.2099 44.3897 15.3676 43.3323 14.2836L41.1166 16.4443C37.5731 21.0203 36.0579 19.94 37.0957 16.0195C36.2371 15.3786 36.0107 15.201 35.2808 14.2305C34.6454 14.5326 34.7839 13.9778 34.4759 14.5967Z" fill="#2F6A9C"/>
<path fill-rule="evenodd" clip-rule="evenodd" d="M14.5638 22.6461C14.0033 20.218 10.507 19.4288 8.6595 21.1592C8.38417 18.0262 8.92995 18.4107 9.84068 17.5226C8.44282 16.9678 7.67383 17.5702 6.71423 18.4711C6.12608 22.2378 7.01889 20.8644 7.51091 23.8016C7.87585 25.9751 7.80417 27.0555 9.41709 27.8539C10.8117 28.5442 12.6706 28.3263 13.5765 27.3906C14.7022 26.226 14.163 24.935 14.5638 22.6461Z" fill="#58A420"/>
<path fill-rule="evenodd" clip-rule="evenodd" d="M48.6834 50.8291C49.9933 49.9868 49.6658 48.4871 49.8711 46.8134C49.2715 45.8136 49.5241 46.0627 48.8186 45.321C47.2106 45.6433 46.1793 46.8848 45.394 48.6006C42.9844 48.553 41.4155 46.8775 39.1053 47.8169C37.8459 48.3296 36.3682 50.2761 37.0981 52.2299C38.8136 56.8206 44.1021 49.8934 45.2262 49.1609L48.6834 50.8291Z" fill="#FEFFFE"/>
<path fill-rule="evenodd" clip-rule="evenodd" d="M16.8275 35.0595C17.3684 35.8396 18.0689 36.0007 17.9468 37.2148C17.5329 37.1031 17.3228 36.9603 17.3146 36.9566C16.6613 36.7533 17.2511 36.7369 16.4234 36.7588C15.5046 37.982 14.9897 38.1926 14.0692 39.0532C13.0705 39.9871 12.352 40.2014 11.8633 41.5326C13.2872 41.5381 13.574 40.7672 15.1445 39.4451C16.1497 38.5991 15.2227 39.154 16.5489 38.3721L16.2198 41.6571L21.5506 39.6008C21.0765 38.8024 20.8223 38.405 20.2423 37.8319C19.3495 36.9456 19.3169 37.2752 18.7825 36.1564C20.0338 34.6054 22.5395 32.4227 24.084 30.9706C24.8562 30.2436 29.6673 26.5649 28.5317 26.1675C27.4939 25.8031 20.2879 33.5122 18.908 34.6109C17.6079 35.6437 18.5707 35.3507 16.8275 35.0595Z" fill="#040405"/>
<path fill-rule="evenodd" clip-rule="evenodd" d="M57.8403 46.6648C58.8504 48.9299 61.6054 50.0762 63.8994 50.3582L64.5657 40.688C63.6257 41.1073 59.3962 45.6467 57.8403 46.6648Z" fill="#042235"/>
<path fill-rule="evenodd" clip-rule="evenodd" d="M57.215 76.928C59.4779 78.1273 61.4819 76.9536 62.6077 74.9009C63.5673 71.4584 61.433 70.041 58.8002 71.2826C57.4675 71.9106 57.3323 71.852 56.8077 73.5806C56.3564 75.0675 56.7946 75.6626 57.215 76.928Z" fill="#455767"/>
<path fill-rule="evenodd" clip-rule="evenodd" d="M50.9136 73.8484L50.4558 75.6319C51.5002 76.9101 50.0974 75.9634 52.4565 76.7269L53.3167 77.106C53.3819 77.1408 53.4992 77.2122 53.5741 77.2873C51.738 78.7375 51.6843 77.1701 50.4135 78.1095C50.4591 78.7137 49.5777 80.1292 53.2222 78.9738C54.7162 78.4995 55.0095 78.1204 55.7573 76.976C55.5471 73.5554 54.1118 75.8443 52.4256 74.4087C54.291 72.7516 54.2177 74.4893 55.5471 73.1745C55.5471 73.1745 55.7263 71.3562 52.7498 72.7387C52.1747 73.0061 51.4969 73.6726 50.9136 73.8484Z" fill="#284764"/>
<path fill-rule="evenodd" clip-rule="evenodd" d="M66.0718 50.3969C71.2315 49.919 74.4541 45.7989 75.4788 40.6827L66.0718 50.3969Z" fill="#143D5B"/>
<path fill-rule="evenodd" clip-rule="evenodd" d="M9.84014 17.5223C8.92941 18.4104 8.38363 18.0258 8.65896 21.1589C10.5065 19.4285 14.0028 20.2177 14.5632 22.6458C15.6662 18.1943 13.672 16.8191 9.84014 17.5223Z" fill="#367FBE"/>
<path fill-rule="evenodd" clip-rule="evenodd" d="M23.6377 15.6126C23.9261 17.7532 23.8723 17.9015 25.7671 18.103C26.3585 17.614 27.38 15.9843 27.6472 15.1805C27.1438 14.0854 26.8684 13.3548 25.6221 13.5691C24.5044 14.7849 24.8547 15.12 23.6377 15.6126Z" fill="#B5C6D6"/>
</g>
<defs>
<clipPath id="clip0_10671_3207">
<rect width="100" height="100" fill="white"/>
</clipPath>
</defs>
</svg>
