<svg width="100" height="100" viewBox="0 0 100 100" fill="none" xmlns="http://www.w3.org/2000/svg">
<path d="M40.2424 32.5078L35.4785 59.0282C35.186 60.5956 34.7681 62.1003 34.1413 63.4169C33.5562 64.7335 32.8458 65.8621 32.01 66.8652C31.1743 67.8056 30.2549 68.558 29.252 69.0596C28.2491 69.5611 27.1626 69.8746 26.0761 69.8746H0L6.64438 32.3824C6.76974 31.7555 7.02048 31.1912 7.35479 30.7524C7.73088 30.3135 8.14877 30.1254 8.60844 30.1254H12.1605C12.5784 30.1254 12.9545 30.3762 13.1634 30.8777C13.4141 31.3166 13.4977 31.9436 13.3723 32.5078L8.44129 60.0941H15.1692L20.1839 32.3198C20.3092 31.6928 20.56 31.1285 20.8943 30.6897C21.2704 30.2508 21.6883 30.0627 22.1479 30.0627H25.7418C26.1178 30.0627 26.494 30.3135 26.7447 30.815C26.9954 31.2539 27.0372 31.8809 26.9536 32.4451L22.0226 60.0314H26.0761C26.8282 60.0314 27.5805 59.6552 28.2073 58.9655C28.8341 58.2759 29.2938 57.2727 29.4609 56.1442L33.7234 32.2571C33.8487 31.6301 34.0995 31.0658 34.4338 30.627C34.8099 30.1881 35.2278 30 35.6874 30H39.2395C39.6156 30 39.9917 30.2508 40.2424 30.7524C40.3678 31.3793 40.4095 32.0063 40.2424 32.5078ZM44.8391 54.8903L42.5826 67.6803C42.4572 68.3072 42.2065 68.8715 41.8722 69.3104C41.4961 69.7492 41.0782 69.9373 40.6185 69.9373H37.0665C36.6904 69.9373 36.3143 69.6865 36.1053 69.185C35.8546 68.7461 35.771 68.1191 35.8964 67.5549L42.1647 32.4451C42.2482 31.8182 42.499 31.2539 42.8751 30.815C43.2512 30.3762 43.6691 30.1881 44.1287 30.1881H49.2687L46.6778 45.2351H54.952L57.2503 32.4451C57.3757 31.8182 57.6264 31.2539 57.9608 30.815C58.3368 30.3762 58.7547 30.1881 59.2144 30.1881H64.3962L57.71 67.6803C57.5846 68.3072 57.3339 68.8715 56.9996 69.3104C56.6235 69.7492 56.2056 69.9373 55.746 69.9373H52.1521C51.4417 69.9373 50.8985 69.0596 50.9403 67.9937C50.9403 67.8684 50.9403 67.743 50.9821 67.5549L53.2386 54.8903H44.8391ZM59.5069 67.4922L66.1931 30.2508H87.0873C88.6335 30.2508 90.1379 30.7523 91.5169 31.8182C92.8124 32.8213 93.9407 34.2006 94.8182 35.9561C95.6958 37.7116 96.3226 39.7179 96.6569 41.8495C96.9912 44.1066 96.9494 46.4263 96.5316 48.6207L93.1049 67.6803C93.0213 68.3072 92.7706 68.8715 92.3945 69.3104C92.0184 69.7492 91.6005 69.9373 91.1408 69.9373H87.5888C86.8784 70 86.3351 69.185 86.2934 68.1191C86.2934 67.931 86.2934 67.743 86.3351 67.5549L89.929 47.4922C90.0543 46.6144 90.0543 45.674 89.929 44.7335C89.8036 43.8558 89.5529 43.0408 89.1768 42.2884C88.8007 41.5988 88.341 40.9718 87.8395 40.5956C87.2963 40.1567 86.6695 39.906 86.0426 39.906H84.5382L79.5654 67.6803C79.44 68.3072 79.1893 68.8715 78.855 69.3104C78.4789 69.7492 78.061 69.9373 77.6014 69.9373H74.0075C73.6314 69.9373 73.2553 69.6865 73.0046 69.185C72.7957 68.6834 72.7121 68.1191 72.7957 67.5549L77.7267 39.9687H70.9988L65.9841 67.743C65.8588 68.3699 65.608 68.9342 65.2737 69.373C64.8976 69.8119 64.4797 70 64.0201 70H60.5098C60.092 70 59.7159 69.7492 59.5069 69.2477C59.298 68.6834 59.298 68.0564 59.5069 67.4922ZM95.4868 33.511C95.4868 32.9467 95.5704 32.3197 95.7794 31.8182C95.9883 31.3166 96.2808 30.8777 96.6151 30.5643C97.3255 29.9373 98.1613 29.9373 98.8717 30.5643C99.206 30.8777 99.4985 31.3166 99.7075 31.8182C99.9164 32.3197 100 32.9467 100 33.511C100 34.0752 99.8746 34.7022 99.7075 35.2038C99.4985 35.7053 99.2478 36.1442 98.8717 36.4577C98.1613 37.0846 97.2837 37.0846 96.5733 36.4577C96.239 36.1442 95.9465 35.7053 95.7376 35.2038C95.6122 34.7022 95.4868 34.1379 95.4868 33.511ZM95.8211 33.511C95.8211 34.0125 95.9047 34.5141 96.0719 34.953C96.239 35.3918 96.4898 35.768 96.7823 36.0188C97.3673 36.5204 98.1195 36.5204 98.7463 36.0188C99.0389 35.768 99.2896 35.3918 99.4568 34.953C99.7911 34.0752 99.7911 32.9467 99.4568 32.0063C99.2896 31.5674 99.0389 31.1912 98.7463 30.9404C98.4538 30.6897 98.1195 30.5643 97.7852 30.5643C97.4509 30.5643 97.1166 30.6897 96.8241 30.9404C96.5316 31.1912 96.2808 31.5674 96.1137 32.0063C95.9047 32.5078 95.8211 33.0094 95.8211 33.511ZM98.6628 32.6959C98.6628 32.9467 98.621 33.1348 98.5374 33.3229C98.4538 33.511 98.3285 33.6364 98.1613 33.7618L98.8717 35.5799H98.412L97.827 34.0752H97.4091V35.7053H96.9494V31.6301H97.7434C97.9942 31.6301 98.2449 31.6928 98.4956 31.9436C98.621 32.069 98.7046 32.3824 98.6628 32.6959ZM97.4091 33.3856H97.7434C97.8688 33.3856 98.0359 33.3229 98.1195 33.1975C98.2867 32.9467 98.3285 32.5705 98.1613 32.3198L98.1195 32.2571C97.9941 32.1317 97.8688 32.069 97.7016 32.1317H97.3673L97.4091 33.3856Z" fill="#F26C32"/>
</svg>
