<svg width="200" height="100" viewBox="0 0 200 100" fill="none" xmlns="http://www.w3.org/2000/svg">
<path d="M74.0449 46.8535H79.9198C81.5561 46.8535 82.876 47.2204 83.8795 47.9543C84.8829 48.6812 85.5984 49.64 85.5984 50.8308C85.5984 51.6131 85.5807 53.1155 85.0835 53.8217C84.5953 54.5209 83.854 55.0436 82.8596 55.3897C81.8652 55.7359 80.7845 55.9159 80.0793 55.9297L77.5496 55.9713V60.4884H74.0449V46.8535ZM77.4953 49.7619V53.2926L79.6401 53.2926C80.282 53.2926 80.8289 53.1161 81.281 52.763C81.742 52.4099 81.9725 51.9911 81.9725 51.5065C81.9725 50.9526 81.7149 50.5234 81.1996 50.2188C80.6843 49.9142 80.149 49.7616 79.1998 49.7616L77.4953 49.7619Z" fill="#646B6D"/>
<path d="M87.6104 46.8535H97.1336V49.5535H91.0939V52.0306H96.9543V54.9639H91.0939V57.4526H97.1336V60.4885H87.6104V46.8535Z" fill="#646B6D"/>
<path d="M100.406 46.8535H106.509C108.107 46.8535 109.107 47.2154 110.034 47.9335C110.965 48.6554 111.285 49.7977 111.433 50.8516C111.536 51.5896 111.477 52.301 111.047 53.0556C110.625 53.8102 109.353 54.6328 108.171 54.8855L112.828 60.4885H108.606L104.239 55.062L103.849 55.062V60.4885H100.406V46.8535ZM103.874 49.5081V53.0294H105.116C106.909 53.0294 107.805 52.2085 107.805 50.9554C107.805 49.5568 106.17 49.5153 105.165 49.5081H103.874Z" fill="#646B6D"/>
<path d="M112.979 46.8535H124.394V49.8061H120.503V60.4885H116.845V49.8061H112.979V46.8535Z" fill="#646B6D"/>
<path d="M128.687 46.8535H132.335L137.362 60.4885H133.67L132.711 58.0303H128.2L127.067 60.4885H123.621L128.687 46.8535ZM130.467 51.2396L128.827 55.4589H131.866L130.467 51.2396Z" fill="#646B6D"/>
<path d="M140.966 46.8535H144.377L147.165 54.4232L150.199 46.8535H153.585L155.542 60.4885H152.187L151.195 52.7597L147.84 60.4882H146.458L143.299 52.6185L141.849 60.4882L138.743 60.4885L140.966 46.8535Z" fill="#646B6D"/>
<path d="M157.822 46.8535H161.353V60.4885H157.822V46.8535Z" fill="#646B6D"/>
<path d="M174.611 46.9279H177.831V60.4881H174.264L168.047 52.4116V60.4881H164.564V46.9279H167.891L174.611 55.32V46.9279Z" fill="#646B6D"/>
<path d="M185.076 46.8535H188.724L193.751 60.4885H190.059L189.1 58.0303H184.589L183.456 60.4885H180.01L185.076 46.8535ZM186.855 51.2396L185.216 55.4589H188.255L186.855 51.2396Z" fill="#646B6D"/>
<path d="M6.24902 69.9999C6.24902 69.9999 18.0195 52.8308 19.9375 49.9845C21.8552 47.1378 23.5074 46.8704 28.8056 46.8704H40.4836C39.7951 47.4002 38.6176 48.5061 37.7366 49.8059L25.8592 67.3312C24.6716 69.2894 22.1603 69.9999 19.1467 69.9999H6.24902Z" fill="#646B6D"/>
<path d="M52.7455 46.8704C47.4472 46.8704 45.7858 47.1377 43.7673 49.9844C41.7486 52.8307 36.3262 60.5005 36.3262 60.5005H49.9058C52.2767 60.5005 54.5844 59.5458 55.578 57.9677L63.6012 46.8704H52.7455Z" fill="#646B6D"/>
<path d="M47.1819 29.9998C52.4802 29.9998 54.1416 30.2671 56.16 33.1138C58.1787 35.9601 63.6012 43.6299 63.6012 43.6299H50.0215C47.6506 43.6299 45.3429 42.6752 44.3493 41.097L36.3262 29.9998H47.1819Z" fill="#646B6D"/>
</svg>
