<svg width="36" height="37" viewBox="0 0 36 37" fill="none" xmlns="http://www.w3.org/2000/svg">
<path d="M32.4711 3.95018C32.4591 3.89247 32.4309 3.83939 32.3898 3.79716C32.3487 3.75493 32.2964 3.72532 32.2391 3.71182C28.4155 2.77666 19.5828 6.10877 14.7924 10.8956C13.9387 11.7424 13.1602 12.6618 12.4658 13.6435C10.9892 13.5099 9.51265 13.6224 8.25546 14.1708C4.70538 15.7317 3.67249 19.8085 3.38421 21.5585C3.36859 21.6544 3.37526 21.7526 3.4037 21.8455C3.43215 21.9384 3.4816 22.0235 3.54824 22.0943C3.61487 22.165 3.69688 22.2194 3.78793 22.2533C3.87898 22.2872 3.97662 22.2997 4.07327 22.2898L9.7735 21.664C9.77745 22.0939 9.80326 22.5234 9.85085 22.9507C9.8806 23.2461 10.0124 23.5218 10.2235 23.7305L12.4306 25.9376C12.6395 26.1489 12.9155 26.2807 13.2111 26.3103C13.6358 26.3576 14.0627 26.3834 14.4901 26.3876L13.865 32.0829C13.8552 32.1794 13.8678 32.2769 13.9017 32.3678C13.9356 32.4587 13.99 32.5406 14.0606 32.6071C14.1312 32.6737 14.2162 32.7231 14.309 32.7515C14.4017 32.78 14.4998 32.7867 14.5955 32.7713C16.3463 32.49 20.4315 31.4571 21.9833 27.9078C22.5317 26.6492 22.6442 25.1803 22.5176 23.7108C23.5022 23.017 24.4242 22.2385 25.2732 21.3842C30.0812 16.6029 33.3922 7.96432 32.4711 3.95018ZM20.9996 15.1903C20.5796 14.7705 20.2936 14.2355 20.1777 13.6531C20.0618 13.0707 20.1212 12.467 20.3485 11.9183C20.5757 11.3697 20.9605 10.9007 21.4542 10.5708C21.948 10.2409 22.5285 10.0648 23.1223 10.0648C23.7162 10.0648 24.2967 10.2409 24.7904 10.5708C25.2842 10.9007 25.669 11.3697 25.8962 11.9183C26.1234 12.467 26.1828 13.0707 26.0669 13.6531C25.951 14.2355 25.665 14.7705 25.2451 15.1903C24.9665 15.4695 24.6356 15.6909 24.2714 15.842C23.9072 15.9931 23.5167 16.0709 23.1223 16.0709C22.728 16.0709 22.3375 15.9931 21.9733 15.842C21.609 15.6909 21.2781 15.4695 20.9996 15.1903Z" stroke="#4A6DCB" stroke-width="2.5" stroke-linecap="round" stroke-linejoin="round"/>
<path d="M7.70906 24.9166C7.00813 25.0027 6.35603 25.3204 5.85633 25.8194C4.61742 27.0626 4.5 31.6666 4.5 31.6666C4.5 31.6666 9.10687 31.5492 10.3465 30.3089C10.8475 29.81 11.1658 29.1568 11.25 28.4548" stroke="#4A6DCB" stroke-width="2.5" stroke-linecap="round" stroke-linejoin="round"/>
</svg>
