<svg width="36" height="37" viewBox="0 0 36 37" fill="none" xmlns="http://www.w3.org/2000/svg">
<path d="M32.25 21.1666L30 13.6666C30 13.6666 29.25 10.6666 26.25 10.6666C26.25 10.6666 26.25 7.66663 23.25 7.66663C20.25 7.66663 20.25 10.6666 20.25 10.6666H15.75C15.75 10.6666 15.75 7.66663 12.75 7.66663C9.75 7.66663 9.75 10.6666 9.75 10.6666C6.75 10.6666 6 13.6666 6 13.6666L3.75 21.1666" stroke="#4A6DCB" stroke-width="2.5" stroke-linecap="round" stroke-linejoin="round"/>
<path d="M9 30.1666C10.5913 30.1666 12.1174 29.5345 13.2426 28.4093C14.3679 27.284 15 25.7579 15 24.1666C15 22.5753 14.3679 21.0492 13.2426 19.924C12.1174 18.7988 10.5913 18.1666 9 18.1666C7.4087 18.1666 5.88258 18.7988 4.75736 19.924C3.63214 21.0492 3 22.5753 3 24.1666C3 25.7579 3.63214 27.284 4.75736 28.4093C5.88258 29.5345 7.4087 30.1666 9 30.1666ZM27 30.1666C28.5913 30.1666 30.1174 29.5345 31.2426 28.4093C32.3679 27.284 33 25.7579 33 24.1666C33 22.5753 32.3679 21.0492 31.2426 19.924C30.1174 18.7988 28.5913 18.1666 27 18.1666C25.4087 18.1666 23.8826 18.7988 22.7574 19.924C21.6321 21.0492 21 22.5753 21 24.1666C21 25.7579 21.6321 27.284 22.7574 28.4093C23.8826 29.5345 25.4087 30.1666 27 30.1666Z" stroke="#4A6DCB" stroke-width="2.5" stroke-linecap="round" stroke-linejoin="round"/>
<path d="M18 24.1666C18.7956 24.1666 19.5587 23.8506 20.1213 23.2879C20.6839 22.7253 21 21.9623 21 21.1666C21 20.371 20.6839 19.6079 20.1213 19.0453C19.5587 18.4827 18.7956 18.1666 18 18.1666C17.2044 18.1666 16.4413 18.4827 15.8787 19.0453C15.3161 19.6079 15 20.371 15 21.1666C15 21.9623 15.3161 22.7253 15.8787 23.2879C16.4413 23.8506 17.2044 24.1666 18 24.1666Z" stroke="#4A6DCB" stroke-width="2.5" stroke-linecap="round" stroke-linejoin="round"/>
</svg>
