<svg width="500" height="500" viewBox="0 0 500 500" fill="none" xmlns="http://www.w3.org/2000/svg">
<path d="M65.26 332.661L93.19 327.941L117.36 303.332L160.59 348.281L190.49 329.702L211.58 346.852L252.9 301.452L285.41 298.441L320.27 246.862L358.15 284.811L380.52 250.191L394.48 248.191L413.04 213.792L449.3 273.802L500 483.792H0L65.26 332.661Z" fill="#E0D2EF"/>
<path d="M70.1503 398.542L69.5303 397.751L111.56 364.971L172.85 359.721L172.93 359.742L227.13 374.102L274.51 332.971L274.66 332.952L341.04 323.411L390.54 290.112L413.48 237.792L414.39 238.191L391.34 290.781L391.22 290.862L341.41 324.371L341.3 324.392L274.95 333.922L227.39 375.212L227.13 375.142L172.76 360.732L111.94 365.941L70.1503 398.542Z" fill="white"/>
<path d="M66.32 403.671C69.5122 403.671 72.1 401.084 72.1 397.891C72.1 394.699 69.5122 392.111 66.32 392.111C63.1278 392.111 60.54 394.699 60.54 397.891C60.54 401.084 63.1278 403.671 66.32 403.671Z" fill="#E0D2EF"/>
<path d="M66.3205 404.171C65.0756 404.173 63.8581 403.806 62.8222 403.115C61.7863 402.425 60.9785 401.443 60.5012 400.293C60.0239 399.143 59.8985 397.878 60.1409 396.657C60.3833 395.436 60.9825 394.314 61.8628 393.434C62.7431 392.553 63.8648 391.954 65.0858 391.712C66.3069 391.469 67.5725 391.595 68.7222 392.072C69.872 392.549 70.8542 393.357 71.5446 394.393C72.235 395.429 72.6025 396.646 72.6005 397.891C72.5979 399.556 71.9354 401.152 70.7582 402.329C69.5811 403.506 67.9853 404.169 66.3205 404.171ZM66.3205 392.601C65.2738 392.599 64.2501 392.908 63.3788 393.488C62.5076 394.068 61.828 394.894 61.4261 395.86C61.0241 396.826 60.9179 397.89 61.1209 398.917C61.3239 399.944 61.827 400.888 62.5664 401.628C63.3058 402.369 64.2484 402.874 65.2748 403.079C66.3012 403.284 67.3654 403.18 68.3326 402.78C69.2998 402.379 70.1266 401.701 70.7083 400.831C71.29 399.961 71.6005 398.938 71.6005 397.891C71.6005 396.49 71.0445 395.146 70.0546 394.154C69.0647 393.162 67.7218 392.604 66.3205 392.601Z" fill="white"/>
<path d="M111.48 371.231C114.672 371.231 117.26 368.644 117.26 365.451C117.26 362.259 114.672 359.671 111.48 359.671C108.288 359.671 105.7 362.259 105.7 365.451C105.7 368.644 108.288 371.231 111.48 371.231Z" fill="#E0D2EF"/>
<path d="M111.48 371.791C110.236 371.791 109.019 371.422 107.985 370.731C106.95 370.039 106.144 369.056 105.668 367.906C105.192 366.756 105.069 365.491 105.312 364.271C105.556 363.05 106.156 361.929 107.036 361.05C107.917 360.171 109.039 359.573 110.259 359.331C111.48 359.09 112.745 359.215 113.894 359.693C115.044 360.171 116.025 360.978 116.715 362.014C117.405 363.05 117.772 364.267 117.77 365.511C117.768 367.178 117.104 368.775 115.925 369.953C114.745 371.13 113.147 371.791 111.48 371.791ZM111.48 360.221C110.434 360.221 109.411 360.532 108.541 361.113C107.672 361.694 106.993 362.52 106.593 363.487C106.193 364.454 106.088 365.517 106.292 366.543C106.496 367.57 107 368.512 107.74 369.252C108.48 369.992 109.422 370.496 110.448 370.7C111.475 370.904 112.538 370.799 113.505 370.399C114.471 369.998 115.298 369.32 115.879 368.45C116.46 367.58 116.77 366.558 116.77 365.511C116.777 364.813 116.645 364.119 116.382 363.472C116.119 362.824 115.731 362.235 115.239 361.738C114.747 361.242 114.162 360.848 113.516 360.579C112.871 360.31 112.179 360.171 111.48 360.171V360.221Z" fill="white"/>
<path d="M178.59 359.351C178.592 360.497 178.254 361.618 177.618 362.572C176.983 363.526 176.079 364.269 175.02 364.709C173.962 365.148 172.797 365.264 171.673 365.041C170.549 364.817 169.516 364.266 168.706 363.455C167.895 362.645 167.344 361.612 167.121 360.488C166.897 359.364 167.013 358.199 167.452 357.141C167.892 356.083 168.636 355.178 169.589 354.543C170.543 353.907 171.664 353.569 172.81 353.571C174.343 353.571 175.813 354.18 176.897 355.264C177.981 356.348 178.59 357.818 178.59 359.351Z" fill="#E0D2EF"/>
<path d="M172.81 365.631C171.568 365.631 170.354 365.263 169.321 364.573C168.289 363.883 167.484 362.902 167.008 361.755C166.533 360.607 166.409 359.344 166.651 358.126C166.893 356.908 167.491 355.789 168.37 354.911C169.248 354.032 170.367 353.434 171.585 353.192C172.803 352.95 174.066 353.074 175.214 353.549C176.361 354.025 177.342 354.83 178.032 355.862C178.722 356.895 179.09 358.109 179.09 359.351C179.088 361.016 178.425 362.612 177.248 363.789C176.071 364.966 174.475 365.629 172.81 365.631ZM172.81 354.071C171.766 354.071 170.745 354.381 169.877 354.961C169.009 355.541 168.332 356.366 167.932 357.331C167.533 358.296 167.428 359.357 167.632 360.381C167.835 361.406 168.338 362.346 169.077 363.085C169.815 363.823 170.756 364.326 171.78 364.53C172.804 364.734 173.866 364.629 174.831 364.229C175.796 363.83 176.62 363.153 177.2 362.285C177.781 361.416 178.09 360.396 178.09 359.351C178.088 357.952 177.531 356.61 176.541 355.621C175.551 354.631 174.21 354.074 172.81 354.071Z" fill="white"/>
<path d="M226.99 380.572C230.182 380.572 232.77 377.984 232.77 374.792C232.77 371.6 230.182 369.012 226.99 369.012C223.798 369.012 221.21 371.6 221.21 374.792C221.21 377.984 223.798 380.572 226.99 380.572Z" fill="#E0D2EF"/>
<path d="M227 381.072C225.755 381.074 224.538 380.706 223.502 380.016C222.466 379.325 221.658 378.343 221.181 377.193C220.704 376.044 220.578 374.778 220.821 373.557C221.063 372.336 221.662 371.214 222.542 370.334C223.423 369.454 224.544 368.854 225.766 368.612C226.987 368.37 228.252 368.495 229.402 368.972C230.552 369.45 231.534 370.257 232.224 371.293C232.915 372.329 233.282 373.547 233.28 374.792C233.278 376.456 232.615 378.052 231.438 379.229C230.261 380.407 228.665 381.069 227 381.072ZM227 369.502C225.953 369.5 224.93 369.808 224.059 370.388C223.187 370.968 222.508 371.794 222.106 372.76C221.704 373.727 221.598 374.791 221.801 375.818C222.004 376.844 222.507 377.788 223.246 378.529C223.985 379.27 224.928 379.774 225.954 379.979C226.981 380.184 228.045 380.08 229.012 379.68C229.979 379.28 230.806 378.602 231.388 377.732C231.97 376.862 232.28 375.838 232.28 374.792C232.28 373.39 231.724 372.046 230.734 371.055C229.744 370.063 228.401 369.504 227 369.502Z" fill="white"/>
<path d="M274.73 339.881C277.922 339.881 280.51 337.293 280.51 334.101C280.51 330.909 277.922 328.321 274.73 328.321C271.538 328.321 268.95 330.909 268.95 334.101C268.95 337.293 271.538 339.881 274.73 339.881Z" fill="#E0D2EF"/>
<path d="M274.73 340.381C273.488 340.381 272.274 340.013 271.241 339.323C270.208 338.633 269.404 337.652 268.928 336.505C268.453 335.357 268.329 334.094 268.571 332.876C268.813 331.658 269.411 330.539 270.29 329.661C271.168 328.782 272.287 328.184 273.505 327.942C274.723 327.7 275.986 327.824 277.133 328.299C278.281 328.775 279.262 329.58 279.952 330.612C280.642 331.645 281.01 332.859 281.01 334.101C281.01 335.767 280.349 337.364 279.171 338.542C277.993 339.72 276.396 340.381 274.73 340.381ZM274.73 328.821C273.686 328.821 272.665 329.131 271.797 329.711C270.928 330.291 270.252 331.116 269.852 332.081C269.452 333.046 269.348 334.107 269.552 335.131C269.755 336.156 270.258 337.096 270.997 337.835C271.735 338.573 272.676 339.076 273.7 339.28C274.724 339.484 275.786 339.379 276.751 338.979C277.716 338.58 278.54 337.903 279.12 337.035C279.701 336.166 280.01 335.146 280.01 334.101C280.013 333.406 279.878 332.717 279.614 332.073C279.35 331.43 278.962 330.845 278.471 330.351C277.981 329.858 277.398 329.466 276.756 329.199C276.114 328.931 275.426 328.793 274.73 328.791V328.821Z" fill="white"/>
<path d="M341.23 329.182C344.422 329.182 347.01 326.594 347.01 323.402C347.01 320.209 344.422 317.622 341.23 317.622C338.038 317.622 335.45 320.209 335.45 323.402C335.45 326.594 338.038 329.182 341.23 329.182Z" fill="#E0D2EF"/>
<path d="M341.23 329.682C339.988 329.682 338.774 329.313 337.741 328.623C336.708 327.933 335.904 326.952 335.428 325.805C334.953 324.657 334.829 323.395 335.071 322.176C335.313 320.958 335.911 319.839 336.79 318.961C337.668 318.083 338.787 317.485 340.005 317.242C341.223 317 342.486 317.124 343.633 317.6C344.781 318.075 345.762 318.88 346.452 319.913C347.142 320.945 347.51 322.159 347.51 323.402C347.508 325.066 346.845 326.662 345.668 327.839C344.491 329.016 342.895 329.679 341.23 329.682ZM341.23 318.122C340.186 318.122 339.165 318.431 338.297 319.011C337.428 319.592 336.752 320.416 336.352 321.381C335.952 322.346 335.848 323.407 336.052 324.432C336.255 325.456 336.758 326.397 337.497 327.135C338.235 327.874 339.176 328.376 340.2 328.58C341.224 328.784 342.286 328.679 343.251 328.28C344.216 327.88 345.04 327.203 345.62 326.335C346.201 325.467 346.51 324.446 346.51 323.402C346.508 322.002 345.95 320.661 344.961 319.671C343.971 318.681 342.63 318.124 341.23 318.122Z" fill="white"/>
<path d="M390.99 296.381C394.182 296.381 396.77 293.793 396.77 290.601C396.77 287.409 394.182 284.821 390.99 284.821C387.798 284.821 385.21 287.409 385.21 290.601C385.21 293.793 387.798 296.381 390.99 296.381Z" fill="#E0D2EF"/>
<path d="M391 296.881C389.755 296.883 388.538 296.516 387.502 295.825C386.466 295.135 385.658 294.153 385.181 293.003C384.704 291.853 384.578 290.588 384.821 289.367C385.063 288.146 385.662 287.024 386.542 286.144C387.423 285.263 388.544 284.664 389.766 284.422C390.987 284.179 392.252 284.305 393.402 284.782C394.552 285.259 395.534 286.067 396.224 287.103C396.915 288.139 397.282 289.356 397.28 290.601C397.278 292.266 396.615 293.862 395.438 295.039C394.261 296.216 392.665 296.879 391 296.881ZM391 285.311C389.954 285.309 388.93 285.618 388.059 286.198C387.187 286.778 386.508 287.603 386.106 288.57C385.704 289.536 385.598 290.6 385.801 291.627C386.004 292.654 386.507 293.598 387.246 294.338C387.985 295.079 388.928 295.584 389.954 295.789C390.981 295.994 392.045 295.89 393.012 295.49C393.979 295.089 394.806 294.411 395.388 293.541C395.97 292.671 396.28 291.648 396.28 290.601C396.28 289.2 395.724 287.856 394.734 286.864C393.744 285.872 392.401 285.314 391 285.311Z" fill="white"/>
<path d="M414.2 243.791C417.392 243.791 419.98 241.204 419.98 238.011C419.98 234.819 417.392 232.231 414.2 232.231C411.008 232.231 408.42 234.819 408.42 238.011C408.42 241.204 411.008 243.791 414.2 243.791Z" fill="#E0D2EF"/>
<path d="M414.2 244.291C412.956 244.291 411.739 243.922 410.705 243.231C409.67 242.539 408.864 241.556 408.388 240.406C407.912 239.256 407.788 237.991 408.032 236.771C408.275 235.55 408.875 234.429 409.756 233.55C410.637 232.671 411.758 232.073 412.979 231.831C414.2 231.59 415.465 231.715 416.614 232.193C417.763 232.671 418.745 233.478 419.435 234.514C420.125 235.55 420.492 236.767 420.49 238.011C420.487 239.678 419.824 241.275 418.644 242.453C417.465 243.63 415.867 244.291 414.2 244.291ZM414.2 232.721C413.154 232.721 412.131 233.032 411.261 233.613C410.391 234.194 409.713 235.02 409.313 235.987C408.912 236.954 408.808 238.017 409.012 239.043C409.216 240.07 409.72 241.012 410.46 241.752C411.199 242.492 412.142 242.996 413.168 243.2C414.194 243.404 415.258 243.299 416.225 242.899C417.191 242.498 418.017 241.82 418.599 240.95C419.18 240.08 419.49 239.058 419.49 238.011C419.49 237.317 419.353 236.629 419.087 235.987C418.822 235.345 418.432 234.762 417.941 234.271C417.45 233.78 416.866 233.39 416.225 233.124C415.583 232.858 414.895 232.721 414.2 232.721Z" fill="white"/>
<path d="M133.615 120.424C146.526 107.513 146.526 86.5807 133.615 73.6699C120.704 60.7592 99.7721 60.7592 86.8613 73.6699C73.9506 86.5807 73.9506 107.513 86.8613 120.424C99.7721 133.335 120.704 133.335 133.615 120.424Z" fill="#E0D2EF"/>
<path d="M366.58 130.701L454.19 130.571C454.19 130.571 449.82 124.901 445.02 124.201C445.02 124.201 435.64 96.4113 420.02 96.2013C405.48 96.0413 399.68 113.331 399.68 113.331C399.68 113.331 392.93 105.591 386.5 109.151C380.07 112.711 376.45 122.861 376.45 122.861C376.45 122.861 369.2 126.791 366.58 130.701Z" fill="#F0E8F7"/>
<path d="M212.82 230.852L102 231.022C102 231.022 102 223.942 117.25 222.542C117.25 222.542 131.14 191.542 152.42 195.702C165.67 198.272 172.47 216.452 172.47 216.452C172.47 216.452 182.47 202.122 190.47 204.882C198.47 207.642 203.26 222.882 203.26 222.882C203.26 222.882 211.56 226.852 212.82 230.852Z" fill="#F0E8F7"/>
<path d="M385.2 199.291L309.87 199.411C309.87 199.411 317 192.791 320.13 192.791C323.26 192.791 332.47 170.561 344.26 171.491C356.05 172.421 362.32 188.951 362.32 188.951C362.32 188.951 376.64 184.421 385.2 199.291Z" fill="#F0E8F7"/>
<path d="M110.24 130.011L45.8096 130.111C45.8096 130.111 49.0096 125.941 52.5396 125.411C52.5396 125.411 59.3796 104.951 70.8796 104.791C81.5596 104.641 85.8796 117.341 85.8796 117.341C85.8796 117.341 90.8196 111.631 95.5596 114.231C100.3 116.831 103 124.291 103 124.291C103 124.291 108.3 127.151 110.24 130.011Z" fill="#F0E8F7"/>
<path d="M332.85 342.581H308.6L312.13 304.221H329.32L332.85 342.581Z" fill="#8098DB"/>
<path d="M75.9199 483.791H424.08L394.41 437.211L372.05 423.631L335.58 342.381H259.03L250.55 357.721L244.77 358.091L229.06 378.351H147.43L130.24 402.131L111.42 414.551L75.9199 483.791Z" fill="#2A4693"/>
<path d="M354.11 383.651H354.1L330.51 362.441L312.3 383.831L296.56 362.441L269.11 409.191L252.82 381.051L240.13 405.991L230.32 396.611L215.62 431.781L195.45 397.461L184.47 413.081L171.92 397.251L148.68 419.841L130.24 402.121L147.43 378.351H229.06L244.77 358.091L250.55 357.711L259.04 342.391H335.58L354.11 383.651Z" fill="#F0E8F7"/>
<path d="M347.92 421.491L353.46 449.651L378.45 462.731L347.92 421.491Z" fill="#263238"/>
<path d="M117.27 477.361L136.09 458.741L138.58 440.451L117.27 477.361Z" fill="#263238"/>
<path d="M198.63 478.691L226.52 414.491L226.99 461.421L198.63 478.691Z" fill="#263238"/>
<path d="M330.63 398.141L344.15 428.591L332.85 414.491L330.63 398.141Z" fill="#263238"/>
<path d="M318.139 344.792C316.049 345.472 256.649 344.702 254.409 343.232C253.549 342.692 253.159 334.022 252.979 323.542V323.221C252.979 321.061 252.909 318.832 252.909 316.582C252.909 316.272 252.909 315.961 252.909 315.651L255.779 284.792L295.519 285.191L291.599 315.792L291.549 317.001L291.309 323.311V323.962C291.309 323.962 313.909 334.432 316.209 336.302C318.509 338.172 320.219 344.112 318.139 344.792Z" fill="#DD6A57"/>
<path d="M318.139 344.791C316.049 345.471 256.649 344.701 254.409 343.231C253.549 342.691 253.159 334.021 252.979 323.541V323.221C252.979 321.061 252.909 318.831 252.909 316.581C252.909 316.271 252.909 315.961 252.909 315.651L291.609 315.761L291.559 316.971L291.319 323.281V323.931C291.319 323.931 313.919 334.401 316.219 336.271C318.519 338.141 320.219 344.111 318.139 344.791Z" fill="#F0E8F7"/>
<path d="M318.14 344.791C317.07 345.131 300.93 345.101 285.14 344.791C281.97 344.731 278.809 344.651 275.809 344.571C264.559 344.261 255.259 343.801 254.399 343.241C253.539 342.681 253.149 334.241 252.979 323.991C252.979 323.841 252.979 323.701 252.979 323.551C252.979 323.401 252.979 323.331 252.979 323.221H252.999L291.279 323.291V323.941C291.279 323.941 313.889 334.401 316.179 336.281C318.469 338.161 320.22 344.111 318.14 344.791Z" fill="#455A64"/>
<path d="M317.5 342.461C307.5 342.091 267.08 341.521 257.15 341.901C257.07 341.901 257.07 341.961 257.15 341.971C267.07 342.561 307.48 342.801 317.49 342.631C317.71 342.621 317.71 342.471 317.5 342.461Z" fill="#263238"/>
<path d="M295.579 323.431C291.639 322.641 286.819 323.191 283.769 325.951C283.649 326.061 283.769 326.231 283.929 326.191C287.71 325.02 291.606 324.263 295.549 323.931C295.616 323.935 295.681 323.913 295.731 323.869C295.78 323.825 295.81 323.763 295.814 323.696C295.818 323.63 295.796 323.565 295.752 323.515C295.708 323.465 295.646 323.435 295.579 323.431Z" fill="#263238"/>
<path d="M298.4 325.181C294.47 324.391 289.64 324.941 286.59 327.701C286.47 327.811 286.59 327.981 286.76 327.941C290.539 326.769 294.436 326.011 298.38 325.681C298.446 325.684 298.51 325.66 298.559 325.615C298.608 325.57 298.637 325.508 298.64 325.441C298.642 325.375 298.618 325.31 298.573 325.262C298.528 325.213 298.466 325.184 298.4 325.181Z" fill="#263238"/>
<path d="M301.219 326.932C297.289 326.142 292.459 326.692 289.409 329.462C289.299 329.562 289.409 329.732 289.579 329.692C293.362 328.528 297.257 327.771 301.199 327.432C301.266 327.434 301.33 327.41 301.379 327.365C301.428 327.32 301.457 327.258 301.459 327.192C301.462 327.125 301.438 327.061 301.393 327.012C301.348 326.963 301.286 326.934 301.219 326.932Z" fill="#263238"/>
<path d="M293.919 323.401H247.299C247.299 323.401 257.419 231.401 257.089 229.641C256.919 228.741 248.539 216.081 238.579 201.281C233.009 192.991 226.949 184.041 221.579 176.091C212.669 162.971 205.579 152.611 205.579 152.611H251.229C251.229 152.611 257.369 160.031 265.419 170.521C276.819 185.391 292.039 206.421 299.009 221.311C304.409 232.871 293.919 323.401 293.919 323.401Z" fill="#263238"/>
<path d="M291.179 227.461C290.319 222.341 287.759 217.851 285.229 213.401C278.238 201.561 270.559 190.141 262.229 179.201C261.396 178.155 260.556 177.105 259.709 176.051C259.659 175.981 259.539 176.051 259.599 176.131C267.715 186.978 275.265 198.236 282.219 209.861C284.809 214.321 287.709 218.861 289.369 223.731C291.129 228.911 290.879 234.411 290.609 239.801C290.049 250.921 289.383 262.031 288.609 273.131C287.816 284.365 286.913 295.581 285.899 306.781C285.779 308.151 285.649 309.521 285.529 310.901C285.529 311.341 285.919 311.381 285.959 310.901C287.039 299.741 288.219 288.681 289.059 277.491C289.899 266.301 290.629 254.981 291.229 243.711C291.519 238.351 292.089 232.791 291.179 227.461Z" fill="#455A64"/>
<path d="M291.999 316.101C285.469 315.961 287.349 315.911 280.809 315.851C277.609 315.851 256.599 315.631 253.609 316.131C253.549 316.131 253.549 316.251 253.609 316.261C256.609 316.751 277.609 316.571 280.809 316.541C287.349 316.481 285.469 316.421 291.999 316.291C292.014 316.296 292.03 316.298 292.046 316.295C292.062 316.293 292.077 316.287 292.089 316.277C292.102 316.268 292.113 316.256 292.12 316.242C292.127 316.228 292.131 316.212 292.131 316.196C292.131 316.181 292.127 316.165 292.12 316.151C292.113 316.137 292.102 316.125 292.089 316.115C292.077 316.106 292.062 316.1 292.046 316.098C292.03 316.095 292.014 316.096 291.999 316.101Z" fill="#455A64"/>
<path d="M253.249 223.361C241.309 204.931 205.569 152.611 205.569 152.611H229.489L253.249 223.361Z" fill="#2A4693"/>
<path d="M156.269 383.791C158.359 384.441 217.749 383.071 219.979 381.581C220.829 381.021 221.139 372.361 221.199 361.881V361.551C221.199 359.391 226.199 323.091 226.199 323.091L187.379 323.881L182.889 362.011V362.661C182.889 362.661 160.389 373.361 158.109 375.251C155.829 377.141 154.179 383.191 156.269 383.791Z" fill="#DD6A57"/>
<path d="M156.27 383.792C158.36 384.442 217.75 383.072 219.98 381.582C220.83 381.022 221.14 372.362 221.2 361.882V361.552C221.2 361.552 222.07 354.282 222.07 353.972L183.74 354.652L182.88 362.012V362.662C182.88 362.662 160.38 373.362 158.1 375.252C155.82 377.142 154.18 383.192 156.27 383.792Z" fill="#F0E8F7"/>
<path d="M156.27 383.791C158.36 384.441 217.75 383.071 219.98 381.581C220.83 381.021 221.14 372.361 221.2 361.881V361.551L182.88 362.011V362.661C182.88 362.661 160.38 373.361 158.1 375.251C155.82 377.141 154.18 383.191 156.27 383.791Z" fill="#455A64"/>
<path d="M156.89 381.511C166.89 381.041 207.3 380.051 217.22 380.341C217.3 380.341 217.31 380.401 217.22 380.401C207.32 381.091 166.91 381.751 156.89 381.681C156.68 381.681 156.68 381.521 156.89 381.511Z" fill="#263238"/>
<path d="M178.61 362.261C182.54 361.431 187.37 361.931 190.44 364.661C190.56 364.771 190.44 364.941 190.28 364.901C186.488 363.779 182.585 363.071 178.64 362.791C178.605 362.793 178.57 362.788 178.537 362.777C178.504 362.765 178.474 362.747 178.448 362.724C178.422 362.701 178.401 362.673 178.386 362.641C178.371 362.61 178.362 362.576 178.36 362.541C178.358 362.506 178.363 362.472 178.374 362.439C178.386 362.406 178.404 362.375 178.427 362.349C178.45 362.323 178.478 362.302 178.51 362.287C178.541 362.272 178.575 362.263 178.61 362.261Z" fill="#263238"/>
<path d="M175.81 364.041C179.73 363.211 184.56 363.701 187.64 366.441C187.76 366.551 187.64 366.721 187.48 366.681C183.688 365.55 179.786 364.832 175.84 364.541C175.807 364.543 175.774 364.539 175.743 364.528C175.712 364.517 175.683 364.5 175.659 364.479C175.634 364.457 175.614 364.43 175.599 364.401C175.585 364.371 175.577 364.339 175.575 364.306C175.573 364.273 175.577 364.241 175.588 364.209C175.599 364.178 175.615 364.15 175.637 364.125C175.659 364.101 175.686 364.08 175.715 364.066C175.745 364.052 175.777 364.043 175.81 364.041Z" fill="#263238"/>
<path d="M172.999 365.791C176.919 364.961 181.749 365.451 184.829 368.191C184.949 368.301 184.829 368.471 184.659 368.431C180.861 367.307 176.951 366.6 172.999 366.321C172.929 366.321 172.862 366.293 172.812 366.244C172.762 366.194 172.734 366.127 172.734 366.056C172.734 365.986 172.762 365.919 172.812 365.869C172.862 365.819 172.929 365.791 172.999 365.791Z" fill="#263238"/>
<path d="M251.219 152.611C251.219 152.611 245.749 185.951 245.379 187.021C245.379 187.021 243.379 188.021 239.669 189.681L223.469 362.571L180.699 362.791L204.539 152.661L251.219 152.611Z" fill="#263238"/>
<path d="M221.999 354.961C215.459 354.851 217.339 354.791 210.799 354.761C207.609 354.761 186.589 354.651 183.609 355.151C183.591 355.151 183.573 355.159 183.56 355.172C183.546 355.185 183.539 355.203 183.539 355.221C183.539 355.24 183.546 355.258 183.56 355.271C183.573 355.284 183.591 355.291 183.609 355.291C186.609 355.771 207.609 355.501 210.809 355.451C217.339 355.361 215.459 355.321 221.999 355.151C222.019 355.145 222.036 355.132 222.049 355.115C222.061 355.098 222.068 355.077 222.068 355.056C222.068 355.035 222.061 355.015 222.049 354.998C222.036 354.981 222.019 354.968 221.999 354.961Z" fill="#455A64"/>
<path d="M214.209 176.791C212.549 200.601 211.839 211.221 209.889 235.021C207.939 258.821 205.619 282.751 202.739 306.541C201.129 319.831 199.379 338.541 197.449 351.791C197.449 351.881 197.579 351.911 197.589 351.791C201.589 328.251 204.389 299.061 206.799 275.321C209.209 251.581 211.119 227.771 212.799 203.961C213.799 190.491 213.599 190.221 214.499 176.751C214.519 176.611 214.229 176.621 214.209 176.791Z" fill="#455A64"/>
<path d="M247.15 185.992C242.899 187.768 238.811 189.91 234.93 192.392C234.77 192.492 234.93 192.732 235.05 192.652C239.18 190.652 243.39 188.712 247.4 186.482C247.451 186.442 247.487 186.385 247.501 186.321C247.515 186.258 247.507 186.191 247.477 186.133C247.448 186.075 247.399 186.029 247.339 186.003C247.279 185.978 247.212 185.973 247.15 185.992Z" fill="#455A64"/>
<path d="M245.58 166.891C244.91 170.891 244.53 174.891 244.08 178.951C243.98 179.951 243.86 180.881 243.76 181.841C243.732 182.732 243.492 183.603 243.06 184.381C242.2 185.731 240.64 186.381 239.24 186.971C239.07 187.041 239.14 187.301 239.32 187.241C240.833 186.88 242.23 186.141 243.38 185.091C244.67 183.741 244.63 181.681 244.82 179.941C245.386 175.63 245.7 171.289 245.76 166.941C245.76 166.791 245.6 166.791 245.58 166.891Z" fill="#455A64"/>
<path d="M240.729 168.111C240.589 170.991 240.269 173.861 240.029 176.731C239.909 178.141 239.809 179.561 239.719 180.981C239.629 182.401 239.469 183.901 239.509 185.341C239.509 185.441 239.669 185.461 239.689 185.341C239.919 183.971 239.959 182.551 240.069 181.171C240.179 179.791 240.289 178.271 240.369 176.811C240.529 173.911 240.609 170.991 240.869 168.091C240.879 168.021 240.729 168.021 240.729 168.111Z" fill="#455A64"/>
<path d="M265.41 170.521L247.88 172.791L221.56 176.131L201.56 178.671L204.51 152.671H251.19C251.19 152.671 257.36 160.031 265.41 170.521Z" fill="#263238"/>
<path d="M217.57 106.961C199.67 111.061 175.57 108.701 169.47 101.161C163.79 94.1014 163.75 62.4314 168.95 47.6114C170.08 44.3814 193.95 52.1714 193.29 55.7714C191.72 64.1914 188.91 83.2014 191.53 86.4614C193.86 89.3614 207.81 93.2114 220.75 95.9414C236.47 99.2514 224.7 105.331 217.57 106.961Z" fill="#DD6A57"/>
<path d="M171.55 35.4514C168.8 40.4514 167.2 52.9314 167.97 56.0814C168.74 59.2314 189.83 62.6714 192.27 60.3914C194.71 58.1114 202.64 40.5114 201.63 34.7914C200.62 29.0714 174.39 30.2514 171.55 35.4514Z" fill="#DD6A57"/>
<path d="M201.41 43.9113C198.79 45.4313 198.49 41.4713 198.49 41.4713C198.49 41.4713 197.49 47.2813 194.23 47.8013C190.97 48.3213 190.86 43.5013 190.84 43.1613C190.79 43.4613 189.77 48.7713 186.39 48.9613C183.01 49.1513 183.52 44.3013 183.56 43.9613C183.42 44.2313 181.5 47.8213 178.9 47.3713C174.43 46.6113 179.1 37.3013 177.8 33.8713C177.8 33.8713 171.73 35.4113 171.55 35.4213C171.55 35.4213 175.81 26.4713 180.55 24.9713C181.234 24.7456 181.976 24.7592 182.651 25.0099C183.327 25.2607 183.898 25.7336 184.27 26.3513C184.27 26.3513 185.32 23.3513 187.98 23.0813C189.34 22.9713 190.74 25.0813 190.74 25.0813C191.014 24.4181 191.461 23.8407 192.034 23.4096C192.608 22.9786 193.287 22.7097 194 22.6313C195.9 22.5813 197 24.6313 197 24.6313C197 24.6313 199 22.7513 200.93 23.3313C204.91 24.5213 207 40.6513 201.41 43.9113Z" fill="#DD6A57"/>
<path d="M197.27 24.9815C197.27 24.9215 197.33 24.9015 197.35 24.9815C199.433 30.3123 199.845 36.1511 198.53 41.7215C198.53 41.8915 198.18 41.8915 198.19 41.7215C198.7 36.1265 198.39 30.4868 197.27 24.9815Z" fill="#263238"/>
<path d="M190.739 25.0016C190.739 24.9416 190.829 24.9116 190.859 25.0016C193.089 30.8928 193.138 37.387 190.999 43.3116C190.919 43.5216 190.639 43.6216 190.719 43.3816C191.999 39.2816 191.869 30.1316 190.739 25.0016Z" fill="#263238"/>
<path d="M183.25 44.3515C185.25 38.5315 185.25 32.6415 184.35 26.5915C184.35 26.5215 184.45 26.5115 184.48 26.5915C185.72 29.4315 185.9 33.3415 185.78 36.3915C185.719 39.2308 184.919 42.0052 183.46 44.4415C183.4 44.5115 183.21 44.4715 183.25 44.3515Z" fill="#263238"/>
<path d="M198.49 41.4714C198.21 42.5693 197.825 43.6376 197.34 44.6614C196.915 45.6786 196.224 46.5628 195.34 47.2214C194.923 47.5026 194.416 47.6169 193.92 47.5414C193.415 47.4677 192.938 47.2606 192.54 46.9414C192.167 46.5963 191.871 46.1767 191.671 45.7098C191.472 45.2429 191.372 44.7392 191.38 44.2314L191.33 41.7914L190.52 44.1514C190.172 45.184 189.658 46.1533 189 47.0214C188.713 47.4461 188.341 47.806 187.907 48.0781C187.473 48.3503 186.987 48.5285 186.48 48.6014C186.008 48.6599 185.53 48.5548 185.126 48.3037C184.722 48.0526 184.416 47.6706 184.26 47.2214C183.923 46.2098 183.851 45.1289 184.05 44.0814L184.51 41.1714L183.12 43.7914C182.741 44.5154 182.27 45.1876 181.72 45.7914C181.222 46.3869 180.556 46.819 179.81 47.0314C179.472 47.1135 179.118 47.0999 178.788 46.9921C178.458 46.8844 178.164 46.6868 177.94 46.4214C177.523 45.7493 177.308 44.972 177.32 44.1814C177.324 42.4766 177.461 40.7748 177.73 39.0914C177.83 38.2414 177.94 37.3814 178 36.5214C178.114 35.6569 178.046 34.7779 177.8 33.9414C177.96 34.7839 177.96 35.6489 177.8 36.4914C177.67 37.3414 177.5 38.1814 177.33 39.0214C176.937 40.7225 176.706 42.4569 176.64 44.2014C176.589 45.1455 176.815 46.0838 177.29 46.9014C177.6 47.3131 178.023 47.6264 178.507 47.8038C178.992 47.9812 179.517 48.0151 180.02 47.9014C180.951 47.6612 181.79 47.1495 182.43 46.4314C183.056 45.7706 183.594 45.031 184.03 44.2314L183.11 43.9114C182.852 45.1477 182.921 46.4298 183.31 47.6314C183.551 48.2879 184.01 48.842 184.61 49.2014C185.218 49.5422 185.917 49.6855 186.61 49.6114C187.253 49.5231 187.87 49.2992 188.42 48.9544C188.97 48.6096 189.44 48.1518 189.8 47.6114C190.518 46.6321 191.068 45.5407 191.43 44.3814L190.56 44.2514C190.575 44.882 190.727 45.5019 191.005 46.0682C191.283 46.6345 191.68 47.1337 192.17 47.5314C192.686 47.8986 193.289 48.1229 193.92 48.1814C194.56 48.2464 195.201 48.0718 195.72 47.6914C196.645 46.9358 197.339 45.934 197.72 44.8014C198.1 43.7238 198.359 42.6068 198.49 41.4714Z" fill="#263238"/>
<path d="M194.149 57.6316C194.149 57.6316 213.239 42.6316 203.719 38.0516C200.899 36.6916 187.66 34.4616 187.16 37.1116C186.51 40.5316 191.869 42.4916 195.419 43.1916C195.419 43.1916 188.21 47.3716 189.63 53.2616C189.905 54.3368 190.473 55.3146 191.271 56.086C192.069 56.8575 193.066 57.3926 194.149 57.6316Z" fill="#DD6A57"/>
<path d="M204.489 38.4813C203.447 37.8135 202.311 37.3046 201.119 36.9713C199.934 36.6011 198.724 36.3137 197.499 36.1113C195.055 35.6582 192.575 35.4206 190.089 35.4013C189.413 35.3904 188.739 35.4814 188.089 35.6713C187.719 35.7714 187.376 35.9563 187.089 36.2113C186.929 36.3444 186.797 36.5074 186.699 36.6913C186.596 36.8709 186.525 37.0672 186.489 37.2713C186.361 38.0063 186.503 38.7628 186.889 39.4013C187.25 39.9782 187.706 40.4889 188.239 40.9113C189.263 41.6897 190.413 42.2852 191.639 42.6713C192.827 43.0768 194.044 43.3911 195.279 43.6113L195.149 42.8113C194.382 43.326 193.663 43.9083 192.999 44.5513C192.303 45.1925 191.673 45.9028 191.119 46.6713C190.578 47.4431 190.151 48.2883 189.849 49.1813C189.551 50.0692 189.429 51.0066 189.489 51.9413C189.554 51.0285 189.77 50.1329 190.129 49.2913C190.499 48.4633 190.981 47.6895 191.559 46.9913C192.123 46.2891 192.76 45.6488 193.459 45.0813C194.146 44.5085 194.886 44.0029 195.669 43.5713L196.669 43.0413L195.509 42.7913C194.318 42.5386 193.145 42.2044 191.999 41.7913C190.917 41.392 189.905 40.8251 188.999 40.1113C188.557 39.8307 188.197 39.4394 187.953 38.9763C187.709 38.5132 187.591 37.9943 187.609 37.4713C187.699 36.6413 189.029 36.4713 190.179 36.3713C191.329 36.2713 192.589 36.3713 193.809 36.4413C195.029 36.5113 196.249 36.6013 197.459 36.7513C199.878 36.9596 202.25 37.5432 204.489 38.4813Z" fill="#263238"/>
<path d="M223.439 96.4015C215.729 93.9815 194.309 90.1715 192.439 85.9515C190.569 81.7315 193.439 60.9515 193.439 60.9515L162.499 56.7915C162.499 56.7915 159.569 92.1115 169.169 102.612C178.769 113.112 205.009 110.922 215.279 108.712C225.549 106.502 236.269 100.442 223.439 96.4015Z" fill="#8098DB"/>
<path d="M162.499 56.7915C162.499 56.7915 159.569 92.1215 169.169 102.612C169.591 103.08 170.049 103.515 170.539 103.912C181.049 112.912 208.679 113.082 218.539 110.972C225.109 109.552 228.619 104.342 229.279 101.322C229.669 99.6215 228.099 97.9115 223.469 96.4515C215.759 94.0415 194.339 90.2215 192.469 86.0015C190.599 81.7815 193.469 61.0015 193.469 61.0015L162.499 56.7915Z" fill="#8098DB"/>
<g opacity="0.1">
<path d="M228.479 99.0016V103.352C228.107 104.092 227.665 104.795 227.159 105.452C226.941 105.744 226.707 106.024 226.459 106.292V97.6016C227.21 97.9454 227.893 98.4194 228.479 99.0016Z" fill="black"/>
<path d="M223.159 96.3318V109.062C222.879 109.242 222.589 109.402 222.289 109.562V96.0718L223.159 96.3318Z" fill="black"/>
<path d="M218.999 95.1916V110.792L218.52 110.902C218.05 111.002 217.519 111.102 216.979 111.192V94.6816L218.999 95.1916Z" fill="black"/>
<path d="M213.68 93.8814V111.641H213.58L212.81 111.711V93.7114L213.68 93.8814Z" fill="black"/>
<path d="M209.509 92.8418V111.932C208.849 111.932 208.179 111.982 207.509 111.992V92.3218L208.869 92.6718L209.509 92.8418Z" fill="black"/>
<path d="M204.199 91.4214V112.021C203.909 112.021 203.619 112.021 203.329 112.021V91.1714L204.199 91.4214Z" fill="black"/>
<path d="M199.999 90.1516V111.922C199.329 111.922 198.659 111.862 197.999 111.812V89.4316C198.649 89.6716 199.319 89.9116 199.999 90.1516Z" fill="black"/>
<path d="M193.839 87.4214C194.118 87.6149 194.409 87.7919 194.709 87.9514V111.551L193.839 111.461V87.4214Z" fill="black"/>
<path d="M190.549 60.5715V111.052C189.869 110.962 189.199 110.852 188.549 110.742V60.2915L190.549 60.5715Z" fill="black"/>
<path d="M185.229 59.8417V110.112L184.359 109.912V59.7217L185.229 59.8417Z" fill="black"/>
<path d="M181.069 59.2715V109.051C180.379 108.851 179.709 108.631 179.069 108.401V59.0015L181.069 59.2715Z" fill="black"/>
<path d="M175.749 58.5516V107.082C175.449 106.952 175.159 106.812 174.879 106.672V58.4316L175.749 58.5516Z" fill="black"/>
<path d="M171.579 57.9817V104.672C171.219 104.422 170.869 104.142 170.579 103.862C170.225 103.586 169.89 103.285 169.579 102.962V57.7017L171.579 57.9817Z" fill="black"/>
<path d="M166.269 57.2516V97.9116C166.119 97.5616 165.969 97.2116 165.829 96.8416C165.689 96.4716 165.599 96.2616 165.509 95.9716C165.464 95.8716 165.427 95.7679 165.399 95.6616V57.1416L166.269 57.2516Z" fill="black"/>
<path d="M162.099 66.2017V71.4117C162.099 70.4117 162.099 69.3617 162.099 68.4117C162.099 68.1217 162.099 67.8317 162.099 67.5417C162.089 67.0717 162.089 66.6317 162.099 66.2017Z" fill="black"/>
</g>
<g opacity="0.1">
<path d="M222.169 109.621C221.16 110.129 220.097 110.522 218.999 110.791L218.519 110.901C218.049 111.001 217.519 111.101 216.979 111.191C215.979 111.351 214.889 111.491 213.689 111.611H195.689L194.689 111.521L193.819 111.431C192.719 111.321 191.619 111.181 190.529 111.021C189.849 110.931 189.179 110.821 188.529 110.711C187.409 110.525 186.309 110.315 185.229 110.081L184.359 109.881L183.159 109.591L222.169 109.621Z" fill="black"/>
<path d="M227.159 105.451C226.94 105.743 226.707 106.024 226.459 106.291H174.209C173.689 106.011 173.209 105.731 172.719 105.421L227.159 105.451Z" fill="black"/>
<path d="M229.249 101.271C229.186 101.571 229.099 101.865 228.989 102.151H168.819C168.291 101.527 167.819 100.858 167.409 100.151H229.209C229.323 100.514 229.337 100.901 229.249 101.271Z" fill="black"/>
<path d="M223.439 96.4117C223.879 96.5517 224.299 96.6917 224.689 96.8417H165.829C165.709 96.5517 165.599 96.2617 165.509 95.9717H221.999L222.339 96.0717L223.209 96.3317L223.439 96.4117Z" fill="black"/>
<path d="M208.849 92.6714H164.499C164.319 92.0114 164.159 91.3314 164.009 90.6714H201.589C202.149 90.8514 202.729 91.0214 203.329 91.1914L204.199 91.4414C205.279 91.7514 206.379 92.0514 207.489 92.3414L208.849 92.6714Z" fill="black"/>
<path d="M193.749 87.3617H163.379C163.379 87.0717 163.289 86.7817 163.249 86.4917H192.749C193.044 86.8232 193.38 87.1155 193.749 87.3617Z" fill="black"/>
<path d="M191.849 83.1914H162.849C162.779 82.5214 162.709 81.8514 162.649 81.1914H191.799C191.769 81.9014 191.799 82.5714 191.849 83.1914Z" fill="black"/>
<path d="M191.839 77.0015C191.839 77.2915 191.839 77.5815 191.839 77.8715H162.349C162.349 77.5815 162.349 77.2915 162.349 77.0015H191.839Z" fill="black"/>
<path d="M192.209 71.6914C192.149 72.3614 192.089 73.0314 192.039 73.6914H162.159C162.159 73.0114 162.159 72.3314 162.159 71.6914H192.209Z" fill="black"/>
<path d="M192.609 67.5215C192.609 67.8015 192.559 68.0915 192.529 68.3915H162.079C162.079 68.1015 162.079 67.8115 162.079 67.5215H192.609Z" fill="black"/>
<path d="M193.259 62.2114C193.179 62.7414 193.089 63.4314 192.989 64.2114H162.139C162.139 63.5014 162.139 62.8214 162.199 62.2114H193.259Z" fill="black"/>
<path d="M178.399 58.9115H162.399C162.399 58.5915 162.399 58.2915 162.399 58.0415H171.999L174.849 58.4315L175.719 58.5515L178.399 58.9115Z" fill="black"/>
</g>
<path d="M164.72 63.3613C165.84 63.3613 166.95 63.5613 168.06 63.6613C169.17 63.7613 170.28 63.9113 171.38 64.0613C173.506 64.3547 175.633 64.668 177.76 65.0013L184.13 66.0013C186.33 66.3513 188.58 66.5913 190.74 67.1213C190.752 67.1168 190.765 67.1153 190.778 67.117C190.791 67.1186 190.803 67.1233 190.813 67.1307C190.824 67.138 190.833 67.1478 190.839 67.1593C190.845 67.1707 190.848 67.1834 190.848 67.1963C190.848 67.2092 190.845 67.2219 190.839 67.2334C190.833 67.2448 190.824 67.2546 190.813 67.262C190.803 67.2694 190.791 67.2741 190.778 67.2757C190.765 67.2773 190.752 67.2758 190.74 67.2713C188.52 67.1613 186.29 66.7613 184.09 66.4713C181.89 66.1813 179.75 65.9113 177.58 65.6113C175.41 65.3113 173.24 65.0213 171.07 64.6813C170.01 64.5213 168.95 64.3413 167.9 64.1313C166.85 63.9213 165.74 63.8113 164.71 63.5013C164.6 63.4713 164.65 63.3613 164.72 63.3613Z" fill="#263238"/>
<path d="M238.569 106.441C248.619 121.811 267.639 136.851 277.239 135.631C286.239 134.481 308.239 111.701 314.759 97.4213C316.189 94.3113 293.589 83.3613 291.579 86.4213C286.859 93.5713 275.699 109.221 271.579 109.751C267.889 110.221 255.169 103.311 243.959 96.3013C230.309 87.7913 234.569 100.311 238.569 106.441Z" fill="#DD6A57"/>
<path d="M313 99.4612C310.44 101.461 291.87 91.0312 291.38 87.7412C291.321 86.6313 291.408 85.5184 291.64 84.4312C290.677 79.9267 289.059 75.5874 286.84 71.5512C284.04 66.8312 279.33 60.1412 281.84 58.5512C285.45 56.2012 292.42 63.9412 296.15 68.6312C297.37 65.6312 298.71 63.1312 300.02 61.9712C304.37 58.1212 324.02 75.3612 323.02 81.1812C322.05 86.7912 315.57 97.4812 313 99.4612Z" fill="#DD6A57"/>
<path d="M273.849 21.2422L272.475 22.0806L370.207 182.318L371.581 181.479L273.849 21.2422Z" fill="#263238"/>
<path d="M294.5 69.2314C295.6 72.0414 298.28 69.1314 298.28 69.1314C298.28 69.1314 295.42 74.2514 297.68 76.7114C299.94 79.1714 302.98 75.4514 303.2 75.2014C303.06 75.4714 300.55 80.2014 303.07 82.4814C305.59 84.7614 308.2 80.6314 308.36 80.3614C308.3 80.6614 307.58 84.6514 309.88 85.9214C313.83 88.0914 315.97 77.9214 319.11 76.0714C319.11 76.0714 322.88 81.0714 323.02 81.1614C323.16 81.2514 325.26 71.5414 322.5 67.4414C322.108 66.8399 321.523 66.39 320.841 66.1663C320.159 65.9427 319.422 65.9586 318.75 66.2114C318.75 66.2114 319.81 63.2114 317.88 61.3614C316.88 60.4314 314.51 61.1814 314.51 61.1814C314.715 60.4814 314.724 59.7387 314.537 59.0337C314.351 58.3287 313.975 57.6882 313.45 57.1814C312 55.9614 309.84 56.9114 309.84 56.9114C309.84 56.9114 309.46 54.2214 307.58 53.4614C303.79 51.9414 292.15 63.2014 294.5 69.2314Z" fill="#DD6A57"/>
<path d="M309.469 57.0416C309.469 57.0416 309.469 56.9416 309.469 56.9616C304.535 59.8237 300.59 64.1212 298.159 69.2816C298.089 69.4416 298.319 69.6316 298.439 69.4616C301.498 64.8112 305.213 60.6279 309.469 57.0416Z" fill="#263238"/>
<path d="M314.549 61.1016C314.599 61.1016 314.549 60.9817 314.469 61.0117C309.077 64.2279 305.009 69.2633 302.999 75.2116C302.939 75.4216 303.089 75.6717 303.179 75.4417C304.709 71.4617 310.489 64.4116 314.549 61.1016Z" fill="#263238"/>
<path d="M308.379 80.7915C310.379 74.9915 314.089 70.4215 318.539 66.2715C318.599 66.2715 318.539 66.1415 318.459 66.1815C315.719 67.6115 313.159 70.5515 311.359 73.0115C309.63 75.278 308.533 77.9626 308.179 80.7915C308.159 80.8715 308.329 80.9515 308.379 80.7915Z" fill="#263238"/>
<path d="M298.18 69.1616C298.09 69.3516 298.48 69.2616 298.4 69.4616C298.06 70.3116 296.45 75.5916 298.07 76.7016C299.38 77.5816 301.48 76.4416 302.07 75.7016L303.7 73.7916L302.87 76.1316C302.485 77.163 302.276 78.2513 302.25 79.3516C302.208 79.8611 302.275 80.3737 302.447 80.855C302.62 81.3362 302.893 81.7749 303.25 82.1416C303.581 82.4809 304.018 82.6974 304.489 82.7555C304.959 82.8137 305.436 82.71 305.84 82.4616C306.727 81.8744 307.453 81.0731 307.95 80.1316L309.4 77.5816L308.86 80.4516C308.713 81.2527 308.666 82.0689 308.72 82.8816C308.747 83.6527 308.997 84.3994 309.44 85.0316C309.653 85.3042 309.939 85.5122 310.263 85.6323C310.588 85.7523 310.94 85.7798 311.28 85.7116C312.02 85.4451 312.668 84.9734 313.15 84.3516C314.207 83.0202 315.16 81.6094 316 80.1316C316.45 79.4016 316.9 78.6716 317.39 77.9516C317.832 77.2069 318.429 76.5658 319.14 76.0716C318.5 76.6328 317.973 77.3118 317.59 78.0716C317.16 78.8116 316.77 79.5716 316.38 80.3416C315.627 81.9081 314.729 83.4012 313.7 84.8016C313.153 85.5674 312.396 86.1579 311.52 86.5016C311.021 86.6353 310.494 86.6204 310.004 86.4587C309.514 86.297 309.081 85.9957 308.76 85.5916C308.171 84.8308 307.823 83.9116 307.76 82.9516C307.685 82.0502 307.725 81.1429 307.88 80.2516L308.8 80.5716C308.23 81.6928 307.379 82.6472 306.33 83.3416C305.735 83.7171 305.025 83.8662 304.33 83.7616C303.655 83.6525 303.03 83.3383 302.54 82.8616C302.09 82.3952 301.746 81.8379 301.531 81.2272C301.315 80.6165 301.233 79.9667 301.29 79.3216C301.334 78.1143 301.574 76.9221 302 75.7916L302.76 76.2316C301.92 77.1616 299.76 78.6916 297.52 77.5716C294.91 75.7016 297.61 70.1416 298.18 69.1616Z" fill="#263238"/>
<path d="M298.279 69.1313C297.779 69.4989 297.226 69.7888 296.639 69.9913C296.404 70.0751 296.15 70.0951 295.904 70.0495C295.659 70.0038 295.429 69.8941 295.239 69.7313C294.881 69.3101 294.645 68.7979 294.559 68.2513C294.449 67.6613 294.349 67.0213 294.289 66.3613C294.018 66.9923 293.889 67.6749 293.909 68.3613C293.89 69.1019 294.163 69.8204 294.669 70.3613C294.978 70.6302 295.362 70.7977 295.769 70.8413C296.154 70.87 296.538 70.7903 296.879 70.6113C297.49 70.278 297.98 69.76 298.279 69.1313Z" fill="#263238"/>
<path d="M241.669 94.7915C248.899 98.3915 266.979 110.512 271.269 108.792C275.559 107.072 287.879 90.0815 287.879 90.0815L313.069 108.492C313.069 108.492 290.679 135.972 276.479 136.862C262.279 137.752 244.909 117.972 238.999 109.252C233.089 100.532 229.629 88.7915 241.669 94.7915Z" fill="#8098DB"/>
<g opacity="0.1">
<path d="M313.069 108.471C313.069 108.471 312.729 108.891 312.069 109.621L311.749 110.001V107.531L313.069 108.471Z" fill="black"/>
<path d="M308.5 105.131V113.721L307.63 114.671V104.491L308.5 105.131Z" fill="black"/>
<path d="M304.33 102.081V118.151L303.39 119.101C303.043 119.461 302.683 119.821 302.31 120.181V100.611L304.33 102.081Z" fill="black"/>
<path d="M299 98.2013V123.331L298.13 124.131V97.5713L299 98.2013Z" fill="black"/>
<path d="M294.849 95.1511V127.021L292.929 128.581C292.892 128.602 292.858 128.629 292.829 128.661V93.6611L294.849 95.1511Z" fill="black"/>
<path d="M288.689 90.6514H288.659V90.6313L288.689 90.6514Z" fill="black"/>
<path d="M289.529 92.6714V131.121L288.659 131.711V92.7114L289.529 92.6714Z" fill="black"/>
<path d="M285.37 93.4312V133.791L285.11 133.941C284.55 134.248 283.99 134.538 283.43 134.811H283.35V95.9712H283.42L285.37 93.4312Z" fill="black"/>
<path d="M280.05 100.161V136.161C279.76 136.261 279.47 136.341 279.18 136.411V101.201L280.05 100.161Z" fill="black"/>
<path d="M275.89 104.901V136.901C275.222 136.919 274.554 136.892 273.89 136.821V106.901L274.51 106.321L275.38 105.451L275.89 104.901Z" fill="black"/>
<path d="M270.569 108.921V136.141C270.279 136.071 269.989 135.981 269.699 135.881V108.881C269.987 108.924 270.279 108.937 270.569 108.921Z" fill="black"/>
<path d="M266.4 108.011V134.591C265.93 134.371 265.47 134.141 265 133.901L264.38 133.571V107.191C265.09 107.501 265.76 107.791 266.4 108.011Z" fill="black"/>
<path d="M261.09 105.621V131.621L260.22 131.031V105.171L260.76 105.451L261.09 105.621Z" fill="black"/>
<path d="M256.92 103.401V128.551C256.24 128.011 255.56 127.451 254.92 126.881V102.261C255.57 102.651 256.25 103.031 256.92 103.401Z" fill="black"/>
<path d="M251.609 100.381V123.911L250.739 123.071V99.8711L251.179 100.131L251.609 100.381Z" fill="black"/>
<path d="M247.44 97.9615V119.672L246.92 119.102C246.4 118.542 245.92 117.982 245.42 117.432V96.7915H245.51L247.44 97.9615Z" fill="black"/>
<path d="M242.119 94.9915V113.442C241.809 113.062 241.519 112.682 241.249 112.322V94.5615L241.669 94.7615L242.119 94.9915Z" fill="black"/>
<path d="M237.999 93.3416V107.572C237.749 107.162 237.499 106.742 237.259 106.322L236.779 105.452C236.499 104.932 236.229 104.452 235.979 103.892V93.1616C236.658 93.0963 237.343 93.1573 237.999 93.3416Z" fill="black"/>
</g>
<g opacity="0.1">
<path d="M285.109 133.901C284.549 134.208 283.989 134.498 283.429 134.771H266.789L266.399 134.591C265.929 134.371 265.469 134.141 264.999 133.901H285.109Z" fill="black"/>
<path d="M292.929 128.582C292.891 128.603 292.858 128.63 292.829 128.662C291.979 129.332 291.119 129.982 290.259 130.602H259.649C258.739 129.962 257.839 129.282 256.959 128.602L292.929 128.582Z" fill="black"/>
<path d="M297.839 124.412L296.839 125.282H253.089L252.149 124.412H297.839Z" fill="black"/>
<path d="M303.389 119.102C303.042 119.462 302.682 119.822 302.309 120.182L301.309 121.122H248.809C248.339 120.642 247.889 120.122 247.439 119.672L246.919 119.102H303.389Z" fill="black"/>
<path d="M307.389 114.932L306.569 115.802H243.999C243.749 115.512 243.509 115.212 243.279 114.932H307.389Z" fill="black"/>
<path d="M312.109 109.622L311.789 110.002L310.359 111.642H240.739C240.199 110.922 239.739 110.242 239.289 109.642L312.109 109.622Z" fill="black"/>
<path d="M262.509 106.321H237.219L236.739 105.451H260.739L261.069 105.621L262.509 106.321Z" fill="black"/>
<path d="M310.129 106.321H274.489L275.359 105.451H308.939L310.129 106.321Z" fill="black"/>
<path d="M254.699 102.151H235.149C234.861 101.498 234.607 100.831 234.389 100.151H251.179L251.609 100.401L254.699 102.151Z" fill="black"/>
<path d="M304.419 102.151H278.419L279.219 101.151L280.089 100.151H301.699L302.349 100.631L304.349 102.101L304.419 102.151Z" fill="black"/>
<path d="M245.509 96.8412H233.659C233.634 96.5517 233.634 96.2607 233.659 95.9712H243.959C244.429 96.2212 244.959 96.5012 245.439 96.7912L245.509 96.8412Z" fill="black"/>
<path d="M297.159 96.8412H282.729L283.349 96.0612V95.9712H295.999L297.159 96.8412Z" fill="black"/>
<path d="M288.659 90.6514V92.6514H285.939C286.599 91.7814 287.109 91.0814 287.449 90.6514H288.659Z" fill="black"/>
</g>
<path d="M306.879 111.691C306.079 110.921 305.139 110.301 304.269 109.601C303.399 108.901 302.499 108.241 301.599 107.601C299.869 106.331 298.109 105.081 296.349 103.851L291.069 100.151C289.249 98.8813 287.449 97.4913 285.529 96.3713C285.512 96.363 285.492 96.3611 285.474 96.3659C285.455 96.3708 285.439 96.382 285.428 96.3977C285.417 96.4134 285.413 96.4325 285.414 96.4515C285.416 96.4705 285.425 96.4882 285.439 96.5013C287.119 97.9613 288.999 99.2113 290.779 100.501L296.069 104.401C297.839 105.701 299.609 106.981 301.399 108.251C302.279 108.871 303.169 109.471 304.069 110.061C304.969 110.651 305.849 111.321 306.809 111.811C306.889 111.861 306.939 111.791 306.879 111.691Z" fill="#263238"/>
<path d="M264.449 133.601C253.659 127.771 243.299 115.601 239.029 109.251C235.279 103.671 232.489 96.8613 234.109 94.2513C234.759 93.1713 236.109 92.7913 238.539 93.5013L264.449 133.601Z" fill="#263238"/>
<path d="M263.129 167.031C262.269 168.111 201.129 172.541 200.819 172.181C199.899 171.231 209.959 107.681 222.709 95.8415C225.459 93.3015 236.639 92.8415 238.219 93.3515C239.999 93.8915 245.499 101.851 248.219 108.461C253.669 121.691 263.869 166.071 263.129 167.031Z" fill="#8098DB"/>
<g opacity="0.1">
<path d="M261.089 155.652V167.462L260.219 167.581V151.792C260.299 152.162 260.389 152.532 260.469 152.892C260.549 153.252 260.599 153.482 260.659 153.762C260.809 154.392 260.999 155.032 261.089 155.652Z" fill="black"/>
<path d="M256.099 134.791C256.379 135.861 256.649 136.941 256.919 138.011V168.011L254.919 168.221V130.221C254.919 130.361 254.999 130.511 255.029 130.651C255.322 131.738 255.612 132.838 255.899 133.951C255.999 134.191 255.999 134.481 256.099 134.791Z" fill="black"/>
<path d="M250.789 115.791C251.059 116.641 251.339 117.531 251.609 118.451V168.451L251.059 168.501H250.739V115.631C250.761 115.683 250.778 115.736 250.789 115.791Z" fill="black"/>
<path d="M247.439 106.702V168.862L245.439 169.032V102.792C245.939 103.672 246.439 104.572 246.859 105.462C247.006 105.755 247.146 106.045 247.279 106.332C247.34 106.451 247.394 106.575 247.439 106.702Z" fill="black"/>
<path d="M241.609 96.8416C241.779 97.0716 241.949 97.3016 242.119 97.5516V169.322L241.249 169.392V96.3916L241.609 96.8416Z" fill="black"/>
<path d="M237.999 93.3014V169.661L235.999 169.821V93.1714C236.668 93.1592 237.337 93.2027 237.999 93.3014Z" fill="black"/>
<path d="M232.64 93.3013V170.081L231.77 170.151V93.3713L232.64 93.3013Z" fill="black"/>
<path d="M228.479 93.7915V170.402L226.479 170.551V94.2115C227.099 94.0515 227.779 93.9115 228.479 93.7915Z" fill="black"/>
<path d="M223.159 95.4912V170.791L222.289 170.851V96.2512C222.381 96.1497 222.478 96.0529 222.579 95.9612C222.62 95.9154 222.663 95.872 222.709 95.8312C222.849 95.7054 223 95.5917 223.159 95.4912Z" fill="black"/>
<path d="M218.999 100.792V171.081L216.999 171.221V104.732C217.419 103.822 217.849 102.962 218.269 102.152C218.489 101.692 218.739 101.242 218.999 100.792Z" fill="black"/>
<path d="M213.68 112.921V171.471L212.81 171.531V115.461L212.99 114.931C213.21 114.251 213.44 113.581 213.68 112.921Z" fill="black"/>
<path d="M209.509 126.511V171.791L208.379 171.861L207.489 171.921V133.921H207.619C207.889 132.821 208.159 131.721 208.439 130.621C208.609 129.951 208.779 129.271 208.959 128.621C209.139 127.971 209.319 127.201 209.509 126.511Z" fill="black"/>
<path d="M204.199 149.611V172.071L203.329 172.121V154.121C203.329 153.981 203.329 153.831 203.409 153.681C203.489 153.531 203.519 153.101 203.569 152.811C203.769 151.791 203.999 150.721 204.199 149.611Z" fill="black"/>
</g>
<g opacity="0.1">
<path d="M208.379 171.792L207.489 171.852L204.199 172.042L203.329 172.092C202.495 172.164 201.656 172.184 200.819 172.152C200.819 172.152 200.819 171.992 200.819 171.792H208.379Z" fill="black"/>
<path d="M263.129 167.032C262.487 167.274 261.813 167.418 261.129 167.462L260.259 167.582L256.959 167.962L254.959 168.172L251.669 168.482L251.119 168.532H200.999C201.069 167.922 201.159 167.252 201.269 166.532H263.109C263.158 166.694 263.165 166.866 263.129 167.032Z" fill="black"/>
<path d="M262.639 163.212H201.789C201.789 162.932 201.879 162.642 201.919 162.342H262.479C262.539 162.642 262.599 162.932 262.639 163.212Z" fill="black"/>
<path d="M261.819 159.052H202.459C202.579 158.402 202.689 157.722 202.819 157.052H261.389C261.539 157.732 261.689 158.412 261.819 159.052Z" fill="black"/>
<path d="M260.659 153.732H203.409C203.459 153.452 203.519 153.152 203.569 152.862H260.469C260.539 153.162 260.599 153.452 260.659 153.732Z" fill="black"/>
<path d="M259.719 149.562H204.209C204.339 148.902 204.469 148.222 204.609 147.562H259.239C259.399 148.222 259.559 148.902 259.719 149.562Z" fill="black"/>
<path d="M258.449 144.252H205.289L205.469 143.382H258.249C258.319 143.672 258.389 143.962 258.449 144.252Z" fill="black"/>
<path d="M257.439 140.082H206.189C206.339 139.412 206.489 138.742 206.649 138.082H256.939C257.109 138.792 257.269 139.412 257.439 140.082Z" fill="black"/>
<path d="M256.099 134.792H207.409C207.409 134.682 207.469 134.572 207.489 134.472V133.922H255.879C255.999 134.192 255.999 134.482 256.099 134.792Z" fill="black"/>
<path d="M254.999 130.602H208.439C208.609 129.932 208.779 129.252 208.959 128.602H254.469C254.619 129.122 254.759 129.662 254.899 130.192C254.939 130.312 254.999 130.462 254.999 130.602Z" fill="black"/>
<path d="M253.58 125.282H209.85C209.916 124.988 209.996 124.698 210.09 124.412H253.34C253.41 124.702 253.5 124.992 253.58 125.282Z" fill="black"/>
<path d="M252.399 121.122H210.999C211.199 120.442 211.409 119.762 211.619 119.122H251.779L252.399 121.122Z" fill="black"/>
<path d="M250.789 115.792H212.699C212.73 115.677 212.767 115.563 212.809 115.452L212.989 114.922H250.519C250.589 115.152 250.669 115.382 250.739 115.622C250.762 115.677 250.779 115.734 250.789 115.792Z" fill="black"/>
<path d="M249.42 111.642H214.14C214.39 110.962 214.64 110.282 214.91 109.642H248.68C248.92 110.242 249.16 110.922 249.42 111.642Z" fill="black"/>
<path d="M247.26 106.322H216.26C216.38 106.022 216.51 105.732 216.64 105.452H246.84C246.993 105.745 247.133 106.035 247.26 106.322Z" fill="black"/>
<path d="M245.059 102.152H218.239C218.489 101.692 218.739 101.242 218.989 100.812C219.119 100.582 219.249 100.352 219.389 100.132H243.839C244.249 100.792 244.659 101.462 245.059 102.152Z" fill="black"/>
<path d="M241.609 96.8417H221.749C221.929 96.6317 222.109 96.4417 222.289 96.2617C222.381 96.1601 222.477 96.0633 222.579 95.9717H240.999L241.299 96.3717L241.609 96.8417Z" fill="black"/>
</g>
<path d="M234.449 108.091L236.889 102.951L240.769 106.631L240.169 110.601L236.639 111.311L234.449 108.091Z" fill="#263238"/>
<path d="M236.64 111.312C236.64 111.312 237.81 136.682 247.05 146.812C256.14 156.812 270.4 154.722 270.4 154.722L282.24 149.142L272.47 142.142C272.47 142.142 261.68 142.142 254.81 136.852C247.94 131.562 240.17 110.582 240.17 110.582L236.64 111.312Z" fill="#263238"/>
<path d="M237.589 101.582C234.459 102.972 227.919 99.0117 224.949 95.3717C224.749 95.1217 224.629 92.1217 224.309 88.4717C224.109 86.2617 223.839 83.8017 223.419 81.5817C223.339 81.1217 238.009 82.3717 238.009 82.3717C237.727 85.3037 237.808 88.2593 238.249 91.1717C238.306 91.4763 238.393 91.7744 238.509 92.0617C238.529 92.1106 238.546 92.1607 238.559 92.2117C239.159 93.8917 240.609 100.252 237.589 101.582Z" fill="#DD6A57"/>
<path d="M238.559 92.2112C238.096 92.3629 237.621 92.4766 237.139 92.5513C229.789 93.7913 225.499 85.2812 223.999 81.4912C226.629 81.4012 237.999 82.3713 237.999 82.3713C237.717 85.3033 237.798 88.2589 238.239 91.1712C238.296 91.4759 238.383 91.774 238.499 92.0612C238.522 92.11 238.542 92.1601 238.559 92.2112Z" fill="#263238"/>
<path d="M219 64.5016C218 69.6816 222.32 83.8216 226.25 86.6416C231.93 90.7216 240.42 90.2116 243.68 83.5616C246.85 77.1116 240.94 58.7816 236.68 56.3116C230.24 52.6616 220.36 56.8616 219 64.5016Z" fill="#DD6A57"/>
<path d="M231.89 72.2314C231.89 72.2314 231.83 72.2914 231.89 72.3314C232.2 73.2814 232.4 74.4114 231.63 74.9914C232.62 74.5714 232.34 73.0714 231.89 72.2314Z" fill="#263238"/>
<path d="M230.749 71.4812C229.179 71.8212 229.969 74.9412 231.429 74.6212C232.889 74.3012 232.059 71.2012 230.749 71.4812Z" fill="#263238"/>
<path d="M237.709 70.5615C237.709 70.5615 237.789 70.5615 237.799 70.6215C238.019 71.6215 238.429 72.6215 239.379 72.7715V72.8315C238.289 72.9515 237.759 71.5115 237.709 70.5615Z" fill="#263238"/>
<path d="M238.31 69.3312C239.83 68.8212 240.75 71.9012 239.31 72.3312C237.87 72.7612 237 69.7912 238.31 69.3312Z" fill="#263238"/>
<path d="M229.149 70.3715C229.529 70.1492 229.897 69.9055 230.249 69.6415C230.669 69.3515 231.029 69.1715 231.249 68.6415C231.286 68.4969 231.276 68.3442 231.221 68.2056C231.165 68.0671 231.066 67.95 230.939 67.8715C230.66 67.7614 230.357 67.7265 230.061 67.7704C229.764 67.8142 229.484 67.9353 229.249 68.1215C228.719 68.4334 228.321 68.9275 228.129 69.5115C228.085 69.6477 228.082 69.7941 228.121 69.9319C228.161 70.0696 228.24 70.1925 228.35 70.2849C228.459 70.3772 228.594 70.4348 228.736 70.4502C228.879 70.4656 229.022 70.4383 229.149 70.3715Z" fill="#263238"/>
<path d="M239.109 67.4614C238.673 67.4864 238.236 67.4864 237.799 67.4614C237.333 67.524 236.859 67.4327 236.449 67.2014C236.337 67.1029 236.26 66.9707 236.23 66.8247C236.199 66.6786 236.216 66.5266 236.279 66.3914C236.449 66.1426 236.683 65.9437 236.955 65.8154C237.228 65.687 237.53 65.6339 237.829 65.6614C238.445 65.6281 239.05 65.824 239.529 66.2114C239.633 66.3054 239.707 66.4276 239.742 66.5629C239.777 66.6983 239.772 66.841 239.728 66.9735C239.683 67.1061 239.601 67.2229 239.491 67.3095C239.381 67.3961 239.249 67.4489 239.109 67.4614Z" fill="#263238"/>
<path d="M233.539 81.2015C233.818 81.4388 234.173 81.5667 234.539 81.5615C234.904 81.4682 235.245 81.2977 235.539 81.0615C235.539 81.0615 235.609 81.0615 235.589 81.0615C235.501 81.2864 235.352 81.4827 235.16 81.629C234.968 81.7754 234.739 81.8662 234.499 81.8915C234.285 81.8952 234.075 81.8342 233.897 81.7164C233.718 81.5986 233.58 81.4296 233.499 81.2315C233.499 81.2315 233.499 81.1815 233.539 81.2015Z" fill="#263238"/>
<path d="M233.82 78.0615C234.161 78.3803 234.565 78.6248 235.005 78.7797C235.446 78.9346 235.914 78.9965 236.38 78.9615C236.79 78.9372 237.194 78.853 237.58 78.7115L237.79 78.6315L238 78.5415C238.048 78.5187 238.087 78.4812 238.112 78.4344C238.137 78.3877 238.147 78.3341 238.14 78.2815C238.144 78.2483 238.144 78.2147 238.14 78.1815V78.0915C237.98 77.3415 237.61 76.2315 237.61 76.2315C237.92 76.3015 239.46 76.5715 239.34 76.2315C238.398 72.9045 237.121 69.6814 235.53 66.6115C235.48 66.5215 235.32 66.6115 235.36 66.6815C236.21 69.7615 237.6 72.6815 238.51 75.7515C237.96 75.6471 237.397 75.6201 236.84 75.6715C236.74 75.7315 237.57 77.8115 237.62 78.1515C237.026 78.3663 236.396 78.4601 235.766 78.4275C235.135 78.3949 234.518 78.2364 233.95 77.9615C233.8 77.9115 233.74 78.0015 233.82 78.0615Z" fill="#263238"/>
<path d="M237.05 78.5715C236.751 79.1933 236.296 79.7273 235.73 80.1215C235.417 80.3295 235.045 80.4311 234.67 80.4115C233.85 80.4115 233.67 79.6615 233.67 79.0215C233.682 78.6828 233.735 78.3469 233.83 78.0215C234.815 78.5487 235.945 78.7417 237.05 78.5715Z" fill="#263238"/>
<path d="M235.73 80.1213C235.417 80.3293 235.045 80.4309 234.67 80.4113C233.85 80.4113 233.67 79.6613 233.67 79.0213C234.087 78.9437 234.518 79.0103 234.893 79.2102C235.267 79.4101 235.562 79.7314 235.73 80.1213Z" fill="#F7A9A0"/>
<path d="M240.199 60.6516C236.129 65.6516 227.569 62.4516 227.569 62.4516C227.466 63.6927 226.965 64.8675 226.142 65.8021C225.319 66.7368 224.217 67.3818 222.999 67.6416C222.999 67.6416 224.559 76.5816 222.279 77.2416C218.799 78.2416 214.219 66.7816 214.629 64.1416C215.039 61.5016 217.799 60.0316 217.799 60.0316C217.715 58.5312 218.197 57.0538 219.149 55.8916C220.979 53.3616 229.889 53.3816 229.889 53.3816C230.034 52.146 230.466 50.9612 231.149 49.9216C231.312 49.6658 231.525 49.4457 231.775 49.2745C232.025 49.1034 232.307 48.9848 232.604 48.9259C232.902 48.867 233.208 48.869 233.504 48.9319C233.801 48.9947 234.081 49.1171 234.329 49.2916C234.081 50.0592 234.013 50.8734 234.129 51.6716C234.469 54.3216 236.539 53.6716 235.829 51.4216C235.601 50.5548 235.068 49.7989 234.329 49.2916C234.899 47.4916 236.419 46.5016 237.669 47.0116C239.919 47.9216 243.589 56.4716 240.199 60.6516Z" fill="#263238"/>
<path d="M223.37 75.9214C223.37 75.9214 219.49 71.7014 217.53 73.1514C215.57 74.6014 218.93 81.0214 221.53 81.6114C221.859 81.7097 222.204 81.7405 222.545 81.7021C222.886 81.6636 223.216 81.5567 223.515 81.3877C223.814 81.2187 224.075 80.991 224.284 80.7185C224.493 80.4459 224.644 80.134 224.73 79.8014L223.37 75.9214Z" fill="#DD6A57"/>
<path d="M218.539 74.9713C218.539 74.9713 218.539 74.9712 218.539 75.0312C220.369 75.5012 221.539 77.0313 222.369 78.5813C222.244 78.4206 222.086 78.2889 221.905 78.1953C221.724 78.1016 221.525 78.0482 221.322 78.0387C221.119 78.0292 220.916 78.0638 220.727 78.1402C220.538 78.2166 220.369 78.333 220.229 78.4813C220.229 78.4813 220.229 78.5812 220.289 78.5712C220.581 78.4303 220.91 78.3845 221.229 78.4401C221.548 78.4957 221.842 78.65 222.069 78.8812C222.446 79.2684 222.781 79.6941 223.069 80.1513C223.169 80.3013 223.439 80.1513 223.359 80.0113C223.089 77.7913 220.999 74.8713 218.539 74.9713Z" fill="#263238"/>
<path d="M238.709 92.5814L236.259 101.491L224.439 91.9214L221.829 95.7214C221.829 95.7214 234.149 111.671 234.119 110.891L236.799 103.141L242.449 107.681L240.569 94.8914L238.709 92.5814Z" fill="#8098DB"/>
<path d="M241.879 101.301C241.499 99.2013 241.169 97.0813 240.699 95.0013C240.699 94.9213 240.559 94.9013 240.549 95.0013C240.359 97.0913 241.859 105.111 242.069 107.051C241.829 106.851 236.849 103.051 236.819 103.161C236.189 104.421 234.219 110.061 234.099 110.571C232.099 108.031 224.739 98.8613 222.509 96.5113C222.504 96.5034 222.497 96.4967 222.489 96.4914C222.481 96.4861 222.472 96.4825 222.463 96.4806C222.444 96.4768 222.425 96.4807 222.409 96.4913C222.393 96.5019 222.382 96.5184 222.378 96.5372C222.375 96.5559 222.378 96.5754 222.389 96.5913C224.169 99.3013 233.999 111.671 234.119 111.591C235.189 108.915 236.121 106.184 236.909 103.411C237.769 104.251 242.849 108.561 242.829 108.241C242.632 105.913 242.314 103.597 241.879 101.301Z" fill="#263238"/>
<path d="M323.399 53.4013L305.779 24.5413C306.084 25.0355 306.465 25.4778 306.909 25.8513C307.403 26.2702 307.96 26.6078 308.559 26.8513C313.159 28.7213 321.789 26.6313 334.289 20.6313L351.909 49.4913C339.409 55.4913 330.779 57.5813 326.179 55.7113C325.578 55.4715 325.02 55.1336 324.529 54.7113C324.079 54.3437 323.697 53.9004 323.399 53.4013Z" fill="#8098DB"/>
<g opacity="0.1">
<path d="M323.399 53.4013L305.779 24.5413C306.084 25.0355 306.465 25.4778 306.909 25.8513C307.403 26.2702 307.96 26.6078 308.559 26.8513C313.159 28.7213 321.789 26.6313 334.289 20.6313L351.909 49.4913C339.409 55.4913 330.779 57.5813 326.179 55.7113C325.578 55.4715 325.02 55.1336 324.529 54.7113C324.079 54.3437 323.697 53.9004 323.399 53.4013Z" fill="black"/>
</g>
<path d="M321.499 48.9313C321.92 49.6501 322.255 50.4152 322.499 51.2113C322.728 51.9732 323.04 52.7076 323.429 53.4013L305.779 24.5413C305.389 23.8493 305.08 23.1144 304.859 22.3513C304.605 21.5592 304.27 20.7952 303.859 20.0713L321.499 48.9313Z" fill="#8098DB"/>
<g opacity="0.4">
<path d="M321.499 48.9313C321.92 49.6501 322.255 50.4152 322.499 51.2113C322.728 51.9732 323.04 52.7076 323.429 53.4013L305.779 24.5413C305.389 23.8493 305.08 23.1144 304.859 22.3513C304.605 21.5592 304.27 20.7952 303.859 20.0713L321.499 48.9313Z" fill="black"/>
</g>
<path d="M303.89 20.0714L321.5 48.9314C321.158 48.3644 320.718 47.8631 320.2 47.4514C319.702 47.0648 319.154 46.7485 318.57 46.5114C313.79 44.5814 305.14 46.9014 292.26 53.5814L274.64 24.7214C287.52 18.0414 296.17 15.7214 300.95 17.6614C301.535 17.8946 302.084 18.2112 302.58 18.6014C303.1 19.0098 303.544 19.5075 303.89 20.0714Z" fill="#8098DB"/>
<path d="M281.17 49.1915C280.856 52.2101 279.71 55.082 277.858 57.4865C276.007 59.8911 273.523 61.7336 270.685 62.8083C267.847 63.883 264.766 64.1475 261.786 63.5724C258.806 62.9973 256.045 61.6052 253.81 59.5515L245.62 60.7915L249.72 53.7115C248.687 51.2076 248.298 48.4844 248.59 45.7915C249.087 41.5075 251.253 37.5923 254.618 34.8955C257.984 32.1987 262.277 30.938 266.566 31.3869C270.855 31.8358 274.795 33.9582 277.529 37.2934C280.263 40.6286 281.571 44.9075 281.17 49.2015V49.1915Z" fill="white"/>
<path d="M281.17 49.1913C280.857 52.2094 279.715 55.0819 277.87 57.4913C277.411 58.0931 276.914 58.6644 276.38 59.2013C275.834 59.726 275.256 60.2169 274.65 60.6713C273.445 61.5858 272.115 62.3232 270.7 62.8613C269.286 63.4145 267.802 63.7712 266.29 63.9213C265.535 63.9764 264.776 63.9764 264.02 63.9213C263.258 63.9013 262.499 63.821 261.75 63.6813C258.731 63.128 255.925 61.7427 253.65 59.6813L253.84 59.7413L245.66 61.0013L245.07 61.0913L245.37 60.5713L249.44 53.4713V53.7513C248.48 51.4048 248.071 48.8694 248.245 46.3401C248.418 43.8108 249.169 41.3549 250.44 39.1613C251.703 36.9725 253.454 35.1041 255.556 33.7011C257.658 32.2981 260.054 31.3982 262.56 31.0713C265.039 30.7449 267.559 30.9845 269.932 31.7722C272.304 32.5599 274.467 33.8752 276.259 35.6192C278.05 37.3632 279.422 39.4905 280.273 41.8412C281.124 44.192 281.431 46.705 281.17 49.1913ZM281.17 49.1913C281.43 46.7258 281.12 44.2336 280.265 41.9065C279.411 39.5794 278.034 37.4793 276.24 35.7678C274.446 34.0563 272.284 32.779 269.92 32.0342C267.555 31.2893 265.051 31.0968 262.6 31.4713C260.172 31.831 257.859 32.7445 255.84 34.1413C253.835 35.5445 252.162 37.3709 250.94 39.4913C249.732 41.6106 249.02 43.9768 248.86 46.4113C248.705 48.8465 249.095 51.2856 250 53.5513L250.06 53.7013L250 53.7913L245.88 60.8613L245.59 60.4313L253.79 59.2813H253.9L253.98 59.3613C256.175 61.3913 258.888 62.7756 261.82 63.3613C262.553 63.506 263.295 63.5962 264.04 63.6313C264.786 63.6813 265.534 63.6813 266.28 63.6313C267.78 63.5056 269.255 63.169 270.66 62.6313C272.091 62.1225 273.439 61.4047 274.66 60.5013C275.266 60.0572 275.844 59.5763 276.39 59.0613C276.919 58.5267 277.416 57.9625 277.88 57.3713C279.701 54.9951 280.839 52.1667 281.17 49.1913Z" fill="#263238"/>
<path d="M262.971 56.8315L255.971 49.7515L258.321 47.4315L262.411 51.5615L270.901 38.2515L273.681 40.0315L262.971 56.8315Z" fill="#8098DB"/>
</svg>
