<svg width="537" height="513" viewBox="0 0 537 513" fill="none" xmlns="http://www.w3.org/2000/svg">
<g opacity="0.8" clip-path="url(#clip0_10405_19190)">
<path d="M42.478 298.829C42.478 400.302 101.449 487.995 186.961 529.551L64.6732 194.498C50.4488 226.381 42.478 261.663 42.478 298.829ZM471.902 285.893C471.902 254.21 460.522 232.268 450.761 215.19C437.766 194.073 425.585 176.19 425.585 155.073C425.585 131.507 443.458 109.571 468.634 109.571C469.771 109.571 470.849 109.712 471.956 109.776C426.346 67.9902 365.58 42.4781 298.839 42.4781C209.278 42.4781 130.483 88.4293 84.6439 158.029C90.6585 158.21 96.3268 158.337 101.141 158.337C127.956 158.337 169.463 155.083 169.463 155.083C183.283 154.268 184.912 174.566 171.107 176.2C171.107 176.2 157.219 177.834 141.766 178.644L235.122 456.327L291.224 288.068L251.283 178.634C237.478 177.824 224.4 176.19 224.4 176.19C210.585 175.381 212.205 154.259 226.019 155.073C226.019 155.073 268.356 158.327 293.546 158.327C320.356 158.327 361.868 155.073 361.868 155.073C375.698 154.259 377.322 174.556 363.512 176.19C363.512 176.19 349.595 177.824 334.171 178.634L426.815 454.215L452.385 368.766C463.468 333.307 471.902 307.839 471.902 285.893ZM303.337 321.254L226.419 544.761C249.385 551.512 273.673 555.205 298.839 555.205C328.693 555.205 357.322 550.044 383.971 540.673C383.283 539.576 382.658 538.41 382.146 537.142L303.337 321.254ZM523.785 175.834C524.888 184 525.512 192.766 525.512 202.195C525.512 228.21 520.654 257.454 506.019 294.02L427.712 520.424C503.927 475.981 555.19 393.41 555.19 298.834C555.195 254.263 543.81 212.351 523.785 175.834ZM298.839 0C134.063 0 0 134.054 0 298.829C0 463.624 134.063 597.673 298.839 597.673C463.61 597.673 597.693 463.624 597.693 298.829C597.688 134.054 463.61 0 298.839 0ZM298.839 583.976C141.619 583.976 13.7024 456.059 13.7024 298.829C13.7024 141.61 141.615 13.7024 298.839 13.7024C456.054 13.7024 583.961 141.61 583.961 298.829C583.961 456.059 456.054 583.976 298.839 583.976Z" fill="white"/>
</g>
<defs>
<clipPath id="clip0_10405_19190">
<rect width="600" height="597.656" fill="white"/>
</clipPath>
</defs>
</svg>
