<svg width="80" height="70" viewBox="0 0 80 70" fill="none" xmlns="http://www.w3.org/2000/svg">
<mask id="path-1-inside-1_10134_12934" fill="white">
<path d="M76.9524 27.1318C78.6221 29.9312 79.4569 31.3309 79.7834 32.822C80.0722 34.141 80.0722 35.5058 79.7834 36.8248C79.4569 38.3159 78.6221 39.7156 76.9524 42.515L65.2294 62.17C63.604 64.8951 62.7914 66.2577 61.6634 67.248C60.6652 68.1244 59.4928 68.7857 58.221 69.19C56.7836 69.6468 55.181 69.6468 51.9757 69.6468H28.0243C24.819 69.6468 23.2164 69.6468 21.779 69.19C20.5072 68.7857 19.3348 68.1243 18.3366 67.248C17.2086 66.2577 16.396 64.8951 14.7706 62.17L3.0476 42.515C1.37793 39.7156 0.543101 38.3159 0.216621 36.8248C-0.0722071 35.5057 -0.072207 34.141 0.216621 32.822C0.543102 31.3309 1.37793 29.9312 3.0476 27.1318L14.7706 7.47676C16.396 4.75166 17.2086 3.38911 18.3366 2.39876C19.3348 1.52243 20.5072 0.861041 21.779 0.456818C23.2164 -2.20367e-07 24.819 -1.38052e-07 28.0243 1.51986e-10L51.9757 1.03287e-06C55.181 1.17107e-06 56.7836 1.23405e-06 58.221 0.45682C59.4928 0.861043 60.6652 1.52243 61.6634 2.39876C62.7914 3.38911 63.604 4.75166 65.2294 7.47676L76.9524 27.1318Z"/>
<path d="M3.0476 27.1318C1.37793 29.9312 0.543102 31.3309 0.216621 32.822C-0.072207 34.141 -0.0722071 35.5057 0.216621 36.8248C0.543101 38.3159 1.37793 39.7156 3.0476 42.515L14.7706 62.17C16.396 64.8951 17.2086 66.2577 18.3366 67.248C19.3348 68.1243 20.5072 68.7857 21.779 69.19C23.2164 69.6468 24.819 69.6468 28.0243 69.6468H51.9757C55.181 69.6468 56.7836 69.6468 58.221 69.19C59.4928 68.7857 60.6652 68.1244 61.6634 67.248C62.7914 66.2577 63.604 64.8951 65.2294 62.17L76.9524 42.515C78.6221 39.7156 79.4569 38.3159 79.7834 36.8248C80.0722 35.5058 80.0722 34.141 79.7834 32.822C79.4569 31.3309 78.6221 29.9312 76.9524 27.1318L65.2294 7.47676C63.604 4.75166 62.7914 3.38911 61.6634 2.39876C60.6652 1.52243 59.4928 0.861043 58.221 0.45682C56.7836 1.23405e-06 55.181 1.17107e-06 51.9757 1.03287e-06L28.0243 1.51986e-10C24.819 -1.38052e-07 23.2164 -2.20367e-07 21.779 0.456818C20.5072 0.861041 19.3348 1.52243 18.3366 2.39876C17.2086 3.38911 16.396 4.75166 14.7706 7.47676L3.0476 27.1318Z"/>
<path d="M76.9524 27.1318C78.6221 29.9312 79.4569 31.3309 79.7834 32.822C80.0722 34.141 80.0722 35.5058 79.7834 36.8248C79.4569 38.3159 78.6221 39.7156 76.9524 42.515L65.2294 62.17C63.604 64.8951 62.7914 66.2577 61.6634 67.248C60.6652 68.1244 59.4928 68.7857 58.221 69.19C56.7836 69.6468 55.181 69.6468 51.9757 69.6468H28.0243C24.819 69.6468 23.2164 69.6468 21.779 69.19C20.5072 68.7857 19.3348 68.1243 18.3366 67.248C17.2086 66.2577 16.396 64.8951 14.7706 62.17L3.0476 42.515C1.37793 39.7156 0.543101 38.3159 0.216621 36.8248C-0.0722071 35.5057 -0.072207 34.141 0.216621 32.822C0.543102 31.3309 1.37793 29.9312 3.0476 27.1318L14.7706 7.47676C16.396 4.75166 17.2086 3.38911 18.3366 2.39876C19.3348 1.52243 20.5072 0.861041 21.779 0.456818C23.2164 -2.20367e-07 24.819 -1.38052e-07 28.0243 1.51986e-10L51.9757 1.03287e-06C55.181 1.17107e-06 56.7836 1.23405e-06 58.221 0.45682C59.4928 0.861043 60.6652 1.52243 61.6634 2.39876C62.7914 3.38911 63.604 4.75166 65.2294 7.47676L76.9524 27.1318Z"/>
</mask>
<path d="M76.9524 27.1318C78.6221 29.9312 79.4569 31.3309 79.7834 32.822C80.0722 34.141 80.0722 35.5058 79.7834 36.8248C79.4569 38.3159 78.6221 39.7156 76.9524 42.515L65.2294 62.17C63.604 64.8951 62.7914 66.2577 61.6634 67.248C60.6652 68.1244 59.4928 68.7857 58.221 69.19C56.7836 69.6468 55.181 69.6468 51.9757 69.6468H28.0243C24.819 69.6468 23.2164 69.6468 21.779 69.19C20.5072 68.7857 19.3348 68.1243 18.3366 67.248C17.2086 66.2577 16.396 64.8951 14.7706 62.17L3.0476 42.515C1.37793 39.7156 0.543101 38.3159 0.216621 36.8248C-0.0722071 35.5057 -0.072207 34.141 0.216621 32.822C0.543102 31.3309 1.37793 29.9312 3.0476 27.1318L14.7706 7.47676C16.396 4.75166 17.2086 3.38911 18.3366 2.39876C19.3348 1.52243 20.5072 0.861041 21.779 0.456818C23.2164 -2.20367e-07 24.819 -1.38052e-07 28.0243 1.51986e-10L51.9757 1.03287e-06C55.181 1.17107e-06 56.7836 1.23405e-06 58.221 0.45682C59.4928 0.861043 60.6652 1.52243 61.6634 2.39876C62.7914 3.38911 63.604 4.75166 65.2294 7.47676L76.9524 27.1318Z" fill="url(#paint0_linear_10134_12934)"/>
<path d="M3.0476 27.1318C1.37793 29.9312 0.543102 31.3309 0.216621 32.822C-0.072207 34.141 -0.0722071 35.5057 0.216621 36.8248C0.543101 38.3159 1.37793 39.7156 3.0476 42.515L14.7706 62.17C16.396 64.8951 17.2086 66.2577 18.3366 67.248C19.3348 68.1243 20.5072 68.7857 21.779 69.19C23.2164 69.6468 24.819 69.6468 28.0243 69.6468H51.9757C55.181 69.6468 56.7836 69.6468 58.221 69.19C59.4928 68.7857 60.6652 68.1244 61.6634 67.248C62.7914 66.2577 63.604 64.8951 65.2294 62.17L76.9524 42.515C78.6221 39.7156 79.4569 38.3159 79.7834 36.8248C80.0722 35.5058 80.0722 34.141 79.7834 32.822C79.4569 31.3309 78.6221 29.9312 76.9524 27.1318L65.2294 7.47676C63.604 4.75166 62.7914 3.38911 61.6634 2.39876C60.6652 1.52243 59.4928 0.861043 58.221 0.45682C56.7836 1.23405e-06 55.181 1.17107e-06 51.9757 1.03287e-06L28.0243 1.51986e-10C24.819 -1.38052e-07 23.2164 -2.20367e-07 21.779 0.456818C20.5072 0.861041 19.3348 1.52243 18.3366 2.39876C17.2086 3.38911 16.396 4.75166 14.7706 7.47676L3.0476 27.1318Z" fill="url(#paint1_radial_10134_12934)"/>
<path d="M76.9524 27.1318C78.6221 29.9312 79.4569 31.3309 79.7834 32.822C80.0722 34.141 80.0722 35.5058 79.7834 36.8248C79.4569 38.3159 78.6221 39.7156 76.9524 42.515L65.2294 62.17C63.604 64.8951 62.7914 66.2577 61.6634 67.248C60.6652 68.1244 59.4928 68.7857 58.221 69.19C56.7836 69.6468 55.181 69.6468 51.9757 69.6468H28.0243C24.819 69.6468 23.2164 69.6468 21.779 69.19C20.5072 68.7857 19.3348 68.1243 18.3366 67.248C17.2086 66.2577 16.396 64.8951 14.7706 62.17L3.0476 42.515C1.37793 39.7156 0.543101 38.3159 0.216621 36.8248C-0.0722071 35.5057 -0.072207 34.141 0.216621 32.822C0.543102 31.3309 1.37793 29.9312 3.0476 27.1318L14.7706 7.47676C16.396 4.75166 17.2086 3.38911 18.3366 2.39876C19.3348 1.52243 20.5072 0.861041 21.779 0.456818C23.2164 -2.20367e-07 24.819 -1.38052e-07 28.0243 1.51986e-10L51.9757 1.03287e-06C55.181 1.17107e-06 56.7836 1.23405e-06 58.221 0.45682C59.4928 0.861043 60.6652 1.52243 61.6634 2.39876C62.7914 3.38911 63.604 4.75166 65.2294 7.47676L76.9524 27.1318Z" fill="url(#paint2_linear_10134_12934)"/>
<path d="M51.9757 1.03287e-06V2.5V1.03287e-06ZM58.221 0.45682L57.4637 2.83938L58.221 0.45682ZM65.2294 7.47676L63.0823 8.75737L65.2294 7.47676ZM61.6634 2.39876L60.0139 4.27744V4.27744L61.6634 2.39876ZM14.7706 7.47676L12.6235 6.19615V6.19615L14.7706 7.47676ZM18.3366 2.39876L19.9861 4.27743H19.9861L18.3366 2.39876ZM28.0243 1.51986e-10V-2.5V1.51986e-10ZM21.779 0.456818L22.5363 2.83938L21.779 0.456818ZM3.0476 42.515L0.900502 43.7956L0.900502 43.7956L3.0476 42.515ZM0.216621 36.8248L2.65876 36.2901L0.216621 36.8248ZM3.0476 27.1318L5.1947 28.4124L3.0476 27.1318ZM0.216621 32.822L-2.22552 32.2872L0.216621 32.822ZM28.0243 69.6468L28.0243 72.1468H28.0243V69.6468ZM21.779 69.19L22.5363 66.8074L21.779 69.19ZM14.7706 62.17L16.9177 60.8894H16.9177L14.7706 62.17ZM18.3366 67.248L19.9861 65.3693L18.3366 67.248ZM65.2294 62.17L63.0823 60.8894L65.2294 62.17ZM61.6634 67.248L60.0139 65.3693L61.6634 67.248ZM51.9757 69.6468V67.1468V69.6468ZM58.221 69.19L57.4637 66.8074L58.221 69.19ZM76.9524 42.515L79.0995 43.7956L76.9524 42.515ZM79.7834 36.8248L77.3412 36.2901L79.7834 36.8248ZM76.9524 27.1318L79.0995 25.8512V25.8512L76.9524 27.1318ZM79.7834 32.822L77.3412 33.3567L79.7834 32.822ZM74.8053 41.2344L63.0823 60.8894L67.3765 63.4506L79.0995 43.7956L74.8053 41.2344ZM51.9757 67.1468H28.0243V72.1468H51.9757V67.1468ZM16.9177 60.8894L5.1947 41.2344L0.900502 43.7956L12.6235 63.4506L16.9177 60.8894ZM5.1947 28.4124L16.9177 8.75737L12.6235 6.19615L0.900499 25.8512L5.1947 28.4124ZM28.0243 2.5L51.9757 2.5L51.9757 -2.5L28.0243 -2.5V2.5ZM63.0823 8.75737L74.8053 28.4124L79.0995 25.8512L67.3765 6.19614L63.0823 8.75737ZM51.9757 2.5C55.346 2.5 56.4836 2.52788 57.4637 2.83938L58.9782 -1.92574C57.0836 -2.52788 55.016 -2.5 51.9757 -2.5L51.9757 2.5ZM67.3765 6.19615C65.8363 3.6139 64.8067 1.83174 63.3128 0.520089L60.0139 4.27744C60.776 4.94648 61.3717 5.88942 63.0823 8.75737L67.3765 6.19615ZM57.4637 2.83938C58.4082 3.13955 59.2765 3.62998 60.0139 4.27744L63.3128 0.52009C62.054 -0.585111 60.5774 -1.41747 58.9782 -1.92574L57.4637 2.83938ZM16.9177 8.75737C18.6283 5.88942 19.224 4.94648 19.9861 4.27743L16.6872 0.520087C15.1933 1.83174 14.1637 3.6139 12.6235 6.19615L16.9177 8.75737ZM28.0243 -2.5C24.984 -2.5 22.9164 -2.52788 21.0218 -1.92574L22.5363 2.83938C23.5164 2.52788 24.654 2.5 28.0243 2.5V-2.5ZM19.9861 4.27743C20.7235 3.62998 21.5918 3.13955 22.5363 2.83938L21.0218 -1.92574C19.4226 -1.41747 17.946 -0.585112 16.6872 0.520087L19.9861 4.27743ZM5.1947 41.2344C3.43557 38.285 2.87763 37.2897 2.65876 36.2901L-2.22552 37.3596C-1.79143 39.3421 -0.679699 41.1462 0.900502 43.7956L5.1947 41.2344ZM0.900499 25.8512C-0.679699 28.5006 -1.79143 30.3047 -2.22552 32.2872L2.65876 33.3567C2.87763 32.3571 3.43557 31.3618 5.1947 28.4124L0.900499 25.8512ZM2.65876 36.2901C2.44708 35.3233 2.44708 34.3235 2.65876 33.3567L-2.22552 32.2872C-2.59149 33.9586 -2.59149 35.6882 -2.22552 37.3596L2.65876 36.2901ZM28.0243 67.1468C24.654 67.1468 23.5164 67.1189 22.5363 66.8074L21.0218 71.5725C22.9164 72.1747 24.984 72.1468 28.0243 72.1468L28.0243 67.1468ZM12.6235 63.4506C14.1637 66.0329 15.1933 67.815 16.6872 69.1267L19.9861 65.3693C19.224 64.7003 18.6283 63.7574 16.9177 60.8894L12.6235 63.4506ZM22.5363 66.8074C21.5918 66.5072 20.7235 66.0168 19.9861 65.3693L16.6872 69.1267C17.946 70.2319 19.4226 71.0642 21.0218 71.5725L22.5363 66.8074ZM63.0823 60.8894C61.3717 63.7574 60.776 64.7003 60.0139 65.3693L63.3128 69.1267C64.8067 67.815 65.8363 66.0329 67.3765 63.4506L63.0823 60.8894ZM51.9757 72.1468C55.016 72.1468 57.0836 72.1747 58.9782 71.5725L57.4637 66.8074C56.4836 67.1189 55.346 67.1468 51.9757 67.1468V72.1468ZM60.0139 65.3693C59.2765 66.0168 58.4082 66.5072 57.4637 66.8074L58.9782 71.5725C60.5774 71.0642 62.054 70.2319 63.3128 69.1267L60.0139 65.3693ZM79.0995 43.7956C80.6797 41.1462 81.7914 39.3421 82.2255 37.3596L77.3412 36.2901C77.1224 37.2897 76.5644 38.285 74.8053 41.2344L79.0995 43.7956ZM74.8053 28.4124C76.5644 31.3618 77.1224 32.3571 77.3412 33.3567L82.2255 32.2872C81.7914 30.3047 80.6797 28.5006 79.0995 25.8512L74.8053 28.4124ZM82.2255 37.3596C82.5915 35.6882 82.5915 33.9586 82.2255 32.2872L77.3412 33.3567C77.5529 34.3235 77.5529 35.3233 77.3412 36.2901L82.2255 37.3596Z" fill="white" mask="url(#path-1-inside-1_10134_12934)"/>
<path d="M28.9027 44H24.6186L31.1463 25.0909H36.2983L42.8168 44H38.5327L33.7962 29.4119H33.6484L28.9027 44ZM28.6349 36.5675H38.7543V39.6882H28.6349V36.5675ZM49.0906 25.0909V44H45.0927V25.0909H49.0906Z" fill="white"/>
<g clip-path="url(#clip0_10134_12934)">
<path d="M57.7887 18.7831C57.9095 18.8045 57.9111 18.9543 57.7907 18.9776L54.5843 19.5974C53.4301 19.8205 52.5325 20.9814 52.3836 22.4431L52.0545 25.6755C52.0422 25.7962 51.8392 25.7962 51.827 25.6755L51.4979 22.4431C51.3492 20.9814 50.4514 19.8205 49.2972 19.5974L46.0894 18.9776C45.9691 18.9543 45.9706 18.8045 46.0915 18.7831L49.2642 18.2223C50.4345 18.0155 51.35 16.8446 51.4984 15.3648L51.827 12.0907C51.8392 11.9698 52.0425 11.9698 52.0545 12.0907L52.383 15.3648C52.5315 16.8446 53.447 18.0152 54.6173 18.2223L57.7887 18.7831Z" fill="white"/>
<path d="M62.7517 26.6219C62.8448 26.6385 62.8461 26.7537 62.7533 26.7717L60.2838 27.249C59.3948 27.4209 58.7036 28.3148 58.5889 29.4408L58.3355 31.9304C58.3261 32.0235 58.1696 32.0235 58.1603 31.9304L57.9068 29.4408C57.7922 28.315 57.1007 27.4209 56.212 27.249L53.7414 26.7717C53.6486 26.7539 53.6499 26.6385 53.743 26.6219L56.1865 26.19C57.088 26.0307 57.793 25.129 57.9073 23.9893L58.1605 21.4678C58.1699 21.3747 58.3264 21.3747 58.3357 21.4678L58.5889 23.9895C58.7033 25.1293 59.4083 26.0309 60.3098 26.1903L62.7517 26.6219Z" fill="white"/>
</g>
<defs>
<linearGradient id="paint0_linear_10134_12934" x1="40" y1="0" x2="40" y2="69.6468" gradientUnits="userSpaceOnUse">
<stop stop-color="#4A6DCB"/>
<stop offset="1" stop-color="#643493"/>
</linearGradient>
<radialGradient id="paint1_radial_10134_12934" cx="0" cy="0" r="1" gradientUnits="userSpaceOnUse" gradientTransform="translate(63.2256 1.28495e-06) rotate(120.011) scale(40.1351 39.5512)">
<stop stop-color="#B5EAFB"/>
<stop offset="1" stop-color="#2CB1CB" stop-opacity="0"/>
</radialGradient>
<linearGradient id="paint2_linear_10134_12934" x1="74.9255" y1="58.8316" x2="49.7965" y2="41.5983" gradientUnits="userSpaceOnUse">
<stop stop-color="#B5EAFB"/>
<stop offset="1" stop-color="#2CB1CB" stop-opacity="0"/>
</linearGradient>
<clipPath id="clip0_10134_12934">
<rect width="20" height="20" fill="white" transform="translate(44 12)"/>
</clipPath>
</defs>
</svg>
