<svg width="41" height="61" viewBox="0 0 41 61" fill="none" xmlns="http://www.w3.org/2000/svg">
<path d="M0.5 23C0.5 20.7909 2.29086 19 4.5 19H36.5C38.7091 19 40.5 20.7909 40.5 23V53C40.5 55.2091 38.7091 57 36.5 57H4.5C2.29086 57 0.5 55.2091 0.5 53V23Z" fill="#4A6DCB"/>
<path d="M26.9167 39.8334V43.5001H25.0833V39.8334H26.9167ZM15.9167 39.8334V43.5001H15C14.4958 43.5001 14.0833 43.0876 14.0833 42.5834V39.8334H15.9167ZM20.5 27.9167C15.9442 27.9167 12.25 31.6109 12.25 36.1667V42.5834C12.25 44.1051 13.4783 45.3334 15 45.3334H17.75V38.0001H14.0833V36.1667C14.0833 32.6192 16.9525 29.7501 20.5 29.7501C24.0475 29.7501 26.9167 32.6192 26.9167 36.1667V38.0001H23.25V45.3334H26.9167V46.2501H20.5V48.0834H26C27.5217 48.0834 28.75 46.8551 28.75 45.3334V36.1667C28.75 31.6109 25.0558 27.9167 20.5 27.9167Z" fill="white"/>
<path d="M28.5 53L20.5 61L12.5 53H28.5Z" fill="#4A6DCB"/>
</svg>
