<svg width="41" height="61" viewBox="0 0 41 61" fill="none" xmlns="http://www.w3.org/2000/svg">
<path d="M0.5 23C0.5 20.7909 2.29086 19 4.5 19H36.5C38.7091 19 40.5 20.7909 40.5 23V53C40.5 55.2091 38.7091 57 36.5 57H4.5C2.29086 57 0.5 55.2091 0.5 53V23Z" fill="#643493"/>
<path d="M20.5 27.9167L12.25 31.5834V37.0834C12.25 42.1709 15.77 46.9284 20.5 48.0834C25.23 46.9284 28.75 42.1709 28.75 37.0834V31.5834L20.5 27.9167ZM20.5 37.9909H26.9167C26.4308 41.7676 23.91 45.1318 20.5 46.1859V38.0001H14.0833V32.7751L20.5 29.9242V37.9909Z" fill="white"/>
<path d="M28.5 53L20.5 61L12.5 53H28.5Z" fill="#643493"/>
</svg>
