<svg width="41" height="61" viewBox="0 0 41 61" fill="none" xmlns="http://www.w3.org/2000/svg">
<path d="M0.5 23C0.5 20.7909 2.29086 19 4.5 19H36.5C38.7091 19 40.5 20.7909 40.5 23V53C40.5 55.2091 38.7091 57 36.5 57H4.5C2.29086 57 0.5 55.2091 0.5 53V23Z" fill="#2A4693"/>
<path d="M19.1247 38.9167V35.25C19.1247 34.7458 18.7122 34.3333 18.208 34.3333H14.5413V32.5H19.1247V30.6667H16.833V29.75H14.9997V30.6667H13.6247C13.1205 30.6667 12.708 31.0792 12.708 31.5833V35.25C12.708 35.7542 13.1205 36.1667 13.6247 36.1667H17.2913V38H12.708V39.8333H14.9997V40.75H16.833V39.8333H18.208C18.7122 39.8333 19.1247 39.4208 19.1247 38.9167Z" fill="white"/>
<path d="M26.9988 38.4767L21.8105 43.6558L19.2163 41.0617L17.9238 42.3633L21.8105 46.25L28.2913 39.7692L26.9988 38.4767Z" fill="white"/>
<path d="M28.5 53L20.5 61L12.5 53H28.5Z" fill="#2A4693"/>
</svg>
