<svg width="40" height="61" viewBox="0 0 40 61" fill="none" xmlns="http://www.w3.org/2000/svg">
<path d="M0 23C0 20.7909 1.79086 19 4 19H36C38.2091 19 40 20.7909 40 23V53C40 55.2091 38.2091 57 36 57H4C1.79086 57 0 55.2091 0 53V23Z" fill="#12BAF2"/>
<path d="M27.6676 34.8384L26.5401 36.5343C27.0838 37.6188 27.35 38.8212 27.3148 40.0339C27.2796 41.2465 26.9441 42.4315 26.3384 43.4826H13.6334C12.8462 42.1169 12.5199 40.5338 12.7031 38.9681C12.8863 37.4024 13.5692 35.9374 14.6504 34.7903C15.7317 33.6431 17.1538 32.875 18.706 32.5997C20.2582 32.3244 21.8577 32.5565 23.2676 33.2618L24.9634 32.1343C23.2369 31.0271 21.1889 30.531 19.1471 30.7253C17.1052 30.9196 15.1876 31.793 13.7008 33.2059C12.214 34.6187 11.244 36.4894 10.9459 38.5187C10.6479 40.548 11.039 42.6186 12.0567 44.3993C12.2167 44.6764 12.4464 44.9068 12.723 45.0676C12.9996 45.2284 13.3135 45.314 13.6334 45.3159H26.3292C26.6523 45.3172 26.97 45.2331 27.25 45.0722C27.5301 44.9112 27.7627 44.6791 27.9242 44.3993C28.7688 42.9362 29.1927 41.2682 29.149 39.5794C29.1054 37.8906 28.5958 36.2467 27.6767 34.8293L27.6676 34.8384Z" fill="white"/>
<path d="M18.6934 41.1084C18.8637 41.2789 19.0659 41.4141 19.2884 41.5064C19.511 41.5987 19.7496 41.6461 19.9905 41.6461C20.2314 41.6461 20.47 41.5987 20.6926 41.5064C20.9151 41.4141 21.1173 41.2789 21.2876 41.1084L26.4759 33.3259L18.6934 38.5143C18.523 38.6845 18.3877 38.8867 18.2955 39.1093C18.2032 39.3319 18.1557 39.5704 18.1557 39.8114C18.1557 40.0523 18.2032 40.2909 18.2955 40.5134C18.3877 40.736 18.523 40.9382 18.6934 41.1084Z" fill="white"/>
<path d="M28 53L20 61L12 53H28Z" fill="#12BAF2"/>
</svg>
