<svg width="38" height="45" viewBox="0 0 38 45" fill="none" xmlns="http://www.w3.org/2000/svg">
<path d="M33.5833 0.625H4.41667C2.125 0.625 0.25 2.5 0.25 4.79167V33.9583C0.25 36.25 2.125 38.125 4.41667 38.125H12.75L19 44.375L25.25 38.125H33.5833C35.875 38.125 37.75 36.25 37.75 33.9583V4.79167C37.75 2.5 35.875 0.625 33.5833 0.625ZM33.5833 33.9583H23.5208L19 38.4792L14.4792 33.9583H4.41667V4.79167H33.5833V33.9583ZM19 31.875L22.9167 23.2917L31.5 19.375L22.9167 15.4583L19 6.875L15.0833 15.4583L6.5 19.375L15.0833 23.2917L19 31.875Z" fill="#6C88D5"/>
</svg>
