<svg width="47" height="45" viewBox="0 0 47 45" fill="none" xmlns="http://www.w3.org/2000/svg">
<path d="M46.5834 22.4792L41.5001 16.6667L42.2084 8.97917L34.6876 7.27083L30.7501 0.625L23.6667 3.66667L16.5834 0.625L12.6459 7.27083L5.12506 8.95833L5.8334 16.6667L0.750061 22.4792L5.8334 28.2917L5.12506 36L12.6459 37.7083L16.5834 44.375L23.6667 41.3125L30.7501 44.3542L34.6876 37.7083L42.2084 36L41.5001 28.3125L46.5834 22.4792ZM38.3542 25.5625L37.1876 26.9167L37.3542 28.6875L37.7292 32.75L32.0209 34.0417L31.1042 35.5833L29.0417 39.0833L25.3334 37.4792L23.6667 36.7708L22.0209 37.4792L18.3126 39.0833L16.2501 35.6042L15.3334 34.0625L9.62506 32.7708L10.0001 28.6875L10.1667 26.9167L9.00006 25.5625L6.31256 22.5L9.00006 19.4167L10.1667 18.0625L9.97923 16.2708L9.60423 12.2292L15.3126 10.9375L16.2292 9.39583L18.2917 5.89583L22.0001 7.5L23.6667 8.20833L25.3126 7.5L29.0209 5.89583L31.0834 9.39583L32.0001 10.9375L37.7084 12.2292L37.3334 16.2917L37.1667 18.0625L38.3334 19.4167L41.0209 22.4792L38.3542 25.5625Z" fill="#6C88D5"/>
<path d="M19.6876 26.1458L14.8542 21.2917L11.7709 24.3958L19.6876 32.3333L34.9792 17L31.8959 13.8958L19.6876 26.1458Z" fill="#6C88D5"/>
</svg>
