<svg width="200" height="165" viewBox="0 0 200 165" fill="none" xmlns="http://www.w3.org/2000/svg">
<path d="M34.0001 138.785H19.7336V143.226H23.7236V159.439H19.7336V163.889H34.0001V159.439H30.0016V143.226H34.0001V138.785ZM57.4257 138.289C55.5747 138.289 53.8633 138.596 52.3002 139.2C50.7363 139.804 49.4278 140.669 48.3715 141.785C47.2718 142.937 46.4335 144.325 45.8577 145.946C45.2818 147.567 44.9939 149.369 44.9939 151.361C44.9939 153.495 45.2996 155.378 45.9019 157.008C46.5042 158.639 47.3602 159.997 48.46 161.089C49.5605 162.178 50.8698 163.007 52.398 163.557C53.9339 164.106 55.6026 164.376 57.4094 164.376C58.6225 164.376 59.5841 164.322 60.2826 164.195C61.0363 164.055 61.7824 163.874 62.5178 163.654C63.1124 163.479 63.6956 163.265 64.2641 163.014C64.8229 162.763 65.4081 162.5 66.0103 162.222V156.223H65.3638C65.0666 156.494 64.6917 156.808 64.2377 157.178C63.7617 157.556 63.2629 157.901 62.7444 158.213C62.115 158.619 61.4266 158.933 60.6838 159.168C59.1569 159.651 57.5226 159.635 56.0046 159.123C55.1835 158.863 54.4501 158.42 53.778 157.807C53.133 157.193 52.5913 156.365 52.1535 155.313C51.7259 154.259 51.5078 152.943 51.5078 151.376C51.5078 149.871 51.7088 148.593 52.1101 147.539C52.5028 146.485 53.0267 145.638 53.6639 144.999C54.3453 144.332 55.0787 143.864 55.8735 143.576C56.682 143.286 57.5322 143.14 58.3881 143.144C59.182 143.144 59.924 143.269 60.6233 143.513C61.321 143.757 61.9675 144.063 62.5706 144.423C63.1558 144.774 63.6804 145.143 64.1414 145.513C64.5331 145.821 64.9174 146.139 65.294 146.467H66.0103V140.378C65.4983 140.121 64.98 139.879 64.4558 139.65C63.8113 139.364 63.1488 139.123 62.4728 138.929C61.7225 138.73 60.9613 138.576 60.1933 138.47C59.2759 138.344 58.3512 138.284 57.4257 138.289ZM91.4258 138.785H84.2041L75.2205 163.889H81.5498L83.2448 158.828H92.247L93.9327 163.889H100.412L91.4258 138.785ZM84.7551 154.215L87.7424 145.234L90.7289 154.215H84.7551ZM133.363 138.785H127.599V153.16L118.72 138.785H111.211V163.889H116.974V146.657L127.303 163.889H133.364L133.363 138.785ZM169.013 138.785H163.25V153.16L154.371 138.785H146.862V163.889H152.624V146.657L162.954 163.889H169.014L169.013 138.785ZM101.571 0C97.8405 0 94.039 0.390724 90.212 1.17778C83.8572 2.63738 78.2412 5.78079 72.6182 8.97864C54.0814 18.3464 42.2689 38.0099 43.9011 59.2939L52.9297 56.5917C51.8291 41.5856 55.7671 28.2538 64.8469 17.3736C70.3643 47.5938 82.284 75.0574 100.026 100.089C101.646 100.197 103.213 100.305 104.768 100.305C106.338 100.305 107.897 100.195 109.481 99.8651C103.228 93.3709 98.2433 86.3795 93.1969 79.3906C100.915 75.7603 108.739 72.0229 115.724 66.933C114.78 64.5006 114.099 61.844 112.894 59.6734C105.541 65.4198 97.9289 70.4007 89.7898 74.139C86.0093 68.2934 82.7535 62.2764 79.6002 56.2058V55.6109C88.2616 51.9807 96.6088 47.4865 104.38 41.5864C103.018 38.9835 101.551 36.2716 100.024 33.9481C92.7251 39.7938 85.2161 45.2167 77.3393 49.549H76.5531C71.7769 39.0908 67.9964 28.1473 65.2109 16.7795C67.7869 13.7978 70.7291 10.925 73.7156 8.60072L82.4376 6.05141C104.379 31.4525 118.664 60.2763 126.488 91.4694C128.54 89.362 130.373 87.0825 130.844 84.2722C129.325 79.8774 128.225 75.3824 126.277 71.2118C125.282 68.122 123.334 65.2581 122.706 62.2219C128.433 57.8896 133.943 53.1784 139.347 47.9725C139.241 44.0725 138.298 40.5056 136.517 37.2533H136.098C130.725 43.4799 124.915 49.2903 118.716 54.6373C115.459 49.1695 112.463 43.5849 108.901 38.2261C114.987 33.4605 120.872 27.7142 126.277 21.6523C124.339 19.0494 121.815 16.2839 118.924 15.2574C114.306 20.5714 109.11 26.1473 103.803 30.6422C97.4035 22.2472 90.4697 13.9067 82.8032 6.26839C85.9247 5.53899 89.4809 5.17388 93.0308 5.17388C96.5816 5.17388 100.128 5.53899 103.227 6.26839C121.291 9.62797 138.878 27.9311 141.766 46.6218C145.599 67.5279 138.353 86.7591 121.763 99.4856C115.885 101.686 109.618 102.801 103.373 102.801C89.9272 102.801 76.5935 97.6289 67.5261 86.9736C73.8204 85.8927 79.8112 83.9383 85.8525 81.9399C84.9538 80.3722 83.854 78.9038 83.1726 77.2288C66.4861 84.1433 48.2986 88.1218 29.1215 88.1218C26.8149 88.1218 24.4912 88.0641 22.1566 87.9464C28.6868 88.8128 35.3545 89.1899 42.0632 89.1899C46.3078 89.1899 50.5671 89.0393 54.821 88.7671C59.2822 94.5055 64.9494 99.1077 70.7291 102.414C77.3207 106.198 85.5118 108.086 93.7589 108.086C103.57 108.086 113.459 105.414 120.821 100.09C129.116 96.4607 137.096 90.065 142.71 81.9407C153.319 67.9611 154.943 44.8932 147.066 29.0761L143.661 23.0591C133.734 7.90415 118.364 0 101.571 0Z" fill="#274A5B"/>
<path d="M71.4664 52.4755C56.8669 59.5101 41.1171 63.7888 24.2118 65.1492C30.9025 65.2562 37.5945 65.058 44.2682 64.5551C45.3679 71.4272 47.6295 77.8773 51.2532 83.6693C55.0337 82.9127 58.8142 82.2649 62.3765 81.1288C59.182 76.742 56.9204 71.8603 55.244 66.7169C54.9825 65.4742 54.083 64.0058 54.8257 62.8168C61.3303 61.5734 67.686 60.0513 73.7203 57.7278L71.4664 52.4755ZM100.163 122.894C65.762 122.894 31.3249 126.377 0 133.237C31.4141 129.711 64.2354 128.049 97.0938 128.05C131.902 128.05 166.75 129.913 200.001 133.398C168.813 126.361 134.505 122.892 100.163 122.894Z" fill="#274A5B"/>
</svg>
