<svg width="22" height="23" viewBox="0 0 22 23" fill="none" xmlns="http://www.w3.org/2000/svg">
<path d="M21.6558 18.4896L12.5758 9.40961C13.5058 7.06961 13.0258 4.30961 11.1358 2.40961C8.83583 0.109605 5.25583 -0.100395 2.70583 1.7596L6.54583 5.60961L5.12583 7.01961L1.29583 3.1896C-0.564171 5.7296 -0.354171 9.3196 1.94583 11.6096C3.80583 13.4696 6.51583 13.9596 8.83583 13.0896L17.9458 22.1996C18.3358 22.5896 18.9658 22.5896 19.3558 22.1996L21.6558 19.8996C22.0558 19.5196 22.0558 18.8896 21.6558 18.4896ZM18.6558 20.0896L9.19583 10.6296C8.58583 11.0796 7.90583 11.3496 7.19583 11.4496C5.83583 11.6496 4.40583 11.2396 3.36583 10.1996C2.41583 9.2596 1.97583 7.99961 2.04583 6.75961L5.13583 9.84961L9.37583 5.60961L6.28583 2.5196C7.52583 2.4496 8.77583 2.8896 9.72583 3.8296C10.8058 4.9096 11.2158 6.39961 10.9658 7.78961C10.8458 8.49961 10.5458 9.15961 10.0858 9.74961L19.5358 19.1996L18.6558 20.0896Z" fill="#6C88D5"/>
</svg>
