<svg width="43" height="43" viewBox="0 0 43 43" fill="none" xmlns="http://www.w3.org/2000/svg">
<path d="M40.9375 20.625L22.1875 1.87496C21.4375 1.12496 20.3958 0.666626 19.25 0.666626H4.66664C2.37497 0.666626 0.499969 2.54163 0.499969 4.83329V19.4166C0.499969 20.5625 0.958303 21.6041 1.72914 22.375L20.4791 41.125C21.2291 41.875 22.2708 42.3333 23.4166 42.3333C24.5625 42.3333 25.6041 41.875 26.3541 41.1041L40.9375 26.5208C41.7083 25.7708 42.1666 24.7291 42.1666 23.5833C42.1666 22.4375 41.6875 21.375 40.9375 20.625ZM23.4166 38.1875L4.66664 19.4166V4.83329H19.25V4.81246L38 23.5625L23.4166 38.1875Z" fill="#6C88D5"/>
<path d="M9.87497 13.1666C11.6009 13.1666 13 11.7675 13 10.0416C13 8.31574 11.6009 6.91663 9.87497 6.91663C8.14908 6.91663 6.74997 8.31574 6.74997 10.0416C6.74997 11.7675 8.14908 13.1666 9.87497 13.1666Z" fill="#6C88D5"/>
</svg>
