<svg width="43" height="43" viewBox="0 0 43 43" fill="none" xmlns="http://www.w3.org/2000/svg">
<path d="M21.6459 0.666626C10.1459 0.666626 0.833374 9.99996 0.833374 21.5C0.833374 33 10.1459 42.3333 21.6459 42.3333C33.1667 42.3333 42.5 33 42.5 21.5C42.5 9.99996 33.1667 0.666626 21.6459 0.666626ZM36.0834 13.1666H29.9375C29.2709 10.5625 28.3125 8.06246 27.0625 5.74996C30.8959 7.06246 34.0834 9.72913 36.0834 13.1666ZM21.6667 4.91663C23.3959 7.41663 24.75 10.1875 25.6459 13.1666H17.6875C18.5834 10.1875 19.9375 7.41663 21.6667 4.91663ZM5.54171 25.6666C5.20837 24.3333 5.00004 22.9375 5.00004 21.5C5.00004 20.0625 5.20837 18.6666 5.54171 17.3333H12.5834C12.4167 18.7083 12.2917 20.0833 12.2917 21.5C12.2917 22.9166 12.4167 24.2916 12.5834 25.6666H5.54171ZM7.25004 29.8333H13.3959C14.0625 32.4375 15.0209 34.9375 16.2709 37.25C12.4375 35.9375 9.25004 33.2916 7.25004 29.8333ZM13.3959 13.1666H7.25004C9.25004 9.70829 12.4375 7.06246 16.2709 5.74996C15.0209 8.06246 14.0625 10.5625 13.3959 13.1666ZM21.6667 38.0833C19.9375 35.5833 18.5834 32.8125 17.6875 29.8333H25.6459C24.75 32.8125 23.3959 35.5833 21.6667 38.0833ZM26.5417 25.6666H16.7917C16.6042 24.2916 16.4584 22.9166 16.4584 21.5C16.4584 20.0833 16.6042 18.6875 16.7917 17.3333H26.5417C26.7292 18.6875 26.875 20.0833 26.875 21.5C26.875 22.9166 26.7292 24.2916 26.5417 25.6666ZM27.0625 37.25C28.3125 34.9375 29.2709 32.4375 29.9375 29.8333H36.0834C34.0834 33.2708 30.8959 35.9375 27.0625 37.25ZM30.75 25.6666C30.9167 24.2916 31.0417 22.9166 31.0417 21.5C31.0417 20.0833 30.9167 18.7083 30.75 17.3333H37.7917C38.125 18.6666 38.3334 20.0625 38.3334 21.5C38.3334 22.9375 38.125 24.3333 37.7917 25.6666H30.75Z" fill="#6C88D5"/>
</svg>
