<svg width="19" height="18" viewBox="0 0 19 18" fill="none" xmlns="http://www.w3.org/2000/svg">
<g clip-path="url(#clip0_10009_12947)">
<path d="M18.7676 9.055C18.7676 4.05406 14.7381 0 9.76758 0C4.79701 0 0.767578 4.05406 0.767578 9.055C0.767578 13.5745 4.05873 17.3207 8.36133 18V11.6725H6.07617V9.055H8.36133V7.06007C8.36133 4.79066 9.705 3.53711 11.7608 3.53711C12.7451 3.53711 13.7754 3.71397 13.7754 3.71397V5.94234H12.6405C11.5226 5.94234 11.1738 6.64039 11.1738 7.35719V9.055H13.6699L13.2709 11.6725H11.1738V18C15.4764 17.3207 18.7676 13.5745 18.7676 9.055Z" fill="#283252"/>
</g>
<defs>
<clipPath id="clip0_10009_12947">
<rect width="18" height="18" fill="white" transform="translate(0.767578)"/>
</clipPath>
</defs>
</svg>
