<svg width="19" height="18" viewBox="0 0 19 18" fill="none" xmlns="http://www.w3.org/2000/svg">
<g clip-path="url(#clip0_10009_12951)">
<path d="M9.76758 1.6207C12.1723 1.6207 12.457 1.63125 13.4027 1.67344C14.2816 1.71211 14.7563 1.85977 15.0727 1.98281C15.491 2.14453 15.7934 2.34141 16.1063 2.6543C16.4227 2.9707 16.616 3.26953 16.7777 3.68789C16.9008 4.0043 17.0484 4.48242 17.0871 5.35781C17.1293 6.30703 17.1398 6.5918 17.1398 8.99297C17.1398 11.3977 17.1293 11.6824 17.0871 12.6281C17.0484 13.507 16.9008 13.9816 16.7777 14.298C16.616 14.7164 16.4191 15.0187 16.1063 15.3316C15.7898 15.648 15.491 15.8414 15.0727 16.0031C14.7563 16.1262 14.2781 16.2738 13.4027 16.3125C12.4535 16.3547 12.1688 16.3652 9.76758 16.3652C7.36289 16.3652 7.07813 16.3547 6.13242 16.3125C5.25352 16.2738 4.77891 16.1262 4.4625 16.0031C4.04414 15.8414 3.7418 15.6445 3.42891 15.3316C3.1125 15.0152 2.91914 14.7164 2.75742 14.298C2.63438 13.9816 2.48672 13.5035 2.44805 12.6281C2.40586 11.6789 2.39531 11.3941 2.39531 8.99297C2.39531 6.58828 2.40586 6.30351 2.44805 5.35781C2.48672 4.47891 2.63438 4.0043 2.75742 3.68789C2.91914 3.26953 3.11602 2.96719 3.42891 2.6543C3.74531 2.33789 4.04414 2.14453 4.4625 1.98281C4.77891 1.85977 5.25703 1.71211 6.13242 1.67344C7.07813 1.63125 7.36289 1.6207 9.76758 1.6207ZM9.76758 0C7.32422 0 7.01836 0.0105469 6.05859 0.0527344C5.10234 0.0949219 4.44492 0.249609 3.87539 0.471094C3.28125 0.703125 2.77852 1.00898 2.2793 1.51172C1.77656 2.01094 1.4707 2.51367 1.23867 3.1043C1.01719 3.67734 0.8625 4.33125 0.820313 5.2875C0.778125 6.25078 0.767578 6.55664 0.767578 9C0.767578 11.4434 0.778125 11.7492 0.820313 12.709C0.8625 13.6652 1.01719 14.3227 1.23867 14.8922C1.4707 15.4863 1.77656 15.9891 2.2793 16.4883C2.77852 16.9875 3.28125 17.2969 3.87188 17.5254C4.44492 17.7469 5.09883 17.9016 6.05508 17.9437C7.01484 17.9859 7.3207 17.9965 9.76406 17.9965C12.2074 17.9965 12.5133 17.9859 13.473 17.9437C14.4293 17.9016 15.0867 17.7469 15.6563 17.5254C16.2469 17.2969 16.7496 16.9875 17.2488 16.4883C17.748 15.9891 18.0574 15.4863 18.2859 14.8957C18.5074 14.3227 18.6621 13.6687 18.7043 12.7125C18.7465 11.7527 18.757 11.4469 18.757 9.00352C18.757 6.56016 18.7465 6.2543 18.7043 5.29453C18.6621 4.33828 18.5074 3.68086 18.2859 3.11133C18.0645 2.51367 17.7586 2.01094 17.2559 1.51172C16.7566 1.0125 16.2539 0.703125 15.6633 0.474609C15.0902 0.253125 14.4363 0.0984375 13.4801 0.05625C12.5168 0.0105469 12.2109 0 9.76758 0Z" fill="#283252"/>
<path d="M9.76758 4.37695C7.21523 4.37695 5.14453 6.44766 5.14453 9C5.14453 11.5523 7.21523 13.623 9.76758 13.623C12.3199 13.623 14.3906 11.5523 14.3906 9C14.3906 6.44766 12.3199 4.37695 9.76758 4.37695ZM9.76758 11.9988C8.11172 11.9988 6.76875 10.6559 6.76875 9C6.76875 7.34414 8.11172 6.00117 9.76758 6.00117C11.4234 6.00117 12.7664 7.34414 12.7664 9C12.7664 10.6559 11.4234 11.9988 9.76758 11.9988Z" fill="#283252"/>
<path d="M15.6527 4.19411C15.6527 4.79177 15.1676 5.27341 14.5734 5.27341C13.9758 5.27341 13.4941 4.78825 13.4941 4.19411C13.4941 3.59645 13.9793 3.11481 14.5734 3.11481C15.1676 3.11481 15.6527 3.59997 15.6527 4.19411Z" fill="#283252"/>
</g>
<defs>
<clipPath id="clip0_10009_12951">
<rect width="18" height="18" fill="white" transform="translate(0.767578)"/>
</clipPath>
</defs>
</svg>
