<svg width="19" height="18" viewBox="0 0 19 18" fill="none" xmlns="http://www.w3.org/2000/svg">
<path d="M16.4767 1.125H3.05537C2.41245 1.125 1.89258 1.63257 1.89258 2.26011V15.7368C1.89258 16.3644 2.41245 16.875 3.05537 16.875H16.4767C17.1196 16.875 17.6426 16.3644 17.6426 15.7399V2.26011C17.6426 1.63257 17.1196 1.125 16.4767 1.125ZM6.56528 14.5463H4.22739V7.02817H6.56528V14.5463ZM5.39634 6.00381C4.64575 6.00381 4.03975 5.3978 4.03975 4.65029C4.03975 3.90278 4.64575 3.29678 5.39634 3.29678C6.14385 3.29678 6.74985 3.90278 6.74985 4.65029C6.74985 5.39473 6.14385 6.00381 5.39634 6.00381ZM15.3139 14.5463H12.9791V10.8918C12.9791 10.0213 12.9637 8.89849 11.764 8.89849C10.5489 8.89849 10.3644 9.84902 10.3644 10.8303V14.5463H8.03262V7.02817H10.2721V8.05562H10.3028C10.6135 7.46499 11.3764 6.84053 12.5115 6.84053C14.8771 6.84053 15.3139 8.39707 15.3139 10.4212V14.5463Z" fill="#283252"/>
</svg>
