<svg width="19" height="18" viewBox="0 0 19 18" fill="none" xmlns="http://www.w3.org/2000/svg">
<g clip-path="url(#clip0_10009_12949)">
<path d="M6.4302 16.3121C13.221 16.3121 16.9363 10.6846 16.9363 5.80597C16.9363 5.64777 16.9328 5.48605 16.9257 5.32784C17.6485 4.80517 18.2722 4.15776 18.7676 3.41605C18.0945 3.71552 17.3798 3.91111 16.648 3.99612C17.4185 3.53425 17.9955 2.80868 18.2719 1.9539C17.547 2.38349 16.7543 2.68653 15.9277 2.85003C15.3707 2.25824 14.6343 1.86641 13.8323 1.73511C13.0304 1.60381 12.2075 1.74036 11.4909 2.12365C10.7743 2.50693 10.2039 3.1156 9.86796 3.85556C9.532 4.59551 9.44915 5.42553 9.63223 6.2173C8.16445 6.14364 6.72853 5.76235 5.41756 5.09815C4.1066 4.43394 2.94985 3.50165 2.0223 2.36171C1.55088 3.17451 1.40662 4.13631 1.61885 5.05164C1.83108 5.96698 2.38388 6.76716 3.16488 7.28956C2.57855 7.27095 2.00506 7.11308 1.4918 6.82901V6.87472C1.49127 7.72768 1.78615 8.55451 2.32631 9.21465C2.86647 9.87479 3.61857 10.3275 4.45477 10.4958C3.91162 10.6444 3.34156 10.6661 2.78871 10.5591C3.02467 11.2926 3.48376 11.9342 4.10191 12.3943C4.72005 12.8544 5.46642 13.11 6.23684 13.1255C4.9289 14.1529 3.31321 14.7102 1.65 14.7075C1.35504 14.7071 1.06038 14.689 0.767578 14.6534C2.45722 15.7374 4.42273 16.3131 6.4302 16.3121Z" fill="#283252"/>
</g>
<defs>
<clipPath id="clip0_10009_12949">
<rect width="18" height="18" fill="white" transform="translate(0.767578)"/>
</clipPath>
</defs>
</svg>
