<svg width="19" height="18" viewBox="0 0 19 18" fill="none" xmlns="http://www.w3.org/2000/svg">
<g clip-path="url(#clip0_10009_12953)">
<path d="M18.5883 5.39961C18.5883 5.39961 18.4125 4.15859 17.8711 3.61367C17.1855 2.89648 16.4191 2.89297 16.0676 2.85078C13.5504 2.66797 9.77109 2.66797 9.77109 2.66797H9.76406C9.76406 2.66797 5.98477 2.66797 3.46758 2.85078C3.11602 2.89297 2.34961 2.89648 1.66406 3.61367C1.12266 4.15859 0.950391 5.39961 0.950391 5.39961C0.950391 5.39961 0.767578 6.85859 0.767578 8.31406V9.67812C0.767578 11.1336 0.946875 12.5926 0.946875 12.5926C0.946875 12.5926 1.12266 13.8336 1.66055 14.3785C2.34609 15.0957 3.24609 15.0711 3.64688 15.1484C5.08828 15.2855 9.76758 15.3277 9.76758 15.3277C9.76758 15.3277 13.5504 15.3207 16.0676 15.1414C16.4191 15.0992 17.1855 15.0957 17.8711 14.3785C18.4125 13.8336 18.5883 12.5926 18.5883 12.5926C18.5883 12.5926 18.7676 11.1371 18.7676 9.67812V8.31406C18.7676 6.85859 18.5883 5.39961 18.5883 5.39961ZM7.90781 11.334V6.275L12.7699 8.81328L7.90781 11.334Z" fill="#283252"/>
</g>
<defs>
<clipPath id="clip0_10009_12953">
<rect width="18" height="18" fill="white" transform="translate(0.767578)"/>
</clipPath>
</defs>
</svg>
