<svg width="1440" height="599" viewBox="0 0 1440 599" fill="none" xmlns="http://www.w3.org/2000/svg">
<mask id="mask0_6828_9142" style="mask-type:luminance" maskUnits="userSpaceOnUse" x="0" y="-3" width="1440" height="602">
<path d="M0 -3H1440V599H0V-3Z" fill="white"/>
</mask>
<g mask="url(#mask0_6828_9142)">
<path d="M831.471 131.612C857.537 120.11 884.492 108.217 906.182 93.2959C939.577 70.3247 960.885 38.3501 981.492 7.42778C985.434 1.51253 989.397 -4.42439 993.454 -10.3252H995.545C991.374 -4.27148 987.31 1.82196 983.264 7.89253C962.594 38.9088 941.22 70.9821 907.603 94.1073C885.77 109.126 858.729 121.058 832.579 132.597C805.914 144.362 778.341 156.529 756.405 171.941C700.354 211.319 686.474 272.103 722.657 319.771C757.434 368.642 835.557 397.368 926.626 394.734C1017.76 392.097 1091.44 358.963 1118.9 308.281C1133.07 278.407 1135.2 247.939 1137.27 218.473C1141.25 161.524 1145.02 107.731 1230.05 60.6566C1269.28 35.1764 1292.94 11.9693 1301.72 -10.3252H1303.5C1302.45 -7.59934 1301.22 -4.86265 1299.74 -2.11271C1289.04 17.7822 1266.69 38.5933 1231.4 61.509L1231.34 61.5428C1146.89 108.282 1143.14 161.832 1139.18 218.526C1137.11 248.065 1134.97 278.608 1120.73 308.647C1106.58 334.754 1079.91 356.708 1043.59 372.136C1009.85 386.471 969.434 394.7 926.711 395.937C922.976 396.045 919.259 396.098 915.548 396.098C876.829 396.098 839.497 390.241 806.962 379.007C768.576 365.754 738.817 345.44 720.91 320.276C684.414 272.197 698.421 210.87 754.969 171.14C777.052 155.625 804.718 143.417 831.471 131.612Z" fill="#DBCAEC" fill-opacity="0.3"/>
<path d="M851.32 132.921C873.855 122.967 897.158 112.675 916.041 99.8577C925.931 93.1466 935.059 85.3495 943.944 76.0197C959.145 60.0546 971.466 41.6057 983.381 23.7637C991.034 12.3052 998.762 0.750403 1007.35 -10.3252H1009.49C1000.76 0.885251 992.914 12.6062 985.153 24.2284C973.211 42.109 960.865 60.5976 945.594 76.6361C936.637 86.0382 927.432 93.9015 917.452 100.674C898.433 113.586 875.045 123.915 852.428 133.906C829.013 144.247 804.802 154.941 785.535 168.477C736.73 202.665 724.54 256.273 755.892 298.843C786.368 340.224 850.788 365.257 925.601 365.254C928.955 365.254 932.34 365.204 935.733 365.103C1016.33 362.766 1082.9 332.792 1105.32 288.742C1119.02 261.815 1121.35 234.509 1123.6 208.101C1127.78 159.022 1131.73 112.665 1203.45 70.1466C1248.11 43.6718 1269.79 16.0797 1267.73 -10.3252H1269.69C1271.76 16.3988 1249.86 44.2883 1204.76 71.0219C1133.6 113.21 1129.67 159.334 1125.51 208.166C1123.26 234.649 1120.92 262.034 1107.15 289.108C1084.48 333.643 1017.23 363.946 935.821 366.305C932.388 366.409 928.982 366.459 925.589 366.459C850.031 366.459 784.942 341.161 754.147 299.348C722.484 256.356 734.803 202.209 784.102 167.675C803.514 154.036 827.817 143.302 851.32 132.921Z" fill="#B8C5EB" fill-opacity="0.3"/>
<path d="M813.232 164.209C829.981 152.444 850.93 143.179 871.192 134.219C890.19 125.817 909.835 117.129 925.9 106.417C934.484 100.698 942.381 94.1134 950.046 86.2886C963.699 72.3306 974.68 56.0971 985.297 40.3981C997.192 22.8149 1009.29 4.95236 1025.47 -10.3252H1027.8C1011.33 5.01978 999.09 23.087 987.064 40.8689C976.419 56.6088 965.41 72.8832 951.682 86.9183C943.95 94.8141 935.972 101.463 927.298 107.243C911.099 118.043 891.373 126.767 872.297 135.203C852.126 144.124 831.265 153.349 814.663 165.013C772.352 194.538 761.853 240.968 789.129 277.922C816.898 315.542 876.525 337.567 944.808 335.473C1014.55 333.449 1072.22 307.442 1091.73 269.215C1103.64 245.869 1105.58 222.135 1107.46 199.182C1110.95 156.536 1114.25 116.255 1176.85 79.6389C1226.09 50.8392 1241.83 17.7172 1221.46 -10.3228H1223.57C1243.78 18.0832 1227.79 51.4906 1178.16 80.5202C1116.13 116.804 1112.85 156.849 1109.38 199.244C1107.5 222.274 1105.55 246.089 1093.55 269.583C1073.8 308.294 1015.45 334.63 944.9 336.676C941.844 336.771 938.806 336.818 935.786 336.818C870.568 336.818 814.246 314.821 787.385 278.429C774.078 260.401 769.176 239.298 773.579 219.005C778.12 198.092 791.83 179.143 813.232 164.209Z" fill="#B8C5EB" fill-opacity="0.3"/>
<path d="M890.989 135.58C906.476 128.709 922.489 121.606 935.762 112.976C943.052 108.24 949.72 102.869 956.146 96.5551C968.313 84.5825 977.981 70.5186 987.331 56.9182C1005.3 30.7782 1023.82 3.86033 1061.18 -10.3252H1064.98C1026.24 3.37151 1007.38 30.7902 989.094 57.395C979.714 71.0387 970.015 85.1472 957.765 97.2028C951.27 103.585 944.523 109.019 937.142 113.813C923.744 122.523 907.655 129.661 892.097 136.564C875.211 144.055 857.75 151.802 843.794 161.549C807.483 186.909 798.871 225.269 822.368 257.001C845.988 288.901 896.398 307.598 953.885 305.843C1012.82 304.024 1061.59 281.982 1078.14 249.687C1088.26 229.922 1089.83 209.764 1091.35 190.268C1094.17 154.068 1096.83 119.875 1150.26 89.1288C1178.35 72.9627 1193.75 53.9046 1193.64 35.4641C1193.55 21.1293 1183.92 8.12611 1165.8 -2.1404C1160.55 -5.11308 1154.37 -7.93044 1147.49 -10.3228H1151.49C1156.92 -8.26033 1162.15 -5.82825 1167.09 -3.03377C1185.62 7.46631 1195.46 20.7777 1195.56 35.4605C1195.67 54.2441 1180.05 73.6189 1151.55 90.0162C1098.71 120.429 1096.07 154.382 1093.27 190.329C1091.74 209.901 1090.17 230.14 1079.96 250.057C1063.17 282.833 1013.72 305.204 953.975 307.047C951.431 307.125 948.908 307.165 946.393 307.165C891.275 307.165 843.533 288.452 820.623 257.511C796.809 225.347 805.544 186.46 842.361 160.748C856.466 150.895 874.016 143.11 890.989 135.58Z" fill="#DBCAEC" fill-opacity="0.3"/>
<path d="M956.742 277.513C958.836 277.513 960.942 277.479 963.06 277.412C1011.2 275.872 1052.72 257.03 1066.38 230.527C1074.79 214.187 1076.01 197.529 1077.19 181.419C1079.34 151.939 1081.38 124.094 1124.95 99.5098C1150.01 85.3748 1162.8 67.8037 1160.05 51.3029C1157.87 38.278 1145.91 27.1976 1126.35 20.106C1102.48 11.4553 1076.85 10.2465 1056.02 16.7878C1021.58 27.6033 1005.32 50.7839 989.597 73.2012C981.463 84.7957 973.054 96.7852 962.256 106.817C957.139 111.558 951.546 115.837 945.629 119.531C935.211 126.047 922.886 131.531 910.969 136.835C897.206 142.959 882.975 149.292 871.499 157.277C841.302 178.292 834.217 210.163 853.87 236.586C872.843 262.096 911.883 277.513 956.742 277.513ZM1125.38 21.1487C1144.4 28.0416 1156.03 38.7957 1158.14 51.4281C1160.82 67.5424 1148.26 84.7403 1123.67 98.6152C1079.5 123.536 1077.44 151.625 1075.27 181.365C1074.1 197.395 1072.89 213.97 1064.55 230.157C1051.13 256.189 1010.31 274.697 962.962 276.21C916.258 277.711 875.13 262.326 855.607 236.077C836.275 210.088 843.233 178.743 872.922 158.082C884.256 150.196 898.399 143.902 912.077 137.816C924.059 132.485 936.449 126.971 946.982 120.384C952.986 116.634 958.66 112.296 963.846 107.49C974.742 97.3679 983.186 85.3279 991.353 73.684C1006.94 51.463 1023.06 28.4846 1056.88 17.863C1077.12 11.5058 1102.09 12.7038 1125.38 21.1487Z" fill="#B8C5EB" fill-opacity="0.3"/>
<path d="M967.113 247.866C968.78 247.866 970.458 247.838 972.144 247.781C1009.59 246.521 1042 231.739 1052.79 211C1059.42 198.234 1060.3 185.166 1061.15 172.529C1062.69 149.54 1064.15 127.826 1098.35 109.009C1120.75 96.6841 1130.97 80.0328 1125.02 65.5547C1120.35 54.1986 1105.95 46.0716 1085.49 43.2578C1066.2 40.603 1048.61 42.5715 1034.62 48.9503C1014.26 58.2283 1003.15 73.7997 992.394 88.8593C985.37 98.6972 978.107 108.87 968.375 117.071C964.51 120.321 960.18 123.353 955.505 126.083C948.032 130.456 939.475 134.277 931.2 137.972C920.555 142.724 909.552 147.637 900.631 153.811C876.681 170.389 871.374 194.669 887.111 215.668C902.156 235.742 932.503 247.866 967.113 247.866ZM1085.29 43.8454L1085.08 44.4329C1105.09 47.1865 1118.62 54.7945 1123.16 65.8545C1128.93 79.8907 1118.93 96.0785 1097.08 108.103C1062.26 127.26 1060.79 149.223 1059.23 172.477C1058.39 185.034 1057.52 198.018 1050.96 210.627C1040.42 230.896 1008.7 245.344 972.038 246.578C936.157 247.795 904.277 235.746 888.846 215.154C873.44 194.595 878.624 170.834 902.052 154.618C910.832 148.54 921.751 143.665 932.311 138.951C940.636 135.234 949.248 131.389 956.812 126.962C961.568 124.182 965.977 121.096 969.913 117.788C979.772 109.48 987.077 99.2462 994.145 89.3493C1004.79 74.4342 1015.8 59.0121 1035.74 49.9219C1052.84 42.1285 1072.01 42.6341 1085.08 44.4317L1085.29 43.8454Z" fill="#B8C5EB" fill-opacity="0.3"/>
<path d="M976.905 218.244C978.341 218.244 979.785 218.213 981.238 218.148C1006.59 217.411 1030.43 206.449 1039.18 191.492C1043.44 182.518 1044.08 173.45 1044.69 164.678C1045.86 147.989 1046.96 132.223 1071.73 118.506C1093.77 107.206 1097.57 90.4351 1089.92 79.7062C1082.55 69.3566 1065.59 64.4118 1044.56 66.4658C1017.32 71.0603 1006.84 86.7857 996.704 101.995C990.625 111.116 984.339 120.549 974.53 127.296C968.159 131.679 960.21 135.187 952.523 138.578C944.57 142.088 936.349 145.715 929.759 150.345C912.141 162.138 908.52 179.142 920.326 194.71C931.48 209.418 952.891 218.243 976.905 218.244ZM1053.98 67.1882C1069.93 67.1882 1082.16 71.7586 1088.17 80.1986C1095.52 90.5109 1091.81 106.664 1070.5 117.582L1070.48 117.596C1045.08 131.654 1043.96 147.67 1042.77 164.626C1042.16 173.324 1041.53 182.318 1037.36 191.114C1028.88 205.593 1005.75 216.231 981.125 216.948C956.148 218.042 933.532 209.324 922.058 194.196C910.598 179.086 914.092 162.596 931.174 151.161C937.631 146.625 945.762 143.037 953.627 139.567C961.399 136.138 969.434 132.592 975.949 128.111C985.981 121.209 992.332 111.68 998.474 102.462C1008.43 87.5214 1018.73 72.0728 1044.96 67.6457C1048.08 67.3387 1051.09 67.1882 1053.98 67.1882Z" fill="#DBCAEC" fill-opacity="0.3"/>
</g>
<mask id="mask1_6828_9142" style="mask-type:luminance" maskUnits="userSpaceOnUse" x="0" y="-3" width="1440" height="602">
<path d="M0 -3H1440V599H0V-3Z" fill="white"/>
</mask>
<g mask="url(#mask1_6828_9142)">
<path d="M954.935 606.985C887.46 588.902 819.901 569.39 769.926 540.54C733.837 519.707 705.222 493.94 677.549 469.021C649.298 443.582 620.085 417.277 582.962 396.295C522.989 362.397 442.203 344.467 361.672 344.467C314.799 344.467 268.009 350.544 225.471 363.082C106.865 395.838 36.77 470.048 42.5434 556.75C43.7089 574.242 47.929 591.052 54.8544 606.985H53.0785C45.9975 590.852 41.7735 574.023 40.6253 556.8C37.9277 516.267 52.3392 476.997 82.3047 443.24C114.561 406.897 163.801 378.798 224.678 361.987C340.95 327.715 488.807 341.455 584.248 395.401C621.535 416.476 650.813 442.839 679.125 468.333C706.739 493.198 735.293 518.912 771.226 539.654C821.99 568.96 891.133 588.63 959.827 606.986H954.935V606.985Z" fill="#B8C5EB" fill-opacity="0.3"/>
<path d="M911.728 606.985C857.693 592.63 804.599 576.839 764.723 554.451C732.571 536.381 706.86 514.051 681.996 492.456C657.395 471.091 631.957 448.997 600.348 431.117C546.851 400.851 473.463 384.629 399.428 384.629C363.48 384.629 327.376 388.455 293.33 396.354C180.523 422.529 108.486 490.535 114.073 565.578C115.147 579.979 118.487 593.828 123.885 606.985H121.907C116.552 593.837 113.227 580.011 112.155 565.635C106.526 490.065 179.067 421.582 292.662 395.226C343.615 383.402 399.512 380.277 454.307 386.193C510.492 392.256 561.437 407.482 601.632 430.223C633.395 448.191 658.893 470.336 683.551 491.753C708.356 513.296 734.005 535.572 766.004 553.556C806.69 576.397 861.339 592.371 916.664 606.986H911.728V606.985Z" fill="#DBCAEC" fill-opacity="0.3"/>
<path d="M864.689 606.985C826.064 596.228 788.885 584.234 759.525 568.366C731.216 553.029 708.332 534.097 686.202 515.789C665.337 498.529 643.762 480.682 617.733 465.941C569.17 438.432 503.412 423.612 435.532 423.612C410.78 423.612 385.735 425.586 361.155 429.631C253.902 447.285 180.073 508.172 185.606 574.405C186.553 585.738 189.066 596.616 193.006 606.985H191.022C187.121 596.631 184.635 585.773 183.69 574.467C180.871 540.752 197.174 508.662 230.834 481.665C263.034 455.841 309.143 436.946 360.668 428.467C453.281 413.219 552.276 427.239 619.021 465.048C645.185 479.864 666.816 497.758 687.734 515.062C709.804 533.321 732.627 552.202 760.782 567.455C790.951 583.76 829.511 595.985 869.412 606.986H864.689V606.985Z" fill="#B8C5EB" fill-opacity="0.3"/>
<path d="M819.087 606.985C795.519 599.854 773.176 591.923 754.333 582.285C729.672 569.616 709.447 553.999 689.888 538.896C672.938 525.81 655.414 512.278 635.116 500.764H635.114C590.267 475.314 529.581 461.519 464.714 461.519C452.906 461.519 440.954 461.978 428.941 462.903C339.571 469.802 250.872 516.696 257.137 583.23C257.913 591.471 259.647 599.391 262.237 606.984H260.267C257.708 599.409 255.995 591.513 255.221 583.3C252.339 552.7 269.775 523.337 304.314 500.619C336.397 479.515 381.736 465.332 428.705 461.708C507.281 455.646 582.979 469.554 636.403 499.869C656.812 511.444 674.384 525.013 691.38 538.134C710.877 553.191 731.041 568.76 755.548 581.351C775.209 591.406 798.762 599.603 823.551 606.984L819.087 606.985Z" fill="#DBCAEC" fill-opacity="0.3"/>
<path d="M776.028 606.985C766.533 603.664 757.475 600.11 749.151 596.207C727.59 586.029 709.563 573.49 692.131 561.362C679.599 552.644 666.641 543.628 652.497 535.588C600.868 506.213 539.259 497.937 496.668 496.168C493.05 496.017 489.439 495.942 485.825 495.942C441.978 495.942 398.734 506.889 368.392 525.926C348.392 538.476 325.262 560.137 328.668 592.057C329.217 597.211 330.182 602.183 331.528 606.985H329.57C328.247 602.206 327.299 597.259 326.751 592.136C323.299 559.766 346.752 537.801 367.037 525.074C400.266 504.227 448.758 492.971 496.798 494.965C539.695 496.747 601.753 505.087 653.791 534.696C668.005 542.777 680.997 551.815 693.562 560.556C710.932 572.641 728.895 585.137 750.307 595.245C759.435 599.525 769.465 603.391 780.004 606.986H776.028V606.985Z" fill="#B8C5EB" fill-opacity="0.3"/>
<path d="M736.542 606.985C718.244 598.928 702.201 589.433 686.629 580.21C681.173 576.978 675.532 573.636 669.879 570.41V570.409C636.525 551.343 601.011 537.543 564.323 529.392C550.956 526.422 536.727 524.977 522.441 524.977C493.994 524.977 465.315 530.704 442.776 541.52C412.432 556.081 397.312 577.163 400.198 600.882C400.451 602.963 400.799 604.989 401.195 606.985H399.257C398.873 605.018 398.531 603.023 398.284 600.973C395.348 576.834 410.735 555.381 441.609 540.564C476.501 523.821 523.769 519.104 564.967 528.255C601.896 536.461 637.629 550.345 671.173 569.519V569.518C676.835 572.752 682.486 576.099 687.948 579.334C704.119 588.913 720.828 598.769 739.977 606.984L736.542 606.985Z" fill="#B8C5EB" fill-opacity="0.3"/>
<path d="M690.44 606.985C689.357 606.414 688.295 605.829 687.26 605.232C676.521 599.034 668.029 591.385 659.816 583.988C651.471 576.477 642.845 568.709 631.895 562.52C614.912 552.445 593.268 547.252 570.57 547.252C556.303 547.252 541.62 549.304 527.424 553.485C491.996 563.919 470.912 584.255 471.558 606.984H469.64C469.004 583.767 490.5 563.029 526.606 552.394C564.125 541.345 604.973 544.891 633.199 561.635C644.294 567.905 652.988 575.731 661.392 583.3C669.546 590.643 677.979 598.234 688.562 604.345C690.144 605.258 691.805 606.131 693.502 606.984L690.44 606.985Z" fill="#DBCAEC" fill-opacity="0.3"/>
</g>
<mask id="mask2_6828_9142" style="mask-type:luminance" maskUnits="userSpaceOnUse" x="0" y="-3" width="1440" height="602">
<path d="M0 -3H1440V599H0V-3Z" fill="white"/>
</mask>
<g mask="url(#mask2_6828_9142)">
<path d="M357.446 317.695C398.352 317.696 443.9 311.707 489.462 294.101C566.095 266.411 601.236 231.975 593.883 191.759C588.716 163.516 561.654 135.13 517.674 111.833C485.092 94.5709 446.984 81.4473 410.127 68.7559C403.185 66.3648 396.246 63.9748 389.343 61.5584C383.178 59.4008 377.021 57.2156 370.856 55.0279C330.589 40.7364 288.954 25.9585 243.608 18.6671C184.293 9.12902 126.856 15.3609 89.9808 35.3449C46.656 58.8217 30.2439 101.392 46.08 149.219C68.544 217.062 142.343 275.463 238.679 301.632C266.298 309.134 308.55 317.694 357.446 317.695ZM189.784 15.4861C207.022 15.4861 224.98 16.9153 243.13 19.8338C288.228 27.0855 329.752 41.8236 369.909 56.0754C376.076 58.2643 382.237 60.4507 388.404 62.6095C395.313 65.0271 402.255 67.4183 409.202 69.8106C445.974 82.4743 483.997 95.5678 516.436 112.752C560.039 135.852 586.867 163.959 591.974 191.896C599.232 231.591 564.413 265.63 488.479 293.067C389.176 331.443 289.826 314.212 239.441 300.526C143.67 274.51 70.2989 216.439 47.9597 148.974C32.2675 101.579 48.4474 59.4418 91.2384 36.2551C116.381 22.6295 151.265 15.4861 189.784 15.4861Z" fill="#B8C5EB" fill-opacity="0.3"/>
<path d="M347.593 -10.3252C347.297 0.226661 352.064 11.3685 361.883 21.2617C376.224 35.7097 399.936 47.7726 434.376 58.1403C447.768 62.1725 461.798 65.7207 475.369 69.1521C490.75 73.041 506.653 77.0623 521.733 81.8145C541.059 87.9043 559.557 95.3571 577.445 102.564C593.758 109.137 610.627 115.933 628.053 121.665C658.425 131.654 703.637 141.986 746.524 134.467C791.091 126.654 821.353 101.89 838.888 82.4924C849.008 71.2988 857.598 59.3455 865.906 47.7847C874.871 35.31 884.14 22.4104 895.374 10.4053C901.562 3.7893 909.289 -3.42266 918.612 -10.324H921.145C911.424 -3.24688 903.402 4.20227 897.029 11.0145C885.849 22.9642 876.601 35.8338 867.657 48.2807C859.332 59.8656 850.723 71.8442 840.558 83.0871C822.842 102.682 792.238 127.704 747.041 135.627C737.076 137.374 726.524 138.241 715.489 138.241C688.404 138.241 658.423 133.013 627.16 122.732C609.659 116.976 592.755 110.165 576.407 103.579C558.56 96.3889 540.107 88.9542 520.869 82.8921C505.86 78.1628 489.993 74.1511 474.649 70.2706C461.051 66.8319 446.991 63.2765 433.543 59.2275C398.766 48.7575 374.791 36.5477 360.251 21.8999C350.244 11.8176 345.387 0.454217 345.682 -10.3228H347.593V-10.3252Z" fill="#B8C5EB" fill-opacity="0.3"/>
<path d="M185.178 -10.325C186.632 -8.7393 188.383 -7.27885 190.372 -6.04956C199.905 -0.157188 213.517 2.37603 225.527 4.61065L306.372 19.657C310.746 20.4709 315.708 21.3908 320.483 21.0754C324.716 20.7924 329.579 19.2248 330.9 16.3629C332.104 13.7454 330.046 10.9858 327.832 8.38399C322.449 2.04854 316.698 -4.193 310.65 -10.3238H312.91C318.749 -4.3748 324.309 1.67771 329.528 7.81811C331.818 10.5151 334.147 13.6479 332.746 16.6976C331.179 20.0977 325.559 21.9483 320.686 22.2733C319.947 22.3227 319.208 22.3456 318.47 22.3456C314.062 22.3456 309.723 21.5377 305.827 20.8129L224.98 5.76529C212.755 3.48973 198.899 0.91076 189.026 -5.19352C186.666 -6.65156 184.604 -8.40579 182.974 -10.3262L185.178 -10.325Z" fill="#B8C5EB" fill-opacity="0.3"/>
<path d="M-15.0386 80.5457C-14.3858 80.6794 -13.7292 80.801 -13.063 80.8925C-3.04825 82.2759 6.77635 78.6398 12.6439 74.7773C18.4442 70.9607 22.4742 66.1411 26.3699 61.4792C27.0112 60.7146 27.6505 59.9489 28.2957 59.1904C52.8045 30.3714 90.569 6.02414 135.66 -10.3262H139.51C93.447 5.90976 54.855 30.5207 29.991 59.7562C29.3459 60.5136 28.7104 61.2757 28.071 62.0378C24.1139 66.7732 20.0205 71.6686 14.0339 75.6069C8.74051 79.0913 0.367365 82.3951 -8.64511 82.3951C-10.2406 82.3951 -11.8572 82.2915 -13.4777 82.0676C-14.0019 81.9953 -14.5241 81.9086 -15.0406 81.8123V80.5457H-15.0386Z" fill="#B8C5EB" fill-opacity="0.3"/>
<path d="M-15.0376 466.609C-2.27919 446.208 16.2757 426.951 39.9685 409.803C76.0894 383.659 121.599 364.172 171.577 353.448L172.723 353.203C184.07 350.774 195.803 348.263 201.488 342.061C207.558 335.438 203.785 326.824 197.357 321.224C191.086 315.767 182.058 311.716 173.328 307.8L170.194 306.389C89.5793 269.88 33.3695 215.641 -15.0376 164.295V161.924C33.6498 213.684 90.09 268.626 171.319 305.413L174.445 306.821C183.302 310.794 192.461 314.903 198.912 320.522C205.206 326.002 210.094 335.088 203.153 342.662C197.109 349.257 184.481 351.96 173.343 354.343L172.199 354.587C86.0523 373.071 16.4639 416.688 -15.0376 469.835V466.609Z" fill="#B8C5EB" fill-opacity="0.3"/>
<path d="M349.715 292.161C383.776 292.161 422 287.236 460.761 272.749C524.503 248.922 553.785 220.218 547.79 187.435C543.486 163.893 520.931 140.235 484.282 120.821C457.149 106.445 425.421 95.5188 394.736 84.9513C388.947 82.9575 383.162 80.9648 377.407 78.9505C372.273 77.1542 367.147 75.3349 362.015 73.5133C328.48 61.6105 293.803 49.3032 256.027 43.2291C206.591 35.2779 158.716 40.4767 127.971 57.1365C91.8537 76.7087 78.1698 112.189 91.366 152.047C110.08 208.565 171.562 257.218 251.82 279.02C274.423 285.161 309.109 292.161 349.715 292.161ZM211.172 40.7789C225.511 40.7789 240.45 41.9685 255.549 44.3957C293.077 50.4302 327.641 62.6977 361.066 74.5608C366.202 76.3836 371.333 78.2041 376.467 80.0016C382.227 82.0171 388.017 84.011 393.81 86.006C424.411 96.5446 456.053 107.442 483.042 121.739C519.315 140.955 541.631 164.335 545.88 187.571C551.782 219.841 522.811 248.15 459.776 271.712C375.543 303.199 293.805 289.113 252.583 277.914C172.887 256.266 111.831 207.942 93.2418 151.801C80.1896 112.377 93.6412 77.3287 129.225 58.0467C150.133 46.7183 179.141 40.7789 211.172 40.7789Z" fill="#DBCAEC" fill-opacity="0.3"/>
<path d="M343.25 266.919C370.491 266.919 401.067 262.981 432.07 251.392C483.07 232.328 506.494 209.356 501.696 183.111C498.25 164.271 480.208 145.341 450.887 129.811C429.193 118.318 403.836 109.585 379.312 101.139C374.688 99.546 370.067 97.9543 365.469 96.3457C361.367 94.9106 357.27 93.4573 353.173 92.0017C326.368 82.4877 298.653 72.651 268.443 67.7941C228.884 61.4333 190.568 65.5956 165.958 78.9311C137.046 94.5975 126.089 122.988 136.647 154.877C151.611 200.072 200.777 238.976 264.957 256.41C283.033 261.32 310.773 266.918 343.25 266.919ZM232.557 66.0724C243.996 66.0724 255.919 67.0223 267.965 68.9595C297.925 73.7767 325.531 83.5749 352.224 93.0492C356.329 94.506 360.427 95.9605 364.53 97.3968C369.132 99.0078 373.759 100.601 378.386 102.195C402.83 110.612 428.103 119.316 449.649 130.731C478.591 146.063 496.397 164.714 499.786 183.249C504.492 208.981 481.377 231.559 431.087 250.358C363.858 275.488 298.624 264.244 265.721 255.305C202.103 238.024 153.364 199.448 138.525 154.631C128.11 123.177 138.836 95.2176 167.211 79.8413C183.883 70.8077 207.009 66.0724 232.557 66.0724Z" fill="#B8C5EB" fill-opacity="0.3"/>
<path d="M336.789 241.676C357.216 241.676 380.135 238.723 403.382 230.034C441.638 215.734 459.208 198.492 455.604 178.787C453.018 164.65 439.488 150.449 417.496 138.8C401.243 130.189 382.256 123.65 363.891 117.325C360.43 116.133 356.972 114.943 353.531 113.739C350.459 112.663 347.393 111.575 344.321 110.485C324.249 103.362 303.494 95.9964 280.861 92.3567C251.176 87.5841 222.42 90.7121 203.944 100.723C182.24 112.484 174.011 133.785 181.931 157.705C193.148 191.575 229.994 220.733 278.096 233.799C291.648 237.478 312.445 241.676 336.789 241.676ZM253.946 91.3658C262.489 91.3658 271.39 92.0738 280.387 93.521C302.772 97.121 323.414 104.446 343.378 111.532C346.452 112.622 349.522 113.712 352.596 114.788C356.042 115.994 359.504 117.187 362.968 118.38C381.25 124.676 400.151 131.186 416.259 139.718C437.873 151.169 451.169 165.092 453.696 178.923C457.207 198.115 439.948 214.964 402.399 228.999C352.183 247.769 303.444 239.37 278.862 232.693C231.323 219.78 194.903 190.951 183.811 157.459C176.035 133.973 184.032 113.104 205.201 101.634C217.633 94.8972 234.887 91.3658 253.946 91.3658Z" fill="#B8C5EB" fill-opacity="0.3"/>
<path d="M330.748 216.529C344.364 216.529 359.532 214.535 374.708 208.672C400.257 199.44 411.975 187.927 409.516 174.463C407.792 165.028 398.768 155.555 384.108 147.788C373.295 142.059 360.679 137.714 348.475 133.511C346.179 132.72 343.882 131.929 341.6 131.129C339.562 130.417 337.527 129.694 335.488 128.971C322.148 124.235 308.351 119.34 293.285 116.916C273.476 113.733 254.282 115.823 241.938 122.512C227.442 130.367 221.941 144.58 227.221 160.53C234.688 183.076 259.22 202.486 291.242 211.185C300.429 213.683 314.479 216.529 330.748 216.529ZM275.333 116.66C280.974 116.66 286.858 117.128 292.807 118.084C307.627 120.467 321.311 125.324 334.542 130.019C336.583 130.744 338.62 131.466 340.661 132.182C342.949 132.982 345.249 133.775 347.55 134.567C359.671 138.741 372.201 143.056 382.87 148.708C397.153 156.276 405.939 165.471 407.607 174.6C409.975 187.543 398.574 198.658 373.725 207.638C341.141 220.23 308.539 214.574 292.008 210.082C260.547 201.536 236.443 182.456 229.101 160.288C223.965 144.771 229.233 130.991 243.196 123.426C251.384 118.986 262.76 116.66 275.333 116.66Z" fill="#DBCAEC" fill-opacity="0.3"/>
</g>
<mask id="mask3_6828_9142" style="mask-type:luminance" maskUnits="userSpaceOnUse" x="0" y="-3" width="1440" height="602">
<path d="M0 -3H1440V599H0V-3Z" fill="white"/>
</mask>
<g mask="url(#mask3_6828_9142)">
<path d="M1289.03 573.702C1301.85 568.987 1316.03 565.356 1329.74 561.845C1353.08 555.868 1377.22 549.689 1394.39 538.067C1417.69 522.297 1423.66 499.843 1429.43 478.129C1432.78 465.526 1436.2 452.682 1443.03 441.027V444.714C1437.43 455.392 1434.35 466.956 1431.33 478.327C1425.51 500.217 1419.5 522.851 1395.8 538.886C1378.34 550.703 1354 556.934 1330.47 562.96C1316.81 566.455 1302.7 570.068 1290 574.741C1267.42 583.043 1251.02 594.395 1243.22 606.984H1241.16C1249.01 593.967 1265.82 582.239 1289.03 573.702Z" fill="#B8C5EB" fill-opacity="0.3"/>
<path d="M1209.54 598.08C1221.39 580.544 1248.55 567.655 1272.51 556.285L1273.15 555.98C1284.68 550.51 1297.11 546.079 1309.14 541.796C1330.14 534.313 1349.99 527.244 1364.89 515.202C1369.51 511.48 1373.58 507.38 1377.33 502.67C1387.24 490.21 1392.85 475.797 1398.27 461.858C1406.97 439.497 1415.95 416.401 1443.03 401.571V403.188C1417.43 417.71 1409.01 439.322 1400.13 462.143C1394.69 476.146 1389.05 490.626 1379.05 503.207C1375.24 507.991 1371.11 512.157 1366.41 515.941C1351.27 528.172 1331.27 535.298 1310.09 542.842C1298.12 547.108 1285.74 551.518 1274.31 556.94L1273.67 557.244C1249.9 568.524 1222.96 581.308 1211.31 598.552C1209.46 601.27 1208.1 604.103 1207.19 606.985H1205.24C1206.16 603.939 1207.59 600.946 1209.54 598.08Z" fill="#DBCAEC" fill-opacity="0.3"/>
<path d="M1173.05 597.584C1174.36 593.653 1176.56 589.815 1179.58 586.175C1191.1 572.168 1212.28 561.504 1232.76 551.19C1241.07 547.004 1249.67 542.675 1257.3 538.256C1266.51 532.92 1276.02 528.236 1285.21 523.707C1304.08 514.411 1321.9 505.631 1335.39 492.341C1339.23 488.581 1342.8 484.409 1346.3 479.586C1353.57 469.558 1359.21 458.537 1364.66 447.876C1377.33 423.111 1390.42 397.502 1424.75 383.638C1430.54 381.302 1436.7 379.451 1443.03 377.95V379.231C1437.05 380.676 1431.25 382.446 1425.79 384.649C1392.04 398.281 1379.63 422.55 1366.49 448.244C1361.02 458.936 1355.36 469.993 1348.05 480.085C1344.51 484.961 1340.89 489.182 1337.01 492.989C1323.34 506.451 1305.4 515.293 1286.4 524.653C1277.24 529.168 1267.76 533.837 1258.6 539.14C1250.92 543.586 1242.3 547.929 1233.96 552.128C1213.64 562.364 1192.62 572.946 1181.28 586.728C1178.34 590.271 1176.21 594.006 1174.93 597.829C1173.93 600.834 1173.54 603.904 1173.68 606.983H1171.76C1171.62 603.823 1172.03 600.671 1173.05 597.584Z" fill="#B8C5EB" fill-opacity="0.3"/>
<path d="M1141.18 587.178C1142.9 582.709 1145.74 578.371 1149.61 574.283C1161.83 561.305 1182.45 551.337 1202.4 541.698C1216.07 535.092 1230.2 528.259 1241.46 520.533C1245.78 517.574 1250.02 514.731 1254.18 511.945C1274.54 498.304 1292.13 486.522 1305.9 469.488C1308.9 465.793 1311.89 461.668 1315.28 456.509C1318.98 450.855 1322.56 444.93 1326.03 439.2C1343.41 410.475 1361.38 380.77 1403.65 367.201C1415.84 363.292 1429.08 361.05 1443.03 359.813V361.034C1429.37 362.259 1416.41 364.459 1404.53 368.273C1362.91 381.63 1345.07 411.113 1327.82 439.627C1324.35 445.365 1320.76 451.296 1317.05 456.965C1313.64 462.156 1310.64 466.31 1307.61 470.032C1293.72 487.217 1276.05 499.057 1255.58 512.766C1251.43 515.548 1247.19 518.387 1242.88 521.342C1231.51 529.146 1217.3 536.012 1203.57 542.649C1183.77 552.22 1163.29 562.116 1151.27 574.895C1147.49 578.88 1144.73 583.106 1143.05 587.458C1140.51 594.079 1140.78 600.688 1143.11 606.984H1141.24C1138.87 600.349 1138.73 593.588 1141.18 587.178Z" fill="#B8C5EB" fill-opacity="0.3"/>
<path d="M1109.32 576.773C1111.48 571.69 1114.86 566.987 1119.65 562.397C1132.84 549.693 1154.13 540.011 1174.72 530.649C1193.09 522.292 1212.09 513.65 1225.64 502.805C1248.06 484.854 1263.24 468.057 1276.41 446.64C1278.47 443.302 1280.49 439.843 1282.45 436.499L1284.25 433.428C1304.94 398.087 1331.16 363.615 1382.55 350.77C1401.49 346.039 1422.13 344.694 1443.03 344.485V345.689C1422.33 345.898 1401.91 347.228 1383.26 351.89C1332.57 364.558 1306.58 398.765 1286.05 433.844L1284.25 436.913C1282.29 440.264 1280.27 443.729 1278.2 447.075C1264.96 468.609 1249.69 485.498 1227.15 503.549C1213.44 514.526 1194.33 523.219 1175.84 531.624C1155.4 540.923 1134.26 550.538 1121.25 563.055C1116.58 567.538 1113.28 572.127 1111.17 577.082C1106.81 587.395 1108.81 597.662 1114.91 606.985H1112.84C1106.82 597.555 1104.91 587.189 1109.32 576.773Z" fill="#DBCAEC" fill-opacity="0.3"/>
<path d="M1077.45 566.373C1080.02 560.736 1084.02 555.549 1089.67 550.515C1103.99 537.738 1126.51 528.132 1148.29 518.841C1171.16 509.087 1194.8 499.002 1209.81 485.076C1227.98 468.231 1235.72 450.04 1243.93 430.782C1244.91 428.47 1245.9 426.141 1246.92 423.79C1248.79 419.513 1250.84 414.923 1253.22 410.345C1273.46 371.154 1312.91 343.452 1361.44 334.342C1387.56 329.44 1415.63 329.827 1443.03 330.552V331.757C1415.77 331.036 1387.84 330.645 1361.99 335.495C1314.08 344.49 1275.09 371.906 1255.04 410.717C1252.68 415.272 1250.64 419.845 1248.78 424.107C1247.76 426.454 1246.77 428.782 1245.78 431.093C1237.54 450.452 1229.75 468.737 1211.41 485.751C1196.19 499.868 1172.39 510.019 1149.37 519.836C1126.74 529.491 1105.36 538.609 1091.24 551.207C1085.72 556.129 1081.8 561.199 1079.29 566.704C1072.9 580.731 1077.91 594.856 1089.11 606.984H1086.9C1075.85 594.728 1071.01 580.506 1077.45 566.373Z" fill="#B8C5EB" fill-opacity="0.3"/>
<path d="M1045.58 555.975C1056.63 533.044 1090.18 519.599 1122.63 506.595C1149.91 495.661 1178.13 484.353 1194 467.349C1207.52 452.863 1210.65 435.68 1213.67 419.063C1215.59 408.491 1217.57 397.559 1222.19 387.267C1237.51 353.118 1284.98 325.25 1340.33 317.924C1368.03 314.258 1396.83 315.405 1424.68 316.513C1430.72 316.752 1436.87 316.994 1443.03 317.191V318.396C1436.83 318.198 1430.64 317.955 1424.56 317.714C1396.84 316.61 1368.17 315.47 1340.73 319.101C1286.06 326.339 1239.17 353.862 1224.04 387.593C1219.46 397.791 1217.49 408.674 1215.57 419.2C1212.53 435.94 1209.39 453.251 1195.66 467.957C1179.55 485.21 1151.14 496.597 1123.66 507.609C1090.03 521.087 1058.26 533.818 1047.42 556.322C1038.96 573.874 1047.79 592.185 1065.09 606.984H1062.52C1059.85 604.655 1057.4 602.254 1055.22 599.8C1042.35 585.345 1038.92 569.781 1045.58 555.975Z" fill="#B8C5EB" fill-opacity="0.3"/>
</g>
<mask id="mask4_6828_9142" style="mask-type:luminance" maskUnits="userSpaceOnUse" x="0" y="-3" width="1440" height="602">
<path d="M0 -3H1440V599H0V-3Z" fill="white"/>
</mask>
<g mask="url(#mask4_6828_9142)">
<path d="M926.348 431.061C947.343 427.03 969.481 424.974 990.891 422.986C1016.32 420.624 1042.61 418.182 1066.93 412.414C1114.29 401.185 1153.52 376.82 1171.89 347.238C1190.94 316.566 1187.88 282.504 1184.92 249.564C1184.52 245.113 1184.12 240.674 1183.78 236.255C1180.94 199.904 1183.07 158.644 1220.32 128.244C1235.94 115.501 1256.78 105.654 1276.94 96.1313C1290.46 89.7417 1304.44 83.1353 1316.75 75.7054C1353.73 53.3712 1376.31 21.8662 1380.29 -10.3252H1382.21C1378.23 22.1876 1355.44 54.0166 1318.08 76.5735C1305.69 84.054 1291.66 90.6832 1278.09 97.0945C1258.04 106.569 1237.3 116.366 1221.84 128.98C1184.97 159.07 1182.88 200.064 1185.69 236.197C1186.04 240.613 1186.44 245.049 1186.84 249.497C1189.8 282.566 1192.87 316.76 1173.68 347.675C1155.12 377.57 1115.46 402.192 1067.61 413.539C1043.09 419.354 1016.7 421.805 991.171 424.177C969.832 426.159 947.766 428.209 926.909 432.213C880.541 441.116 836.333 465.481 841.553 494.828C845.372 516.298 873.782 532.312 902.554 546.873L984.033 588.11C993.589 592.946 1005.37 598.922 1010.94 606.985H1008.85C1003.33 599.427 992.024 593.7 982.827 589.045L901.348 547.808C872.266 533.091 843.546 516.886 839.645 494.961C834.309 464.963 879.224 440.108 926.348 431.061Z" fill="#DBCAEC" fill-opacity="0.3"/>
</g>
<mask id="mask5_6828_9142" style="mask-type:luminance" maskUnits="userSpaceOnUse" x="0" y="-3" width="1440" height="602">
<path d="M0 -3H1440V599H0V-3Z" fill="white"/>
</mask>
<g mask="url(#mask5_6828_9142)">
<path d="M963.832 410.57C1034.58 400.435 1107.73 389.954 1136.17 359.228C1167.38 325.516 1165.03 283.283 1162.74 242.44C1160.65 204.919 1158.48 166.12 1181.97 133.437C1198.36 110.724 1230.29 90.0017 1261.17 69.9611C1299.33 45.1985 1338.4 19.8398 1350.7 -10.3252H1352.72C1340.46 20.2347 1301.05 45.8173 1262.55 70.7991C1231.79 90.7651 1199.98 111.411 1183.72 133.934C1160.42 166.361 1162.57 205.017 1164.66 242.4C1166.95 283.414 1169.32 325.823 1137.83 359.835C1108.97 391.014 1035.4 401.552 964.259 411.747C892.268 422.06 824.271 431.803 800.148 461.001C777.819 505.443 830.567 532.566 886.412 561.281C914.012 575.471 942.19 589.965 961.713 606.986H959.318C939.961 590.383 912.301 576.149 885.195 562.213C828.833 533.233 775.595 505.859 798.38 460.545C822.977 430.752 891.396 420.949 963.832 410.57Z" fill="#B8C5EB" fill-opacity="0.3"/>
</g>
<mask id="mask6_6828_9142" style="mask-type:luminance" maskUnits="userSpaceOnUse" x="0" y="-3" width="1440" height="602">
<path d="M0 -3H1440V599H0V-3Z" fill="white"/>
</mask>
<g mask="url(#mask6_6828_9142)">
<path d="M982.611 528.985C990.689 515.353 1011.34 504.693 1043.98 497.303C1051.36 495.632 1059.02 494.141 1066.42 492.7C1084.54 489.168 1103.29 485.516 1119.31 478.95C1149.52 466.567 1170.49 443.945 1183.41 409.793C1185.9 403.198 1188.12 396.408 1190.27 389.84C1196.86 369.733 1203.67 348.941 1219.24 330.591C1242.15 303.6 1284.13 283.212 1331.53 276.056C1368.48 270.478 1408.32 272.997 1443.03 282.66V283.979C1408.52 274.241 1368.8 271.666 1331.98 277.226C1285.11 284.303 1243.59 304.465 1220.94 331.157C1205.49 349.352 1198.71 370.058 1192.16 390.081C1190 396.657 1187.78 403.457 1185.28 410.07C1172.24 444.538 1151 467.398 1120.36 479.959C1104.11 486.615 1085.24 490.293 1066.99 493.85C1059.61 495.287 1051.98 496.774 1044.64 498.437C1012.55 505.701 992.282 516.121 984.412 529.405C977.692 540.746 979.993 554.859 991.248 571.353C1000 584.18 1012.02 596.22 1026.5 606.986H1024.02C1009.88 596.323 998.104 584.457 989.483 571.825C978.028 555.036 975.717 540.624 982.611 528.985Z" fill="#DBCAEC" fill-opacity="0.3"/>
</g>
<mask id="mask7_6828_9142" style="mask-type:luminance" maskUnits="userSpaceOnUse" x="0" y="-3" width="1440" height="602">
<path d="M0 -3H1440V599H0V-3Z" fill="white"/>
</mask>
<g mask="url(#mask7_6828_9142)">
<path d="M1292.4 146.49C1298.68 143.778 1305.18 140.973 1311.34 138.079C1355.64 117.239 1389.72 87.625 1407.31 54.692C1418.42 33.8833 1422.97 11.6454 1420.96 -10.3252H1422.89C1424.89 11.7754 1420.3 34.1433 1409.13 55.0749C1391.42 88.2367 1357.1 118.057 1312.48 139.042C1306.3 141.952 1299.78 144.763 1293.48 147.482C1276.08 154.991 1258.08 162.757 1245.26 173.376C1228.24 187.462 1222.85 210.246 1243.81 222.497C1262.41 233.37 1290.17 231.286 1317 229.274C1320.35 229.024 1323.66 228.775 1326.92 228.556C1356.98 226.533 1383.01 228.509 1404.29 234.429C1420.37 238.902 1433.89 245.958 1443.03 254.291V256.502C1434.11 247.691 1420.24 240.184 1403.52 235.529C1382.55 229.695 1356.84 227.751 1327.12 229.752C1323.88 229.972 1320.57 230.218 1317.23 230.469C1291.23 232.42 1261.76 234.632 1242.5 223.377C1220.76 210.669 1226.21 187.151 1243.73 172.649C1256.74 161.874 1274.87 154.053 1292.4 146.49Z" fill="#B8C5EB" fill-opacity="0.3"/>
</g>
<mask id="mask8_6828_9142" style="mask-type:luminance" maskUnits="userSpaceOnUse" x="0" y="-3" width="1440" height="602">
<path d="M0 -3H1440V599H0V-3Z" fill="white"/>
</mask>
<g mask="url(#mask8_6828_9142)">
<path d="M1276.85 137.414C1295.77 128.244 1317.22 117.85 1337.15 105.876C1390.14 74.0451 1400.18 23.7805 1400.03 -10.3252H1402.09C1402.14 -4.00299 1401.84 2.85499 1400.98 10.0357C1397.48 39.1267 1383.8 79.5185 1338.48 106.745C1318.47 118.763 1296.98 129.177 1278.02 138.366C1232.12 160.612 1195.86 178.182 1203.43 204.755C1214.47 243.533 1264.95 246.077 1307.69 243.955C1377.67 240.487 1407.89 253.9 1437.1 266.874C1439.05 267.736 1441.04 268.612 1443.03 269.486V270.957C1440.66 269.92 1438.3 268.88 1436 267.857C1405.73 254.415 1377.13 241.72 1307.84 245.155C1264.29 247.315 1212.85 244.698 1201.54 204.967C1193.77 177.675 1230.43 159.907 1276.85 137.414Z" fill="#B8C5EB" fill-opacity="0.3"/>
</g>
<mask id="mask9_6828_9142" style="mask-type:luminance" maskUnits="userSpaceOnUse" x="0" y="-3" width="1440" height="602">
<path d="M0 -3H1440V599H0V-3Z" fill="white"/>
</mask>
<g mask="url(#mask9_6828_9142)">
<path d="M1325.42 156.933C1334.36 151.75 1345.23 148.054 1355.75 144.482C1359.82 143.102 1364.02 141.674 1368.04 140.184C1401.05 127.949 1427.42 108.586 1443.03 86.3982V89.301C1427.07 110.701 1401.16 129.308 1369.01 141.22C1364.96 142.721 1360.75 144.153 1356.67 145.539C1346.25 149.076 1335.48 152.735 1326.72 157.816C1315.3 164.437 1306.38 175.522 1312.19 185.363C1318.76 196.498 1340.62 200.77 1357.35 201.044C1364.73 201.169 1372.28 200.795 1379.58 200.436C1390.68 199.891 1402.15 199.327 1413.35 200.472C1424.61 201.626 1435.89 205.297 1443.03 210.574V212.497C1436.37 206.833 1424.7 202.854 1413.04 201.661C1402.08 200.537 1390.72 201.096 1379.73 201.635C1372.38 201.997 1364.78 202.37 1357.3 202.247C1339.14 201.948 1317.29 197.465 1310.39 185.779C1304.28 175.42 1313.53 163.826 1325.42 156.933Z" fill="#DBCAEC" fill-opacity="0.3"/>
</g>
<mask id="mask10_6828_9142" style="mask-type:luminance" maskUnits="userSpaceOnUse" x="0" y="-3" width="1440" height="602">
<path d="M0 -3H1440V599H0V-3Z" fill="white"/>
</mask>
<g mask="url(#mask10_6828_9142)">
<path d="M721.039 453.33C735.823 453.33 750.494 449.184 761.768 445.997L830.706 426.51C835.857 425.054 840.673 423.506 843.005 420.584C846.54 416.152 842.224 410.755 836.009 408.096C830.462 405.723 823.752 404.918 817.262 404.14L815.163 403.887C759.833 397.08 710.301 374.614 682.664 343.792C680.185 341.027 677.793 338.116 675.478 335.3C667.028 325.025 658.29 314.4 643.091 307.769C630.288 302.184 613.346 300.571 596.631 303.34C579.904 306.11 566.449 312.756 559.713 321.577C548.189 336.67 563.62 347.97 581.488 361.053C584.04 362.922 586.645 364.828 589.248 366.799L589.231 366.807L669.028 431.223C681.209 441.056 693.585 450.093 711.034 452.636C714.348 453.119 717.698 453.33 721.039 453.33ZM612.646 303.217C623.403 303.217 633.624 305.105 641.995 308.757C656.8 315.216 665.426 325.706 673.771 335.851C676.094 338.677 678.496 341.598 680.992 344.382C708.897 375.507 758.917 398.193 814.793 405.067L816.901 405.322C823.199 406.078 829.709 406.858 834.926 409.091C840.34 411.407 844.313 416.253 841.287 420.046C839.238 422.614 834.74 424.049 829.917 425.412L760.979 444.9C747.405 448.737 728.813 453.995 711.468 451.463C694.633 449.01 682.503 440.141 670.543 430.485L595.725 370.087L595.861 370.017C591.564 366.58 587.183 363.372 582.945 360.271C564.795 346.981 550.459 336.483 561.445 322.097C567.937 313.595 580.939 307.183 597.119 304.504C602.322 303.642 607.546 303.217 612.646 303.217Z" fill="#B8C5EB" fill-opacity="0.3"/>
</g>
<mask id="mask11_6828_9142" style="mask-type:luminance" maskUnits="userSpaceOnUse" x="0" y="-3" width="1440" height="602">
<path d="M0 -3H1440V599H0V-3Z" fill="white"/>
</mask>
<g mask="url(#mask11_6828_9142)">
<path d="M414.949 -10.3252C405.862 -3.22521 400.315 5.64104 402.125 15.0973C405.572 33.0922 433.665 45.2635 458.806 50.6526C470.211 53.0979 482.234 54.7907 493.863 56.427C509.738 58.6616 526.15 60.972 541.253 65.2306C558.573 70.114 573.91 77.4849 588.742 84.6126C601.719 90.8493 615.138 97.2979 629.811 102.039C679.37 118.057 743.152 113.063 784.912 89.8957C819.198 70.8737 835.959 42.8675 852.17 15.7835C854.725 11.5129 857.273 7.25681 859.877 3.05124C862.507 -1.19527 865.441 -5.70184 868.728 -10.324H870.836C867.42 -5.55013 864.379 -0.891858 861.668 3.48709C859.066 7.68784 856.52 11.9392 853.967 16.2061C837.676 43.4274 820.828 71.5769 786.185 90.7963C760.421 105.09 726.394 112.56 692.376 112.56C670.49 112.56 648.602 109.467 628.929 103.108C614.107 98.3177 600.619 91.8366 587.574 85.5686C572.827 78.4818 557.58 71.1555 540.465 66.3298C525.543 62.1219 509.223 59.8246 493.445 57.6033C481.765 55.9598 469.688 54.2598 458.186 51.794C432.492 46.2857 403.773 33.7906 400.223 15.2429C398.41 5.77469 403.692 -3.11565 412.517 -10.3228H414.949V-10.3252Z" fill="#DBCAEC" fill-opacity="0.3"/>
<path d="M664.273 2.06156C649.352 -0.976134 634.334 -4.38827 619.811 -7.68843C615.948 -8.56615 612.068 -9.44748 608.174 -10.3252H613.834C616.05 -9.82313 618.262 -9.32106 620.466 -8.8202C634.975 -5.52364 649.978 -2.11512 664.866 0.916554C695.786 7.21107 732.039 12.9228 766.492 7.56745C786.757 4.41658 804.536 -2.18495 820.997 -10.3252H824.078C806.913 -1.66362 788.332 5.41229 766.952 8.73654C732.033 14.1642 695.45 8.40905 664.273 2.06156Z" fill="#DBCAEC" fill-opacity="0.3"/>
</g>
<mask id="mask12_6828_9142" style="mask-type:luminance" maskUnits="userSpaceOnUse" x="0" y="-3" width="1440" height="602">
<path d="M0 -3H1440V599H0V-3Z" fill="white"/>
</mask>
<g mask="url(#mask12_6828_9142)">
<path d="M616.261 157.661C617.738 154.993 620.324 152.654 624.585 151.53C628.657 150.455 633.278 150.651 637.493 151.265C642.782 152.036 647.822 153.506 652.524 155.18C656.585 156.626 660.22 158.654 664.467 159.865C671.265 161.805 679.168 161.994 686.474 162.534C692.854 163.006 700.256 163.433 705.522 165.986C712.659 169.449 710.704 175.552 708.051 180.178C707.344 180.056 706.638 179.933 705.931 179.812C705.95 179.78 705.969 179.749 705.989 179.719C706.49 178.911 708.542 179.223 708.108 180.085C705.774 184.717 703.088 189.299 699.687 193.669C699.15 194.361 697.226 193.87 697.679 193.138C697.689 193.121 697.7 193.105 697.71 193.088C698.38 193.265 699.048 193.442 699.718 193.619C691.101 202.984 680.829 212.878 666.295 219.056C658.284 222.461 648.3 224.396 638.937 222.052C629.939 219.799 623.744 214.575 619.646 209.269C614.222 202.244 611.636 194.402 610.762 186.652C609.668 176.905 611.396 166.954 616.261 157.661C616.701 156.821 618.823 157.181 618.381 158.027C610.544 172.997 610.162 190.549 619.31 205.343C622.714 210.847 627.96 216.564 636.25 219.685C644.374 222.743 653.711 222.012 661.74 219.203C668.324 216.899 673.905 213.577 678.859 210.05C686.197 204.824 692.286 198.943 697.823 192.923C698.424 192.27 700.294 192.708 699.831 193.454C699.822 193.471 699.812 193.487 699.801 193.504C699.13 193.327 698.462 193.15 697.792 192.973C701.112 188.709 703.714 184.238 705.993 179.718C706.699 179.839 707.406 179.962 708.112 180.084C708.093 180.115 708.074 180.146 708.055 180.177C707.552 180.989 705.451 180.653 705.935 179.811C708.164 175.925 710.478 170.489 704.702 167.334C700.137 164.839 693.069 164.414 687.322 163.976C680.593 163.463 673.666 163.218 667.153 161.956C663.908 161.328 661.212 160.361 658.442 159.152C654.252 157.325 649.825 155.676 645.157 154.372C640.281 153.01 634.72 151.85 629.308 152.193C623.795 152.542 620.147 154.83 618.379 158.027C617.918 158.86 615.795 158.501 616.261 157.661Z" fill="#B8C5EB" fill-opacity="0.3"/>
</g>
<mask id="mask13_6828_9142" style="mask-type:luminance" maskUnits="userSpaceOnUse" x="0" y="-3" width="1440" height="602">
<path d="M0 -3H1440V599H0V-3Z" fill="white"/>
</mask>
<g mask="url(#mask13_6828_9142)">
<path d="M720.518 91.0313C722.192 90.8073 723.834 90.5677 725.441 90.3149C729.01 90.0283 732.56 89.6503 736.085 89.1819L735.815 88.3825C750.259 85.2316 761.383 80.6841 768.992 74.8061C780.286 66.0808 784.243 51.4606 771.315 42.0959C759.69 33.6727 739.968 32.7841 722.567 31.9991L718.59 31.8161C693.84 30.6362 669.509 27.271 646.268 21.8133L644.271 21.3425C630.572 18.1098 615.045 14.446 601.545 18.406C587.959 22.3924 582.698 32.748 584.528 40.9172C586.208 48.4337 592.719 55.8431 604.431 63.5704C633.828 82.9657 677.963 93.0612 720.389 90.6604L720.518 91.0313ZM725.084 89.1301C681.786 92.5892 635.955 82.6165 605.825 62.7421C594.399 55.2026 588.053 48.0087 586.431 40.7498C584.701 33.0177 589.616 23.2352 602.361 19.4968C615.133 15.7475 630.253 19.3198 643.597 22.4695L645.596 22.9402C669.006 28.4377 693.517 31.8282 718.446 33.0165L722.43 33.1995C740.292 34.005 758.76 34.8382 769.866 42.8833C782.135 51.7712 778.298 65.7087 767.504 74.0476C758.446 81.0417 744.192 86.1081 725.084 89.1301Z" fill="#B8C5EB" fill-opacity="0.3"/>
</g>
<mask id="mask14_6828_9142" style="mask-type:luminance" maskUnits="userSpaceOnUse" x="0" y="-3" width="1440" height="602">
<path d="M0 -3H1440V599H0V-3Z" fill="white"/>
</mask>
<g mask="url(#mask14_6828_9142)">
<path d="M922.669 521.491C931.131 521.491 942.347 518.049 955.676 505.998C976.425 490.275 999.465 487.274 1021.75 484.371C1039.15 482.104 1055.59 479.962 1069.96 471.986C1081.82 464.399 1082.9 455.569 1078.72 450.171C1075.64 446.199 1069.83 444.099 1063.17 444.556L1049.3 445.928C1034.63 446.578 1017.62 445.74 999.617 444.853C951.003 442.457 900.724 439.979 890.617 467.222C883.724 485.799 893.706 514.573 914.751 520.427C917.026 521.061 919.676 521.491 922.669 521.491ZM1065.01 445.693C1070.18 445.693 1074.5 447.475 1076.99 450.696C1080.88 455.714 1079.8 463.974 1068.64 471.115C1054.7 478.848 1038.51 480.959 1021.36 483.192C998.753 486.137 975.377 489.182 954.15 505.271C940.406 517.689 927.068 522.534 915.529 519.326C895.252 513.684 885.751 485.642 892.485 467.494C902.219 441.261 951.657 443.696 999.465 446.052C1017.54 446.941 1034.62 447.784 1049.52 447.123L1063.43 445.748C1063.96 445.713 1064.49 445.693 1065.01 445.693Z" fill="#B8C5EB" fill-opacity="0.3"/>
</g>
<mask id="mask15_6828_9142" style="mask-type:luminance" maskUnits="userSpaceOnUse" x="0" y="-3" width="1440" height="602">
<path d="M0 -3H1440V599H0V-3Z" fill="white"/>
</mask>
<g mask="url(#mask15_6828_9142)">
<path d="M1223 303.141C1232.4 303.142 1238.25 296.8 1243 291.662L1243.7 290.907C1256.73 276.845 1278.43 260.96 1307.72 265.138L1307.73 265.139C1317.33 266.455 1323.54 265.578 1326.19 262.537C1327.45 261.085 1327.5 259.36 1326.32 257.677C1324.73 255.406 1321.22 253.551 1317.37 252.948C1311.98 252.107 1306.51 252.94 1301.21 253.748C1300.33 253.883 1299.45 254.018 1298.57 254.143C1279.74 256.845 1259.69 255.566 1242.12 250.54C1235.76 248.722 1222.54 244.943 1216.15 250.057C1213.84 251.901 1213.4 254.359 1213.06 256.333L1208.18 283.955C1207.55 287.542 1206.83 291.608 1208.6 295.383C1210.27 298.936 1214.98 302.702 1221.73 303.104C1222.16 303.129 1222.59 303.141 1223 303.141ZM1298.21 263.25C1272.82 263.25 1253.9 277.508 1242.04 290.302L1241.34 291.059C1236.41 296.39 1230.83 302.454 1221.91 301.905C1216.05 301.557 1211.93 298.207 1210.44 295.043C1208.78 291.501 1209.47 287.563 1210.09 284.088L1214.96 256.464C1215.29 254.642 1215.68 252.374 1217.66 250.8C1222.46 246.96 1231.87 248.932 1241.32 251.635C1259.27 256.77 1279.76 258.079 1299 255.317C1299.88 255.191 1300.77 255.055 1301.66 254.919C1306.74 254.144 1311.98 253.346 1316.9 254.117C1320.14 254.624 1323.22 256.249 1324.56 258.161C1325.22 259.105 1325.75 260.53 1324.5 261.962C1322.32 264.476 1316.81 265.149 1308.14 263.964C1304.73 263.478 1301.42 263.25 1298.21 263.25Z" fill="#B8C5EB" fill-opacity="0.3"/>
</g>
<mask id="mask16_6828_9142" style="mask-type:luminance" maskUnits="userSpaceOnUse" x="0" y="-3" width="1440" height="602">
<path d="M0 -3H1440V599H0V-3Z" fill="white"/>
</mask>
<g mask="url(#mask16_6828_9142)">
<path d="M742.985 432.27C751.223 432.27 759.704 430.076 765.5 426.39C770.268 423.356 772.627 419.602 772.145 415.818C770.857 405.721 752.972 400.745 738.601 396.747L738.067 396.599C704.901 387.367 676.176 371.605 657.182 352.219C655.596 350.599 654.071 348.953 652.547 347.307C648.582 343.027 644.485 338.603 639.31 334.735C630.979 328.506 620.876 324.835 610.869 324.399C603.994 324.1 597.437 325.692 593.751 328.559C591.376 330.405 589.033 333.665 591.37 338.713L591.406 338.776C608.638 364.838 659.664 397.642 701.672 419.651C712.656 425.406 725.67 431.601 741.12 432.234C741.737 432.258 742.361 432.27 742.985 432.27ZM609.212 325.567C609.717 325.567 610.224 325.578 610.735 325.599C623.532 326.157 633.21 332.046 637.84 335.507C642.906 339.295 646.961 343.675 650.884 347.911C652.418 349.565 653.95 351.22 655.546 352.848C674.738 372.441 703.769 388.37 737.288 397.7L737.822 397.849C751.726 401.716 769.031 406.531 770.229 415.914C770.792 420.31 767.223 423.577 764.131 425.545C758.366 429.212 749.382 431.376 741.241 431.031C726.367 430.421 713.651 424.36 702.899 418.725C661.085 396.817 610.316 364.2 593.198 338.344C591.55 334.756 592.257 331.635 595.244 329.314C598.272 326.959 603.527 325.567 609.212 325.567Z" fill="#DBCAEC" fill-opacity="0.3"/>
</g>
<mask id="mask17_6828_9142" style="mask-type:luminance" maskUnits="userSpaceOnUse" x="0" y="-3" width="1440" height="602">
<path d="M0 -3H1440V599H0V-3Z" fill="white"/>
</mask>
<g mask="url(#mask17_6828_9142)">
<path d="M-15.0367 409.517C-6.79025 407.129 -0.204665 403.446 3.81389 400.795C9.67949 396.929 14.7329 392.491 19.6193 388.199C22.9697 385.255 26.4372 382.21 30.1524 379.359C45.9501 367.235 67.6673 357.767 91.2987 352.704C94.6491 351.985 98.0955 351.34 101.429 350.716C108.373 349.416 115.554 348.072 122.099 346.02C133.128 342.564 140.612 337.3 142.628 331.577C144.692 325.732 141.163 318.797 133.193 313.026C127.229 308.708 119.574 305.322 112.171 302.047C110.685 301.388 109.197 300.729 107.724 300.065C83.1387 288.971 61.6116 275.573 43.7441 260.24C42.3732 259.065 41.0119 257.872 39.6468 256.675C30.3636 248.536 20.7655 240.12 6.52292 235.971C0.0832381 234.095 -7.79057 233.663 -15.0367 234.62V233.402C-7.49489 232.46 0.647712 232.931 7.33315 234.878C22.0327 239.162 31.7806 247.709 41.2097 255.974C42.571 257.169 43.9285 258.358 45.2936 259.53C63.044 274.759 84.4269 288.068 108.847 299.087C110.316 299.749 111.798 300.406 113.283 301.062C120.778 304.379 128.531 307.809 134.648 312.237C143.014 318.293 146.7 325.621 144.508 331.837C142.363 337.915 134.51 343.478 122.961 347.097C116.27 349.194 109.007 350.555 101.982 351.869C98.6657 352.492 95.2366 353.134 91.9246 353.844C68.6254 358.836 47.2174 368.168 31.6443 380.121C27.9675 382.943 24.5191 385.97 21.186 388.898C16.2612 393.224 11.1675 397.697 5.20972 401.625C0.941555 404.44 -6.12602 408.388 -15.0329 410.846V409.517H-15.0367Z" fill="#DBCAEC" fill-opacity="0.3"/>
</g>
</svg>
