<svg width="223" height="108" viewBox="0 0 223 108" fill="none" xmlns="http://www.w3.org/2000/svg">
<path d="M111.5 223C50.0189 223 0 172.981 0 111.5C0 50.0189 50.0189 0 111.5 0C172.981 0 223 50.0189 223 111.5C223 172.981 172.981 223 111.5 223ZM118.148 155.855C117.729 155.855 117.328 156.016 117.028 156.308C116.716 156.61 116.54 157.029 116.54 157.465V210.534C116.54 211.025 116.763 211.488 117.144 211.793C117.432 212.023 117.786 212.145 118.15 212.145C118.269 212.145 118.388 212.132 118.507 212.105C135.468 208.247 151.03 190.098 160.134 163.551C160.278 163.127 160.24 162.661 160.027 162.265C159.814 161.868 159.447 161.581 159.011 161.469C146.276 158.196 132.544 156.308 118.2 155.857C118.18 155.855 118.165 155.855 118.148 155.855ZM104.803 155.857C90.4513 156.311 76.7219 158.201 63.9936 161.474C63.5575 161.586 63.1908 161.873 62.9777 162.27C62.7646 162.666 62.7249 163.132 62.8711 163.556C71.9769 190.098 87.5349 208.245 104.498 212.103C104.617 212.13 104.736 212.142 104.855 212.142C105.216 212.142 105.571 212.021 105.858 211.791C106.24 211.486 106.463 211.022 106.463 210.532V157.465C106.463 157.029 106.287 156.613 105.975 156.308C105.672 156.016 105.271 155.855 104.855 155.855C104.835 155.857 104.817 155.857 104.803 155.857ZM51.4411 165.392C51.2553 165.392 51.0695 165.424 50.8935 165.488C44.5232 167.793 38.7029 170.464 33.5888 173.425C33.1799 173.662 32.895 174.066 32.8107 174.532C32.7265 174.998 32.8504 175.476 33.1527 175.84C42.9102 187.699 55.4502 197.35 69.4149 203.748C69.6305 203.847 69.8585 203.894 70.084 203.894C70.5696 203.894 71.0453 203.673 71.3575 203.269C71.8159 202.677 71.806 201.85 71.3327 201.267C63.7532 191.946 57.5736 180.243 52.9675 166.489C52.8287 166.078 52.5314 165.741 52.1424 165.55C51.9218 165.446 51.6815 165.392 51.4411 165.392ZM171.564 165.377C171.323 165.377 171.083 165.431 170.863 165.538C170.474 165.726 170.176 166.066 170.037 166.477C165.429 180.236 159.247 191.941 151.665 201.27C151.194 201.852 151.184 202.68 151.642 203.272C151.955 203.676 152.43 203.896 152.916 203.896C153.142 203.896 153.369 203.849 153.588 203.75C167.555 197.353 180.092 187.702 189.845 175.845C190.145 175.481 190.269 175.003 190.187 174.537C190.103 174.071 189.82 173.667 189.409 173.43C184.243 170.436 178.425 167.76 172.114 165.476C171.935 165.409 171.75 165.377 171.564 165.377ZM180.003 116.537C179.136 116.537 178.422 117.226 178.395 118.093C177.981 130.477 176.383 142.512 173.645 153.863C173.454 154.665 173.898 155.483 174.673 155.758C182.419 158.498 189.438 161.727 195.541 165.354C195.799 165.508 196.081 165.58 196.361 165.58C196.902 165.58 197.427 165.31 197.732 164.819C206.421 150.815 211.59 134.714 212.678 118.252C212.705 117.808 212.551 117.37 212.246 117.045C211.942 116.721 211.515 116.535 211.069 116.535L180.003 116.537ZM11.9305 116.537C11.4845 116.537 11.0583 116.723 10.7535 117.048C10.4513 117.372 10.2952 117.811 10.3224 118.254C11.4102 134.712 16.5763 150.812 25.2634 164.814C25.5657 165.305 26.0935 165.575 26.6336 165.575C26.9136 165.575 27.1961 165.503 27.4538 165.35C33.5516 161.73 40.5736 158.506 48.3266 155.761C49.1021 155.486 49.5457 154.668 49.3549 153.865C46.6169 142.512 45.0212 130.477 44.605 118.093C44.5777 117.226 43.8641 116.537 42.9969 116.537H11.9305ZM56.3125 116.537C55.8764 116.537 55.4551 116.716 55.1529 117.03C54.8506 117.345 54.687 117.771 54.7044 118.207C55.1355 129.402 56.6271 140.329 59.1346 150.691C59.2362 151.11 59.5014 151.472 59.873 151.695C60.1258 151.846 60.4107 151.922 60.7006 151.922C60.8369 151.922 60.9732 151.905 61.107 151.87C74.8537 148.29 89.589 146.241 104.904 145.78C105.774 145.753 106.465 145.042 106.465 144.172V118.148C106.465 117.258 105.744 116.537 104.855 116.537H56.3125ZM118.148 116.537C117.258 116.537 116.537 117.258 116.537 118.148V144.172C116.537 145.042 117.229 145.755 118.098 145.78C133.423 146.241 148.159 148.288 161.898 151.865C162.032 151.9 162.168 151.917 162.304 151.917C162.594 151.917 162.879 151.841 163.132 151.69C163.504 151.469 163.769 151.107 163.87 150.689C166.375 140.331 167.864 129.407 168.298 118.212C168.315 117.776 168.154 117.35 167.85 117.035C167.547 116.721 167.126 116.542 166.69 116.542H118.148V116.537ZM196.361 57.42C196.081 57.42 195.799 57.4919 195.541 57.6455C189.443 61.268 182.424 64.4966 174.673 67.2419C173.898 67.517 173.454 68.3346 173.645 69.1374C176.383 80.4881 177.979 92.5227 178.395 104.907C178.422 105.774 179.136 106.463 180.003 106.463H211.069C211.515 106.463 211.942 106.277 212.246 105.952C212.549 105.628 212.705 105.189 212.678 104.746C211.59 88.2857 206.421 72.1826 197.732 58.1807C197.427 57.6901 196.902 57.42 196.361 57.42ZM162.304 71.0825C162.168 71.0825 162.032 71.0998 161.898 71.1345C148.164 74.7124 133.428 76.7591 118.098 77.2199C117.229 77.2447 116.537 77.9583 116.537 78.828V104.85C116.537 105.739 117.258 106.46 118.148 106.46H166.688C167.124 106.46 167.545 106.282 167.847 105.967C168.149 105.652 168.313 105.226 168.296 104.788C167.864 93.5956 166.375 82.6686 163.868 72.3115C163.766 71.8927 163.501 71.531 163.129 71.3104C162.879 71.1618 162.594 71.0825 162.304 71.0825ZM60.6981 71.0775C60.4082 71.0775 60.1233 71.1543 59.8705 71.3055C59.4989 71.5285 59.2338 71.8878 59.1322 72.309C56.6247 82.6711 55.133 93.5981 54.7019 104.79C54.6845 105.226 54.8456 105.652 55.1504 105.97C55.4527 106.284 55.8739 106.463 56.31 106.463H104.85C105.739 106.463 106.46 105.742 106.46 104.852V78.8305C106.46 77.9608 105.769 77.2472 104.899 77.2224C89.584 76.7616 74.8487 74.7124 61.102 71.132C60.9707 71.0949 60.8344 71.0775 60.6981 71.0775ZM26.6336 57.425C26.0935 57.425 25.5682 57.6951 25.2634 58.1857C16.5763 72.1876 11.4102 88.2882 10.3224 104.746C10.2952 105.189 10.4488 105.628 10.7535 105.952C11.0583 106.277 11.4845 106.463 11.9305 106.463H42.9969C43.8641 106.463 44.5777 105.774 44.605 104.907C45.0212 92.5227 46.6169 80.4881 49.3549 69.135C49.5457 68.3322 49.1021 67.5145 48.3266 67.2395C40.5662 64.4941 33.5442 61.268 27.4538 57.6504C27.1961 57.4993 26.9136 57.425 26.6336 57.425ZM118.148 10.8576C117.786 10.8576 117.432 10.979 117.142 11.2095C116.76 11.5142 116.537 11.9776 116.537 12.4682V65.5372C116.537 65.9733 116.713 66.3896 117.025 66.6943C117.328 66.9867 117.729 67.1478 118.145 67.1478C118.163 67.1478 118.178 67.1478 118.195 67.1478C132.549 66.6968 146.281 64.8088 159.006 61.5356C159.443 61.4241 159.809 61.1367 160.022 60.7402C160.235 60.3438 160.275 59.878 160.129 59.4543C151.028 32.9098 135.465 14.7576 118.502 10.8997C118.386 10.87 118.267 10.8576 118.148 10.8576ZM104.852 10.8576C104.733 10.8576 104.612 10.87 104.495 10.8973C87.5349 14.7552 71.9745 32.9049 62.8687 59.4444C62.7249 59.8705 62.7621 60.3364 62.9752 60.7303C63.1883 61.1243 63.555 61.4142 63.9911 61.5257C76.7269 64.8013 90.4587 66.6919 104.8 67.1453C104.815 67.1453 104.832 67.1453 104.85 67.1453C105.268 67.1453 105.67 66.9842 105.97 66.6919C106.282 66.3871 106.458 65.9708 106.458 65.5347V12.4657C106.458 11.9751 106.235 11.5142 105.853 11.207C105.571 10.979 105.214 10.8576 104.852 10.8576ZM152.916 19.1061C152.43 19.1061 151.955 19.3267 151.642 19.7305C151.184 20.3227 151.194 21.1503 151.665 21.7326C159.247 31.0614 165.429 42.7664 170.037 56.5255C170.176 56.9369 170.474 57.2738 170.863 57.4621C171.083 57.5687 171.323 57.6232 171.564 57.6232C171.75 57.6232 171.935 57.591 172.111 57.5266C178.437 55.2371 184.257 52.5611 189.409 49.5729C189.818 49.335 190.1 48.9312 190.184 48.4653C190.269 47.9995 190.142 47.5213 189.842 47.1571C180.087 35.2984 167.55 25.6475 153.583 19.2523C153.369 19.1532 153.142 19.1061 152.916 19.1061ZM70.084 19.1061C69.8585 19.1061 69.6305 19.1532 69.4149 19.2523C55.4477 25.65 42.9077 35.3009 33.1527 47.1595C32.8529 47.5238 32.729 48.002 32.8107 48.4678C32.895 48.9336 33.1799 49.3375 33.5888 49.5754C38.6979 52.5363 44.5207 55.2074 50.8935 57.5117C51.0695 57.5761 51.2553 57.6083 51.4411 57.6083C51.6815 57.6083 51.9194 57.5538 52.1424 57.4473C52.5314 57.259 52.8287 56.9195 52.9675 56.5107C57.5761 42.7565 63.7557 31.0565 71.3327 21.7326C71.8035 21.1503 71.8134 20.3227 71.3575 19.7305C71.0453 19.3267 70.5696 19.1061 70.084 19.1061Z" fill="white"/>
</svg>
