<svg width="223" height="116" viewBox="0 0 223 116" fill="none" xmlns="http://www.w3.org/2000/svg">
<path d="M111.5 116C50.0189 116 0 65.9811 0 4.5C0 -56.9811 50.0189 -107 111.5 -107C172.981 -107 223 -56.9811 223 4.5C223 65.9811 172.981 116 111.5 116ZM118.148 48.8547C117.729 48.8547 117.328 49.0158 117.028 49.3081C116.716 49.6104 116.54 50.0292 116.54 50.4653V103.534C116.54 104.025 116.763 104.488 117.144 104.793C117.432 105.023 117.786 105.145 118.15 105.145C118.269 105.145 118.388 105.132 118.507 105.105C135.468 101.247 151.03 83.0976 160.134 56.5507C160.278 56.127 160.24 55.6611 160.027 55.2647C159.814 54.8683 159.447 54.5808 159.011 54.4693C146.276 51.1962 132.544 49.3081 118.2 48.8572C118.18 48.8547 118.165 48.8547 118.148 48.8547ZM104.803 48.8572C90.4513 49.3106 76.7219 51.2011 63.9936 54.4743C63.5575 54.5858 63.1908 54.8732 62.9777 55.2697C62.7646 55.6661 62.7249 56.1319 62.8711 56.5556C71.9769 83.0976 87.5349 101.245 104.498 105.103C104.617 105.13 104.736 105.142 104.855 105.142C105.216 105.142 105.571 105.021 105.858 104.791C106.24 104.486 106.463 104.022 106.463 103.532V50.4653C106.463 50.0292 106.287 49.6129 105.975 49.3081C105.672 49.0158 105.271 48.8547 104.855 48.8547C104.835 48.8572 104.817 48.8572 104.803 48.8572ZM51.4411 58.3917C51.2553 58.3917 51.0695 58.4239 50.8935 58.4883C44.5232 60.7926 38.7029 63.4637 33.5888 66.4246C33.1799 66.6625 32.895 67.0664 32.8107 67.5322C32.7265 67.998 32.8504 68.4762 33.1527 68.8405C42.9102 80.6991 55.4502 90.35 69.4149 96.7477C69.6305 96.8468 69.8585 96.8939 70.084 96.8939C70.5696 96.8939 71.0453 96.6733 71.3575 96.2695C71.8159 95.6773 71.806 94.8497 71.3327 94.2674C63.7532 84.946 57.5736 73.2435 52.9675 59.4893C52.8287 59.078 52.5314 58.741 52.1424 58.5502C51.9218 58.4462 51.6815 58.3917 51.4411 58.3917ZM171.564 58.3768C171.323 58.3768 171.083 58.4313 170.863 58.5378C170.474 58.7262 170.176 59.0656 170.037 59.4769C165.429 73.236 159.247 84.9411 151.665 94.2699C151.194 94.8522 151.184 95.6797 151.642 96.2719C151.955 96.6758 152.43 96.8963 152.916 96.8963C153.142 96.8963 153.369 96.8493 153.588 96.7502C167.555 90.3525 180.092 80.7016 189.845 68.8454C190.145 68.4812 190.269 68.003 190.187 67.5371C190.103 67.0713 189.82 66.6674 189.409 66.4296C184.243 63.4364 178.425 60.7604 172.114 58.4759C171.935 58.409 171.75 58.3768 171.564 58.3768ZM180.003 9.53732C179.136 9.53732 178.422 10.2261 178.395 11.0934C177.981 23.4773 176.383 35.5119 173.645 46.8626C173.454 47.6654 173.898 48.483 174.673 48.7581C182.419 51.4985 189.438 54.727 195.541 58.3545C195.799 58.5081 196.081 58.58 196.361 58.58C196.902 58.58 197.427 58.3099 197.732 57.8193C206.421 43.8149 211.59 27.7143 212.678 11.2519C212.705 10.8084 212.551 10.3699 212.246 10.0453C211.942 9.72066 211.515 9.53484 211.069 9.53484L180.003 9.53732ZM11.9305 9.53732C11.4845 9.53732 11.0583 9.72314 10.7535 10.0477C10.4513 10.3723 10.2952 10.8109 10.3224 11.2544C11.4102 27.7118 16.5763 43.8124 25.2634 57.8143C25.5657 58.3049 26.0935 58.575 26.6336 58.575C26.9136 58.575 27.1961 58.5032 27.4538 58.3495C33.5516 54.7295 40.5736 51.5059 48.3266 48.7605C49.1021 48.4855 49.5457 47.6678 49.3549 46.865C46.6169 35.5119 45.0212 23.4773 44.6049 11.0934C44.5777 10.2261 43.8641 9.53732 42.9969 9.53732H11.9305ZM56.3125 9.53732C55.8764 9.53732 55.4552 9.71573 55.1529 10.0304C54.8506 10.3451 54.687 10.7713 54.7044 11.2073C55.1355 22.4019 56.6271 33.3289 59.1346 43.691C59.2362 44.1098 59.5014 44.4715 59.873 44.6945C60.1258 44.8456 60.4107 44.9225 60.7006 44.9225C60.8369 44.9225 60.9732 44.9051 61.107 44.8704C74.8537 41.29 89.589 39.2409 104.904 38.78C105.774 38.7528 106.465 38.0417 106.465 37.172V11.1479C106.465 10.2584 105.744 9.53732 104.855 9.53732H56.3125ZM118.148 9.53732C117.258 9.53732 116.537 10.2584 116.537 11.1479V37.172C116.537 38.0417 117.229 38.7553 118.098 38.78C133.423 39.2409 148.159 41.2876 161.898 44.8655C162.032 44.9002 162.168 44.9175 162.304 44.9175C162.594 44.9175 162.879 44.8407 163.132 44.6896C163.504 44.469 163.769 44.1073 163.87 43.6885C166.375 33.3314 167.865 22.4069 168.298 11.2123C168.315 10.7762 168.154 10.35 167.85 10.0354C167.547 9.72068 167.126 9.54228 166.69 9.54228H118.148V9.53732ZM196.361 -49.58C196.081 -49.58 195.799 -49.5081 195.541 -49.3545C189.443 -45.732 182.424 -42.5034 174.673 -39.7581C173.898 -39.483 173.454 -38.6654 173.645 -37.8626C176.383 -26.5119 177.979 -14.4773 178.395 -2.09338C178.422 -1.22615 179.136 -0.537315 180.003 -0.537315H211.069C211.515 -0.537315 211.942 -0.723152 212.246 -1.04774C212.549 -1.37234 212.705 -1.8109 212.678 -2.25442C211.59 -18.7143 206.421 -34.8174 197.732 -48.8193C197.427 -49.3099 196.902 -49.58 196.361 -49.58ZM162.304 -35.9175C162.168 -35.9175 162.032 -35.9002 161.898 -35.8655C148.164 -32.2876 133.428 -30.2409 118.098 -29.7801C117.229 -29.7553 116.537 -29.0417 116.537 -28.172V-2.15035C116.537 -1.26083 117.258 -0.539795 118.148 -0.539795H166.688C167.124 -0.539795 167.545 -0.718208 167.847 -1.03288C168.149 -1.34756 168.313 -1.77374 168.296 -2.2123C167.864 -13.4044 166.375 -24.3314 163.868 -34.6885C163.766 -35.1073 163.501 -35.469 163.129 -35.6896C162.879 -35.8382 162.594 -35.9175 162.304 -35.9175ZM60.6981 -35.9225C60.4082 -35.9225 60.1233 -35.8457 59.8705 -35.6945C59.4989 -35.4715 59.2338 -35.1122 59.1322 -34.691C56.6247 -24.3289 55.133 -13.4019 54.7019 -2.20982C54.6845 -1.77374 54.8456 -1.34756 55.1504 -1.03041C55.4527 -0.715736 55.8739 -0.537315 56.31 -0.537315H104.85C105.739 -0.537315 106.46 -1.25836 106.46 -2.14788V-28.1695C106.46 -29.0392 105.769 -29.7528 104.899 -29.7776C89.584 -30.2384 74.8487 -32.2876 61.102 -35.868C60.9707 -35.9051 60.8344 -35.9225 60.6981 -35.9225ZM26.6336 -49.575C26.0935 -49.575 25.5682 -49.3049 25.2634 -48.8143C16.5763 -34.8124 11.4102 -18.7118 10.3224 -2.25442C10.2952 -1.8109 10.4488 -1.37234 10.7535 -1.04774C11.0583 -0.723152 11.4845 -0.537315 11.9305 -0.537315H42.9969C43.8641 -0.537315 44.5777 -1.22615 44.6049 -2.09338C45.0212 -14.4773 46.6169 -26.5119 49.3549 -37.865C49.5457 -38.6678 49.1021 -39.4855 48.3266 -39.7605C40.5662 -42.5059 33.5442 -45.732 27.4538 -49.3495C27.1961 -49.5007 26.9136 -49.575 26.6336 -49.575ZM118.148 -96.1424C117.786 -96.1424 117.432 -96.021 117.142 -95.7905C116.76 -95.4858 116.537 -95.0224 116.537 -94.5318V-41.4628C116.537 -41.0267 116.713 -40.6104 117.025 -40.3057C117.328 -40.0133 117.729 -39.8522 118.145 -39.8522C118.163 -39.8522 118.178 -39.8522 118.195 -39.8522C132.549 -40.3032 146.281 -42.1912 159.006 -45.4644C159.443 -45.5759 159.809 -45.8633 160.022 -46.2598C160.235 -46.6562 160.275 -47.122 160.129 -47.5457C151.028 -74.0902 135.465 -92.2424 118.502 -96.1003C118.386 -96.13 118.267 -96.1424 118.148 -96.1424ZM104.852 -96.1424C104.733 -96.1424 104.612 -96.13 104.495 -96.1027C87.5349 -92.2448 71.9745 -74.0951 62.8687 -47.5556C62.7249 -47.1295 62.7621 -46.6636 62.9752 -46.2697C63.1883 -45.8757 63.555 -45.5858 63.9911 -45.4743C76.7269 -42.1987 90.4587 -40.3081 104.8 -39.8547C104.815 -39.8547 104.832 -39.8547 104.85 -39.8547C105.268 -39.8547 105.67 -40.0158 105.97 -40.3081C106.282 -40.6129 106.458 -41.0292 106.458 -41.4653V-94.5343C106.458 -95.0249 106.235 -95.4858 105.853 -95.793C105.571 -96.021 105.214 -96.1424 104.852 -96.1424ZM152.916 -87.8939C152.43 -87.8939 151.955 -87.6733 151.642 -87.2695C151.184 -86.6773 151.194 -85.8497 151.665 -85.2674C159.247 -75.9386 165.429 -64.2336 170.037 -50.4745C170.176 -50.0631 170.474 -49.7262 170.863 -49.5379C171.083 -49.4313 171.323 -49.3768 171.564 -49.3768C171.75 -49.3768 171.935 -49.409 172.111 -49.4734C178.437 -51.7629 184.257 -54.4389 189.409 -57.4271C189.818 -57.665 190.1 -58.0688 190.184 -58.5347C190.269 -59.0005 190.142 -59.4787 189.842 -59.8429C180.087 -71.7016 167.55 -81.3525 153.583 -87.7477C153.369 -87.8468 153.142 -87.8939 152.916 -87.8939ZM70.084 -87.8939C69.8585 -87.8939 69.6305 -87.8468 69.4149 -87.7477C55.4477 -81.35 42.9077 -71.6991 33.1527 -59.8405C32.8529 -59.4762 32.729 -58.998 32.8107 -58.5322C32.895 -58.0664 33.1799 -57.6625 33.5888 -57.4246C38.6979 -54.4637 44.5207 -51.7926 50.8935 -49.4883C51.0695 -49.4239 51.2553 -49.3917 51.4411 -49.3917C51.6815 -49.3917 51.9194 -49.4462 52.1424 -49.5527C52.5314 -49.741 52.8287 -50.0805 52.9675 -50.4893C57.5761 -64.2435 63.7557 -75.9435 71.3327 -85.2674C71.8035 -85.8497 71.8134 -86.6773 71.3575 -87.2695C71.0453 -87.6733 70.5696 -87.8939 70.084 -87.8939Z" fill="url(#paint0_radial_8748_17176)" fill-opacity="0.8"/>
<defs>
<radialGradient id="paint0_radial_8748_17176" cx="0" cy="0" r="1" gradientUnits="userSpaceOnUse" gradientTransform="translate(2.75628e-06 -56.1746) rotate(31.9958) scale(274.266 361.063)">
<stop offset="0.236274" stop-color="#643493" stop-opacity="0.95"/>
<stop offset="0.706858" stop-color="#4A6DCB"/>
<stop offset="1" stop-color="#64D2F7"/>
</radialGradient>
</defs>
</svg>
