<svg width="88" height="78" viewBox="0 0 88 78" fill="none" xmlns="http://www.w3.org/2000/svg">
<g filter="url(#filter0_d_9322_888)">
<mask id="path-1-inside-1_9322_888" fill="white">
<path d="M80.9524 27.1318C82.6221 29.9312 83.4569 31.3309 83.7834 32.822C84.0722 34.141 84.0722 35.5058 83.7834 36.8248C83.4569 38.3159 82.6221 39.7156 80.9524 42.515L69.2294 62.17C67.604 64.8951 66.7914 66.2577 65.6634 67.248C64.6652 68.1244 63.4928 68.7857 62.221 69.19C60.7836 69.6468 59.181 69.6468 55.9757 69.6468H32.0243C28.819 69.6468 27.2164 69.6468 25.779 69.19C24.5072 68.7857 23.3348 68.1243 22.3366 67.248C21.2086 66.2577 20.396 64.8951 18.7706 62.17L7.0476 42.515C5.37793 39.7156 4.5431 38.3159 4.21662 36.8248C3.92779 35.5057 3.92779 34.141 4.21662 32.822C4.5431 31.3309 5.37793 29.9312 7.0476 27.1318L18.7706 7.47676C20.396 4.75166 21.2086 3.38911 22.3366 2.39876C23.3348 1.52243 24.5072 0.861041 25.779 0.456818C27.2164 -2.20367e-07 28.819 -1.38052e-07 32.0243 1.51986e-10L55.9757 1.03287e-06C59.181 1.17107e-06 60.7836 1.23405e-06 62.221 0.45682C63.4928 0.861043 64.6652 1.52243 65.6634 2.39876C66.7914 3.38911 67.604 4.75166 69.2294 7.47676L80.9524 27.1318Z"/>
<path d="M7.0476 27.1318C5.37793 29.9312 4.5431 31.3309 4.21662 32.822C3.92779 34.141 3.92779 35.5057 4.21662 36.8248C4.5431 38.3159 5.37793 39.7156 7.0476 42.515L18.7706 62.17C20.396 64.8951 21.2086 66.2577 22.3366 67.248C23.3348 68.1243 24.5072 68.7857 25.779 69.19C27.2164 69.6468 28.819 69.6468 32.0243 69.6468H55.9757C59.181 69.6468 60.7836 69.6468 62.221 69.19C63.4928 68.7857 64.6652 68.1244 65.6634 67.248C66.7914 66.2577 67.604 64.8951 69.2294 62.17L80.9524 42.515C82.6221 39.7156 83.4569 38.3159 83.7834 36.8248C84.0722 35.5058 84.0722 34.141 83.7834 32.822C83.4569 31.3309 82.6221 29.9312 80.9524 27.1318L69.2294 7.47676C67.604 4.75166 66.7914 3.38911 65.6634 2.39876C64.6652 1.52243 63.4928 0.861043 62.221 0.45682C60.7836 1.23405e-06 59.181 1.17107e-06 55.9757 1.03287e-06L32.0243 1.51986e-10C28.819 -1.38052e-07 27.2164 -2.20367e-07 25.779 0.456818C24.5072 0.861041 23.3348 1.52243 22.3366 2.39876C21.2086 3.38911 20.396 4.75166 18.7706 7.47676L7.0476 27.1318Z"/>
<path d="M80.9524 27.1318C82.6221 29.9312 83.4569 31.3309 83.7834 32.822C84.0722 34.141 84.0722 35.5058 83.7834 36.8248C83.4569 38.3159 82.6221 39.7156 80.9524 42.515L69.2294 62.17C67.604 64.8951 66.7914 66.2577 65.6634 67.248C64.6652 68.1244 63.4928 68.7857 62.221 69.19C60.7836 69.6468 59.181 69.6468 55.9757 69.6468H32.0243C28.819 69.6468 27.2164 69.6468 25.779 69.19C24.5072 68.7857 23.3348 68.1243 22.3366 67.248C21.2086 66.2577 20.396 64.8951 18.7706 62.17L7.0476 42.515C5.37793 39.7156 4.5431 38.3159 4.21662 36.8248C3.92779 35.5057 3.92779 34.141 4.21662 32.822C4.5431 31.3309 5.37793 29.9312 7.0476 27.1318L18.7706 7.47676C20.396 4.75166 21.2086 3.38911 22.3366 2.39876C23.3348 1.52243 24.5072 0.861041 25.779 0.456818C27.2164 -2.20367e-07 28.819 -1.38052e-07 32.0243 1.51986e-10L55.9757 1.03287e-06C59.181 1.17107e-06 60.7836 1.23405e-06 62.221 0.45682C63.4928 0.861043 64.6652 1.52243 65.6634 2.39876C66.7914 3.38911 67.604 4.75166 69.2294 7.47676L80.9524 27.1318Z"/>
</mask>
<path d="M80.9524 27.1318C82.6221 29.9312 83.4569 31.3309 83.7834 32.822C84.0722 34.141 84.0722 35.5058 83.7834 36.8248C83.4569 38.3159 82.6221 39.7156 80.9524 42.515L69.2294 62.17C67.604 64.8951 66.7914 66.2577 65.6634 67.248C64.6652 68.1244 63.4928 68.7857 62.221 69.19C60.7836 69.6468 59.181 69.6468 55.9757 69.6468H32.0243C28.819 69.6468 27.2164 69.6468 25.779 69.19C24.5072 68.7857 23.3348 68.1243 22.3366 67.248C21.2086 66.2577 20.396 64.8951 18.7706 62.17L7.0476 42.515C5.37793 39.7156 4.5431 38.3159 4.21662 36.8248C3.92779 35.5057 3.92779 34.141 4.21662 32.822C4.5431 31.3309 5.37793 29.9312 7.0476 27.1318L18.7706 7.47676C20.396 4.75166 21.2086 3.38911 22.3366 2.39876C23.3348 1.52243 24.5072 0.861041 25.779 0.456818C27.2164 -2.20367e-07 28.819 -1.38052e-07 32.0243 1.51986e-10L55.9757 1.03287e-06C59.181 1.17107e-06 60.7836 1.23405e-06 62.221 0.45682C63.4928 0.861043 64.6652 1.52243 65.6634 2.39876C66.7914 3.38911 67.604 4.75166 69.2294 7.47676L80.9524 27.1318Z" fill="url(#paint0_linear_9322_888)"/>
<path d="M7.0476 27.1318C5.37793 29.9312 4.5431 31.3309 4.21662 32.822C3.92779 34.141 3.92779 35.5057 4.21662 36.8248C4.5431 38.3159 5.37793 39.7156 7.0476 42.515L18.7706 62.17C20.396 64.8951 21.2086 66.2577 22.3366 67.248C23.3348 68.1243 24.5072 68.7857 25.779 69.19C27.2164 69.6468 28.819 69.6468 32.0243 69.6468H55.9757C59.181 69.6468 60.7836 69.6468 62.221 69.19C63.4928 68.7857 64.6652 68.1244 65.6634 67.248C66.7914 66.2577 67.604 64.8951 69.2294 62.17L80.9524 42.515C82.6221 39.7156 83.4569 38.3159 83.7834 36.8248C84.0722 35.5058 84.0722 34.141 83.7834 32.822C83.4569 31.3309 82.6221 29.9312 80.9524 27.1318L69.2294 7.47676C67.604 4.75166 66.7914 3.38911 65.6634 2.39876C64.6652 1.52243 63.4928 0.861043 62.221 0.45682C60.7836 1.23405e-06 59.181 1.17107e-06 55.9757 1.03287e-06L32.0243 1.51986e-10C28.819 -1.38052e-07 27.2164 -2.20367e-07 25.779 0.456818C24.5072 0.861041 23.3348 1.52243 22.3366 2.39876C21.2086 3.38911 20.396 4.75166 18.7706 7.47676L7.0476 27.1318Z" fill="url(#paint1_radial_9322_888)"/>
<path d="M80.9524 27.1318C82.6221 29.9312 83.4569 31.3309 83.7834 32.822C84.0722 34.141 84.0722 35.5058 83.7834 36.8248C83.4569 38.3159 82.6221 39.7156 80.9524 42.515L69.2294 62.17C67.604 64.8951 66.7914 66.2577 65.6634 67.248C64.6652 68.1244 63.4928 68.7857 62.221 69.19C60.7836 69.6468 59.181 69.6468 55.9757 69.6468H32.0243C28.819 69.6468 27.2164 69.6468 25.779 69.19C24.5072 68.7857 23.3348 68.1243 22.3366 67.248C21.2086 66.2577 20.396 64.8951 18.7706 62.17L7.0476 42.515C5.37793 39.7156 4.5431 38.3159 4.21662 36.8248C3.92779 35.5057 3.92779 34.141 4.21662 32.822C4.5431 31.3309 5.37793 29.9312 7.0476 27.1318L18.7706 7.47676C20.396 4.75166 21.2086 3.38911 22.3366 2.39876C23.3348 1.52243 24.5072 0.861041 25.779 0.456818C27.2164 -2.20367e-07 28.819 -1.38052e-07 32.0243 1.51986e-10L55.9757 1.03287e-06C59.181 1.17107e-06 60.7836 1.23405e-06 62.221 0.45682C63.4928 0.861043 64.6652 1.52243 65.6634 2.39876C66.7914 3.38911 67.604 4.75166 69.2294 7.47676L80.9524 27.1318Z" fill="url(#paint2_linear_9322_888)"/>
<path d="M55.9757 1.03287e-06V2.5V1.03287e-06ZM62.221 0.45682L61.4637 2.83938L62.221 0.45682ZM69.2294 7.47676L67.0823 8.75737L69.2294 7.47676ZM65.6634 2.39876L64.0139 4.27744V4.27744L65.6634 2.39876ZM18.7706 7.47676L16.6235 6.19615V6.19615L18.7706 7.47676ZM22.3366 2.39876L23.9861 4.27743H23.9861L22.3366 2.39876ZM32.0243 1.51986e-10V-2.5V1.51986e-10ZM25.779 0.456818L26.5363 2.83938L25.779 0.456818ZM7.0476 42.515L4.9005 43.7956L4.9005 43.7956L7.0476 42.515ZM4.21662 36.8248L6.65876 36.2901L4.21662 36.8248ZM7.0476 27.1318L9.1947 28.4124L7.0476 27.1318ZM4.21662 32.822L1.77448 32.2872L4.21662 32.822ZM32.0243 69.6468L32.0243 72.1468H32.0243V69.6468ZM25.779 69.19L26.5363 66.8074L25.779 69.19ZM18.7706 62.17L20.9177 60.8894H20.9177L18.7706 62.17ZM22.3366 67.248L23.9861 65.3693L22.3366 67.248ZM69.2294 62.17L67.0823 60.8894L69.2294 62.17ZM65.6634 67.248L64.0139 65.3693L65.6634 67.248ZM55.9757 69.6468V67.1468V69.6468ZM62.221 69.19L61.4637 66.8074L62.221 69.19ZM80.9524 42.515L83.0995 43.7956L80.9524 42.515ZM83.7834 36.8248L81.3412 36.2901L83.7834 36.8248ZM80.9524 27.1318L83.0995 25.8512V25.8512L80.9524 27.1318ZM83.7834 32.822L81.3412 33.3567L83.7834 32.822ZM78.8053 41.2344L67.0823 60.8894L71.3765 63.4506L83.0995 43.7956L78.8053 41.2344ZM55.9757 67.1468H32.0243V72.1468H55.9757V67.1468ZM20.9177 60.8894L9.1947 41.2344L4.9005 43.7956L16.6235 63.4506L20.9177 60.8894ZM9.1947 28.4124L20.9177 8.75737L16.6235 6.19615L4.9005 25.8512L9.1947 28.4124ZM32.0243 2.5L55.9757 2.5L55.9757 -2.5L32.0243 -2.5V2.5ZM67.0823 8.75737L78.8053 28.4124L83.0995 25.8512L71.3765 6.19614L67.0823 8.75737ZM55.9757 2.5C59.346 2.5 60.4836 2.52788 61.4637 2.83938L62.9782 -1.92574C61.0836 -2.52788 59.016 -2.5 55.9757 -2.5L55.9757 2.5ZM71.3765 6.19615C69.8363 3.6139 68.8067 1.83174 67.3128 0.520089L64.0139 4.27744C64.776 4.94648 65.3717 5.88942 67.0823 8.75737L71.3765 6.19615ZM61.4637 2.83938C62.4082 3.13955 63.2765 3.62998 64.0139 4.27744L67.3128 0.52009C66.054 -0.585111 64.5774 -1.41747 62.9782 -1.92574L61.4637 2.83938ZM20.9177 8.75737C22.6283 5.88942 23.224 4.94648 23.9861 4.27743L20.6872 0.520087C19.1933 1.83174 18.1637 3.6139 16.6235 6.19615L20.9177 8.75737ZM32.0243 -2.5C28.984 -2.5 26.9164 -2.52788 25.0218 -1.92574L26.5363 2.83938C27.5164 2.52788 28.654 2.5 32.0243 2.5V-2.5ZM23.9861 4.27743C24.7235 3.62998 25.5918 3.13955 26.5363 2.83938L25.0218 -1.92574C23.4226 -1.41747 21.946 -0.585112 20.6872 0.520087L23.9861 4.27743ZM9.1947 41.2344C7.43557 38.285 6.87763 37.2897 6.65876 36.2901L1.77448 37.3596C2.20857 39.3421 3.3203 41.1462 4.9005 43.7956L9.1947 41.2344ZM4.9005 25.8512C3.3203 28.5006 2.20857 30.3047 1.77448 32.2872L6.65876 33.3567C6.87763 32.3571 7.43557 31.3618 9.1947 28.4124L4.9005 25.8512ZM6.65876 36.2901C6.44708 35.3233 6.44708 34.3235 6.65876 33.3567L1.77448 32.2872C1.40851 33.9586 1.40851 35.6882 1.77448 37.3596L6.65876 36.2901ZM32.0243 67.1468C28.654 67.1468 27.5164 67.1189 26.5363 66.8074L25.0218 71.5725C26.9164 72.1747 28.984 72.1468 32.0243 72.1468L32.0243 67.1468ZM16.6235 63.4506C18.1637 66.0329 19.1933 67.815 20.6872 69.1267L23.9861 65.3693C23.224 64.7003 22.6283 63.7574 20.9177 60.8894L16.6235 63.4506ZM26.5363 66.8074C25.5918 66.5072 24.7235 66.0168 23.9861 65.3693L20.6872 69.1267C21.946 70.2319 23.4226 71.0642 25.0218 71.5725L26.5363 66.8074ZM67.0823 60.8894C65.3717 63.7574 64.776 64.7003 64.0139 65.3693L67.3128 69.1267C68.8067 67.815 69.8363 66.0329 71.3765 63.4506L67.0823 60.8894ZM55.9757 72.1468C59.016 72.1468 61.0836 72.1747 62.9782 71.5725L61.4637 66.8074C60.4836 67.1189 59.346 67.1468 55.9757 67.1468V72.1468ZM64.0139 65.3693C63.2765 66.0168 62.4082 66.5072 61.4637 66.8074L62.9782 71.5725C64.5774 71.0642 66.054 70.2319 67.3128 69.1267L64.0139 65.3693ZM83.0995 43.7956C84.6797 41.1462 85.7914 39.3421 86.2255 37.3596L81.3412 36.2901C81.1224 37.2897 80.5644 38.285 78.8053 41.2344L83.0995 43.7956ZM78.8053 28.4124C80.5644 31.3618 81.1224 32.3571 81.3412 33.3567L86.2255 32.2872C85.7914 30.3047 84.6797 28.5006 83.0995 25.8512L78.8053 28.4124ZM86.2255 37.3596C86.5915 35.6882 86.5915 33.9586 86.2255 32.2872L81.3412 33.3567C81.5529 34.3235 81.5529 35.3233 81.3412 36.2901L86.2255 37.3596Z" fill="white" mask="url(#path-1-inside-1_9322_888)"/>
<path d="M43.9291 14.4189L27.292 21.8132V32.9047C27.292 43.1642 34.3905 52.7583 43.9291 55.0875C53.4678 52.7583 60.5663 43.1642 60.5663 32.9047V21.8132L43.9291 14.4189ZM43.9291 34.7347H56.8691C55.8894 42.3509 50.8058 49.1351 43.9291 51.261V34.7532H30.9891V24.2164L43.9291 18.4673V34.7347Z" fill="white"/>
</g>
<defs>
<filter id="filter0_d_9322_888" x="0" y="0" width="88" height="77.647" filterUnits="userSpaceOnUse" color-interpolation-filters="sRGB">
<feFlood flood-opacity="0" result="BackgroundImageFix"/>
<feColorMatrix in="SourceAlpha" type="matrix" values="0 0 0 0 0 0 0 0 0 0 0 0 0 0 0 0 0 0 127 0" result="hardAlpha"/>
<feOffset dy="4"/>
<feGaussianBlur stdDeviation="2"/>
<feComposite in2="hardAlpha" operator="out"/>
<feColorMatrix type="matrix" values="0 0 0 0 0 0 0 0 0 0 0 0 0 0 0 0 0 0 0.25 0"/>
<feBlend mode="normal" in2="BackgroundImageFix" result="effect1_dropShadow_9322_888"/>
<feBlend mode="normal" in="SourceGraphic" in2="effect1_dropShadow_9322_888" result="shape"/>
</filter>
<linearGradient id="paint0_linear_9322_888" x1="44" y1="0" x2="44" y2="69.6468" gradientUnits="userSpaceOnUse">
<stop stop-color="#4A6DCB"/>
<stop offset="1" stop-color="#643493"/>
</linearGradient>
<radialGradient id="paint1_radial_9322_888" cx="0" cy="0" r="1" gradientUnits="userSpaceOnUse" gradientTransform="translate(67.2256 1.28495e-06) rotate(120.011) scale(40.1351 39.5512)">
<stop stop-color="#B5EAFB"/>
<stop offset="1" stop-color="#2CB1CB" stop-opacity="0"/>
</radialGradient>
<linearGradient id="paint2_linear_9322_888" x1="78.9255" y1="58.8316" x2="53.7965" y2="41.5983" gradientUnits="userSpaceOnUse">
<stop stop-color="#B5EAFB"/>
<stop offset="1" stop-color="#2CB1CB" stop-opacity="0"/>
</linearGradient>
</defs>
</svg>
